<svg width="374" height="96" viewBox="0 0 374 96" fill="none" xmlns="http://www.w3.org/2000/svg">
<g clip-path="url(#clip0_5313_1197)">
<path d="M246.612 46.6675C242.902 46.6675 239.889 49.6759 239.889 53.3855H253.33C253.33 49.6759 250.322 46.6675 246.612 46.6675ZM270.941 70.9917C276.953 70.9917 281.824 66.1206 281.824 60.1088H260.059C260.059 66.1206 264.93 70.9917 270.941 70.9917ZM270.941 13.0562C273.72 13.0562 275.97 10.8064 275.97 8.02809C275.97 5.24982 273.714 3 270.941 3C268.168 3 265.913 5.24982 265.913 8.02809C265.913 10.8064 268.163 13.0562 270.941 13.0562ZM319.846 70.6673C319.391 63.7661 318.774 57.6393 318.01 52.449C316.88 44.7787 315.19 37.0194 313.971 31.8605C312.516 25.7127 307.305 21.323 301 20.9305C294.81 20.5434 284.576 20.0829 270.941 20.0829C257.306 20.0829 247.067 20.5434 240.883 20.9305C234.578 21.323 229.367 25.718 227.912 31.8605C226.693 37.0142 225.003 44.7734 223.873 52.449C223.109 57.6393 222.492 63.7713 222.037 70.6673C221.78 74.5129 223.057 78.212 225.626 81.0845C228.195 83.9622 231.737 85.6469 235.593 85.8248C244.064 86.2225 257.076 86.6934 270.947 86.6934C284.817 86.6934 297.829 86.2225 306.3 85.8248C310.156 85.6417 313.698 83.9622 316.267 81.0845C318.836 78.212 320.108 74.5129 319.857 70.6673H319.846ZM311.25 76.6058C309.89 78.1283 308.022 79.0178 305.981 79.112C297.578 79.5044 284.681 79.9753 270.941 79.9753C257.202 79.9753 244.305 79.5044 235.902 79.112C233.861 79.0178 231.993 78.1283 230.633 76.6058C229.278 75.0885 228.608 73.1369 228.739 71.1068C229.184 64.3887 229.78 58.4345 230.518 53.4222C231.611 45.982 233.26 38.4268 234.452 33.3987C235.222 30.1548 237.968 27.837 241.301 27.6277C247.392 27.2457 257.479 26.7958 270.947 26.7958C284.414 26.7958 294.497 27.251 300.592 27.6277C303.92 27.837 306.672 30.1548 307.436 33.3987C308.623 38.4268 310.271 45.982 311.37 53.4222C312.108 58.4345 312.71 64.3835 313.149 71.1068C313.285 73.1369 312.61 75.0885 311.255 76.6058H311.25ZM295.313 46.6675C291.603 46.6675 288.595 49.6759 288.595 53.3855H302.036C302.036 49.6759 299.028 46.6675 295.318 46.6675H295.313Z" fill="url(#paint0_linear_5313_1197)"/>
<path d="M270.941 13.1085C273.72 13.1085 275.97 10.8587 275.97 8.08046C275.97 5.30219 273.72 3.05237 270.941 3.05237C268.163 3.05237 265.913 5.30219 265.913 8.08046C265.913 10.8587 268.163 13.1085 270.941 13.1085ZM246.612 46.7146C242.902 46.7146 239.889 49.7231 239.889 53.4327H253.33C253.33 49.7231 250.322 46.7146 246.612 46.7146ZM295.313 46.7198C291.603 46.7198 288.595 49.7283 288.595 53.4379H302.036C302.036 49.7283 299.028 46.7198 295.318 46.7198H295.313ZM270.941 71.0388C276.953 71.0388 281.824 66.1677 281.824 60.156H260.059C260.059 66.1677 264.93 71.0388 270.941 71.0388ZM319.846 70.7144C319.391 63.8132 318.774 57.6864 318.01 52.4961C316.88 44.8258 315.19 37.0665 313.971 31.9076C312.516 25.7599 307.305 21.3701 301 20.9777C294.81 20.5905 284.576 20.1301 270.941 20.1301C257.306 20.1301 247.067 20.5905 240.883 20.9777C234.578 21.3701 229.367 25.7651 227.912 31.9076C226.693 37.0613 225.003 44.8206 223.873 52.4961C223.109 57.6864 222.492 63.8185 222.037 70.7144C221.78 74.5601 223.057 78.2592 225.626 81.1316C228.195 84.0093 231.737 85.694 235.593 85.8719C244.064 86.2696 257.076 86.7405 270.947 86.7405C284.817 86.7405 297.829 86.2696 306.3 85.8719C310.156 85.6888 313.699 84.0093 316.268 81.1316C318.836 78.2592 320.108 74.5601 319.857 70.7144H319.846ZM311.25 76.6581C309.89 78.1807 308.022 79.0702 305.981 79.1643C297.578 79.5568 284.681 80.0276 270.941 80.0276C257.202 80.0276 244.305 79.5568 235.902 79.1643C233.861 79.0702 231.993 78.1807 230.633 76.6581C229.278 75.1408 228.608 73.1892 228.739 71.1592C229.184 64.4411 229.78 58.4869 230.518 53.4745C231.611 46.0344 233.26 38.4792 234.452 33.4511C235.222 30.2072 237.968 27.8893 241.301 27.6801C247.392 27.2981 257.479 26.8482 270.947 26.8482C284.414 26.8482 294.497 27.3033 300.592 27.6801C303.92 27.8893 306.672 30.2072 307.436 33.4511C308.623 38.4792 310.271 46.0344 311.37 53.4745C312.108 58.4869 312.71 64.4359 313.149 71.1592C313.285 73.1892 312.61 75.1408 311.255 76.6581H311.25Z" stroke="url(#paint1_linear_5313_1197)" stroke-width="1.5" stroke-miterlimit="10" stroke-dasharray="3.66 3.66"/>
<path d="M311.033 48.9035C310.415 47.7429 308.974 47.303 307.813 47.9208C306.653 48.5387 306.213 49.9804 306.831 51.1409L315.923 68.2199C316.541 69.3804 317.983 69.8204 319.143 69.2025C320.304 68.5846 320.744 67.1429 320.126 65.9824L311.033 48.9035Z" fill="#7C7C7C"/>
<mask id="mask0_5313_1197" style="mask-type:luminance" maskUnits="userSpaceOnUse" x="306" y="47" width="15" height="23">
<path d="M311.033 48.9035C310.415 47.7429 308.974 47.303 307.813 47.9208C306.653 48.5387 306.213 49.9804 306.831 51.1409L315.923 68.2199C316.541 69.3804 317.983 69.8204 319.143 69.2025C320.304 68.5846 320.744 67.1429 320.126 65.9824L311.033 48.9035Z" fill="white"/>
</mask>
<g mask="url(#mask0_5313_1197)">
<path opacity="0.5" d="M314.792 46.901L303.254 53.041L304.471 55.3273L316.009 49.1874L314.792 46.901Z" fill="black"/>
<path opacity="0.5" d="M317.261 51.5481L305.723 57.6881L306.94 59.9744L318.478 53.8345L317.261 51.5481Z" fill="black"/>
<path opacity="0.5" d="M319.735 56.1951L308.197 62.3351L309.414 64.6214L320.951 58.4814L319.735 56.1951Z" fill="black"/>
<path opacity="0.5" d="M322.206 60.8351L310.668 66.9751L311.885 69.2614L323.422 63.1215L322.206 60.8351Z" fill="black"/>
</g>
<path d="M318.689 48.0768C318.071 46.9162 316.629 46.4763 315.469 47.0942C314.308 47.712 313.868 49.1537 314.486 50.3143L323.578 67.3932C324.196 68.5538 325.638 68.9937 326.799 68.3758C327.959 67.758 328.399 66.3163 327.781 65.1557L318.689 48.0768Z" fill="#7C7C7C"/>
<mask id="mask1_5313_1197" style="mask-type:luminance" maskUnits="userSpaceOnUse" x="314" y="46" width="15" height="23">
<path d="M318.689 48.0768C318.071 46.9162 316.629 46.4763 315.469 47.0942C314.308 47.712 313.868 49.1537 314.486 50.3143L323.578 67.3932C324.196 68.5538 325.638 68.9937 326.799 68.3758C327.959 67.758 328.399 66.3163 327.781 65.1557L318.689 48.0768Z" fill="white"/>
</mask>
<g mask="url(#mask1_5313_1197)">
<path opacity="0.5" d="M322.444 46.078L310.906 52.218L312.122 54.5043L323.66 48.3644L322.444 46.078Z" fill="black"/>
<path opacity="0.5" d="M324.917 50.7226L313.379 56.8625L314.596 59.1489L326.134 53.0089L324.917 50.7226Z" fill="black"/>
<path opacity="0.5" d="M327.389 55.365L315.851 61.505L317.067 63.7913L328.605 57.6514L327.389 55.365Z" fill="black"/>
<path opacity="0.5" d="M329.862 60.0097L318.324 66.1497L319.541 68.436L331.079 62.296L329.862 60.0097Z" fill="black"/>
</g>
<path d="M326.522 47.9453C325.904 46.7846 324.463 46.3444 323.302 46.9621C322.141 47.5797 321.701 49.0214 322.319 50.182L331.408 67.2625C332.026 68.4232 333.468 68.8634 334.628 68.2457C335.789 67.6281 336.229 66.1865 335.612 65.0258L326.522 47.9453Z" fill="#7C7C7C"/>
<mask id="mask2_5313_1197" style="mask-type:luminance" maskUnits="userSpaceOnUse" x="322" y="46" width="14" height="23">
<path d="M326.522 47.9453C325.904 46.7846 324.463 46.3444 323.302 46.9621C322.141 47.5797 321.701 49.0214 322.319 50.182L331.408 67.2625C332.026 68.4232 333.468 68.8634 334.628 68.2457C335.789 67.6281 336.229 66.1865 335.612 65.0258L326.522 47.9453Z" fill="white"/>
</mask>
<g mask="url(#mask2_5313_1197)">
<path opacity="0.5" d="M330.283 45.9292L318.745 52.0692L319.961 54.3555L331.499 48.2156L330.283 45.9292Z" fill="black"/>
<path opacity="0.5" d="M332.754 50.5691L321.216 56.7091L322.432 58.9954L333.97 52.8555L332.754 50.5691Z" fill="black"/>
<path opacity="0.5" d="M335.228 55.2162L323.69 61.3562L324.906 63.6425L336.444 57.5026L335.228 55.2162Z" fill="black"/>
<path opacity="0.5" d="M338.4 58.7801L326.862 64.92L328.079 67.2064L339.616 61.0664L338.4 58.7801Z" fill="black"/>
</g>
<path fill-rule="evenodd" clip-rule="evenodd" d="M330.101 58.2619C332.639 57.6131 335.313 58.5287 336.919 60.6006C340.67 65.4351 347.446 74.8635 351.867 85.0714C354.42 90.968 356.314 97.0163 357.596 101.725C358.763 106.026 355.393 110.207 350.941 109.992L335.6 109.244C333.513 109.144 331.603 108.056 330.447 106.314L308.294 72.8543C305.803 69.0924 307.765 63.9963 312.134 62.8766L330.101 58.2671V58.2619Z" fill="url(#paint2_linear_5313_1197)"/>
<path fill-rule="evenodd" clip-rule="evenodd" d="M339.425 63.9283C338.504 62.6621 337.656 61.5424 336.924 60.6006C335.318 58.5287 332.644 57.6131 330.107 58.2619L312.139 62.8714C307.77 63.9911 305.808 69.0872 308.299 72.8491L312.406 79.0492L315.137 78.4998C316.629 78.2016 317.387 76.5273 316.634 75.2088L315.19 72.6973C314.452 71.4102 315.158 69.7726 316.602 69.422L339.43 63.923L339.425 63.9283Z" fill="black"/>
<path d="M301.621 59.6749C302.794 59.0505 304.259 59.4978 304.883 60.671L312.323 74.6523L310.194 75.7854C309.021 76.4097 307.556 75.9624 306.932 74.7892L300.625 62.9373C300 61.7641 300.448 60.2992 301.621 59.6749Z" fill="#7C7C7C"/>
<mask id="mask3_5313_1197" style="mask-type:luminance" maskUnits="userSpaceOnUse" x="300" y="59" width="13" height="18">
<path d="M301.621 59.6749C302.794 59.0505 304.259 59.4978 304.883 60.671L312.323 74.6523L310.194 75.7854C309.021 76.4097 307.556 75.9624 306.932 74.7892L300.625 62.9373C300 61.7641 300.448 60.2992 301.621 59.6749Z" fill="white"/>
</mask>
<g mask="url(#mask3_5313_1197)">
<path opacity="0.5" d="M308.686 58.6324L297 64.8511L298.234 67.1697L309.92 60.9511L308.686 58.6324Z" fill="black"/>
<path opacity="0.5" d="M311.191 63.3295L299.505 69.5481L300.739 71.8668L312.425 65.6481L311.191 63.3295Z" fill="black"/>
<path opacity="0.5" d="M313.688 68.0334L302.002 74.2521L303.236 76.5707L314.922 70.3521L313.688 68.0334Z" fill="black"/>
<path d="M316.195 72.7404L304.51 78.959L305.743 81.2776L317.429 75.059L316.195 72.7404Z" fill="#7C7C7C"/>
</g>
<path fill-rule="evenodd" clip-rule="evenodd" d="M298.599 71.5777C298.646 71.5777 298.682 71.5306 298.682 71.4835C298.682 71.4364 298.646 71.3946 298.599 71.3893C296.94 71.1591 295.632 69.8563 295.407 68.1977C295.407 68.1506 295.36 68.114 295.313 68.114C295.266 68.114 295.224 68.1506 295.219 68.1977C294.988 69.8563 293.686 71.1644 292.027 71.3893C291.98 71.3893 291.943 71.4364 291.943 71.4835C291.943 71.5306 291.98 71.5725 292.027 71.5777C293.686 71.8079 294.994 73.1107 295.219 74.7693C295.219 74.8164 295.266 74.853 295.313 74.853C295.36 74.853 295.402 74.8164 295.407 74.7693C295.637 73.1107 296.94 71.8027 298.599 71.5777Z" fill="white"/>
<path fill-rule="evenodd" clip-rule="evenodd" d="M228.655 19.1517C228.702 19.1517 228.739 19.1046 228.739 19.0575C228.739 19.0104 228.702 18.9685 228.655 18.9633C226.997 18.7331 225.689 17.4303 225.464 15.7717C225.464 15.7246 225.417 15.688 225.369 15.688C225.322 15.688 225.281 15.7246 225.275 15.7717C225.045 17.4303 223.742 18.7383 222.084 18.9633C222.037 18.9633 222 19.0104 222 19.0575C222 19.1046 222.037 19.1464 222.084 19.1517C223.742 19.3819 225.05 20.6847 225.275 22.3433C225.275 22.3904 225.322 22.427 225.369 22.427C225.417 22.427 225.458 22.3904 225.464 22.3433C225.694 20.6847 226.997 19.3766 228.655 19.1517Z" fill="white"/>
<path fill-rule="evenodd" clip-rule="evenodd" d="M311.951 88.0276C312.019 88.0223 312.071 87.9596 312.071 87.8968C312.071 87.834 312.019 87.7712 311.951 87.766C309.555 87.4363 307.666 85.5475 307.336 83.1512C307.331 83.0832 307.268 83.0309 307.205 83.0309C307.143 83.0309 307.08 83.0832 307.075 83.1512C306.745 85.5475 304.856 87.4363 302.46 87.766C302.392 87.7712 302.34 87.834 302.34 87.8968C302.34 87.9596 302.392 88.0223 302.46 88.0276C304.856 88.3572 306.745 90.246 307.075 92.6423C307.08 92.7103 307.143 92.7627 307.205 92.7627C307.268 92.7627 307.331 92.7103 307.336 92.6423C307.666 90.246 309.555 88.3572 311.951 88.0276Z" fill="white"/>
<path fill-rule="evenodd" clip-rule="evenodd" d="M336.793 34.7292C336.916 34.7098 337 34.613 337 34.4968C337 34.3806 336.91 34.2773 336.793 34.2643C332.601 33.6897 329.307 30.3904 328.733 26.2066C328.713 26.0839 328.616 26 328.5 26C328.384 26 328.28 26.0839 328.267 26.2066C327.693 30.3969 324.392 33.6897 320.207 34.2708C320.084 34.2902 320 34.387 320 34.5032C320 34.6194 320.09 34.7228 320.207 34.7357C324.399 35.3103 327.693 38.6096 328.267 42.7934C328.287 42.9161 328.384 43 328.5 43C328.616 43 328.72 42.9161 328.733 42.7934C329.307 38.6031 332.608 35.3103 336.793 34.7292Z" fill="white"/>
</g>
<defs>
<linearGradient id="paint0_linear_5313_1197" x1="222" y1="44.8467" x2="319.878" y2="44.8467" gradientUnits="userSpaceOnUse">
<stop stop-color="white"/>
<stop offset="0.04" stop-color="white" stop-opacity="0.93"/>
<stop offset="0.18" stop-color="white" stop-opacity="0.68"/>
<stop offset="0.31" stop-color="white" stop-opacity="0.47"/>
<stop offset="0.44" stop-color="white" stop-opacity="0.3"/>
<stop offset="0.57" stop-color="white" stop-opacity="0.17"/>
<stop offset="0.69" stop-color="white" stop-opacity="0.08"/>
<stop offset="0.8" stop-color="white" stop-opacity="0.02"/>
<stop offset="0.89" stop-color="white" stop-opacity="0"/>
</linearGradient>
<linearGradient id="paint1_linear_5313_1197" x1="222" y1="44.899" x2="324" y2="45.0001" gradientUnits="userSpaceOnUse">
<stop offset="0.229468" stop-color="white" stop-opacity="0"/>
<stop offset="1" stop-color="white"/>
</linearGradient>
<linearGradient id="paint2_linear_5313_1197" x1="348.667" y1="112.402" x2="319.152" y2="58.8054" gradientUnits="userSpaceOnUse">
<stop stop-color="#F6EAFF"/>
<stop offset="0.72" stop-color="#E5C4FF"/>
<stop offset="1" stop-color="#DEB4FF"/>
</linearGradient>
<clipPath id="clip0_5313_1197">
<rect width="374" height="96" fill="white"/>
</clipPath>
</defs>
</svg>
