<svg width="374" height="96" viewBox="0 0 374 96" fill="none" xmlns="http://www.w3.org/2000/svg">
<g clip-path="url(#clip0_5313_268)">
<path fill-rule="evenodd" clip-rule="evenodd" d="M342.558 102.615C333.668 98.1259 330.084 87.2664 334.573 78.3769C339.062 69.4875 349.921 65.9026 358.811 70.3917C367.708 74.8809 371.285 85.7404 366.796 94.6299C362.307 103.519 351.447 107.104 342.558 102.615Z" fill="black"/>
<path fill-rule="evenodd" clip-rule="evenodd" d="M362.048 80.7426C365.44 77.618 370.518 77.1739 374.394 79.6849C386.884 87.7751 423.088 105.554 416.12 129.655C414.933 133.765 393.497 127.572 351.819 111.069C344.237 108.872 341.968 99.2321 347.774 93.8871L362.057 80.7426H362.048Z" fill="url(#paint0_linear_5313_268)"/>
<path d="M302.305 36.8247C303.839 38.1531 306.159 37.9868 307.487 36.4533C308.816 34.9197 308.649 32.5996 307.116 31.2712L284.548 11.7222C283.014 10.3938 280.694 10.5601 279.366 12.0937C278.037 13.6272 278.204 15.9473 279.737 17.2757L302.305 36.8247Z" fill="#7C7C7C"/>
<mask id="mask0_5313_268" style="mask-type:luminance" maskUnits="userSpaceOnUse" x="278" y="10" width="31" height="28">
<path d="M302.305 36.8247C303.839 38.1531 306.159 37.9868 307.487 36.4533C308.816 34.9197 308.649 32.5996 307.116 31.2712L284.548 11.7222C283.014 10.3938 280.694 10.5601 279.366 12.0937C278.037 13.6272 278.204 15.9473 279.737 17.2757L302.305 36.8247Z" fill="white"/>
</mask>
<g mask="url(#mask0_5313_268)">
<path opacity="0.5" d="M278.441 24.8528L291.646 9.60815L288.625 6.9914L275.42 22.2361L278.441 24.8528Z" fill="black"/>
<path opacity="0.5" d="M284.577 30.1707L297.783 14.926L294.762 12.3093L281.557 27.5539L284.577 30.1707Z" fill="black"/>
<path opacity="0.5" d="M290.708 35.475L303.913 20.2303L300.892 17.6136L287.687 32.8583L290.708 35.475Z" fill="black"/>
<path opacity="0.5" d="M296.845 40.7928L310.05 25.5481L307.029 22.9313L293.824 38.176L296.845 40.7928Z" fill="black"/>
</g>
<path d="M298.437 48.0592C299.971 49.3876 302.291 49.2213 303.619 47.6878C304.947 46.1542 304.781 43.8341 303.248 42.5057L280.68 22.9567C279.146 21.6283 276.826 21.7946 275.498 23.3282C274.169 24.8617 274.335 27.1818 275.869 28.5102L298.437 48.0592Z" fill="#7C7C7C"/>
<mask id="mask1_5313_268" style="mask-type:luminance" maskUnits="userSpaceOnUse" x="274" y="22" width="31" height="27">
<path d="M298.437 48.0592C299.971 49.3876 302.291 49.2213 303.619 47.6878C304.947 46.1542 304.781 43.8341 303.248 42.5057L280.68 22.9567C279.146 21.6283 276.826 21.7946 275.498 23.3282C274.169 24.8617 274.335 27.1818 275.869 28.5102L298.437 48.0592Z" fill="white"/>
</mask>
<g mask="url(#mask1_5313_268)">
<path opacity="0.5" d="M274.564 36.0793L287.77 20.8346L284.749 18.2178L271.544 33.4625L274.564 36.0793Z" fill="black"/>
<path opacity="0.5" d="M280.701 41.3971L293.906 26.1525L290.886 23.5357L277.68 38.7804L280.701 41.3971Z" fill="black"/>
<path opacity="0.5" d="M286.832 46.7095L300.037 31.4648L297.016 28.8481L283.811 44.0928L286.832 46.7095Z" fill="black"/>
<path opacity="0.5" d="M292.968 52.0273L306.173 36.7826L303.153 34.1658L289.947 49.4105L292.968 52.0273Z" fill="black"/>
</g>
<path d="M295.514 59.7858C297.048 61.1142 299.368 60.9479 300.696 59.4143C302.025 57.8808 301.858 55.5607 300.325 54.2323L277.757 34.6833C276.223 33.3549 273.903 33.5212 272.575 35.0547C271.246 36.5883 271.413 38.9084 272.946 40.2368L295.514 59.7858Z" fill="#7C7C7C"/>
<mask id="mask2_5313_268" style="mask-type:luminance" maskUnits="userSpaceOnUse" x="271" y="33" width="31" height="28">
<path d="M295.514 59.7858C297.048 61.1142 299.368 60.9479 300.696 59.4143C302.025 57.8808 301.858 55.5607 300.325 54.2323L277.757 34.6833C276.223 33.3549 273.903 33.5212 272.575 35.0547C271.246 36.5883 271.413 38.9084 272.946 40.2368L295.514 59.7858Z" fill="white"/>
</mask>
<g mask="url(#mask2_5313_268)">
<path opacity="0.5" d="M271.642 47.8139L284.847 32.5692L281.826 29.9525L268.621 45.1971L271.642 47.8139Z" fill="black"/>
<path opacity="0.5" d="M277.778 53.1318L290.984 37.8871L287.963 35.2703L274.757 50.515L277.778 53.1318Z" fill="black"/>
<path opacity="0.5" d="M283.915 58.4414L297.12 43.1968L294.099 40.58L280.894 55.8247L283.915 58.4414Z" fill="black"/>
<path opacity="0.5" d="M288.177 64.4482L301.383 49.2035L298.362 46.5867L285.157 61.8314L288.177 64.4482Z" fill="black"/>
</g>
<path fill-rule="evenodd" clip-rule="evenodd" d="M287.251 49.1813C285.402 52.7742 285.862 57.118 288.422 60.2426C294.405 67.5415 306.265 80.9847 320.096 91.1418C328.089 97.0116 336.543 101.937 343.188 105.481C349.251 108.719 356.703 105.077 357.906 98.3115L362.057 74.9777C362.622 71.8046 361.637 68.5508 359.416 66.2174L316.689 21.3906C311.885 16.3524 303.544 17.5474 300.355 23.7401L287.243 49.1813H287.251Z" fill="url(#paint1_linear_5313_268)"/>
<path fill-rule="evenodd" clip-rule="evenodd" d="M292.572 65.1436C290.989 63.3188 289.593 61.6637 288.43 60.2346C285.87 57.1099 285.41 52.7661 287.259 49.1732L300.371 23.7321C303.561 17.5393 311.901 16.3444 316.705 21.3826L324.626 29.6907L322.865 33.6146C321.905 35.7543 319.127 36.3275 317.399 34.7289L314.113 31.693C312.426 30.1348 309.721 30.6353 308.704 32.6861L292.588 65.1355L292.572 65.1436Z" fill="black"/>
<path d="M320.435 25.2522L317.998 28.0656L299.525 12.0637C297.975 10.721 297.806 8.36345 299.149 6.81335C300.491 5.26325 302.849 5.09427 304.399 6.437L320.059 20.0018C321.609 21.3446 321.778 23.7021 320.435 25.2522Z" fill="#7C7C7C"/>
<mask id="mask3_5313_268" style="mask-type:luminance" maskUnits="userSpaceOnUse" x="298" y="5" width="24" height="24">
<path d="M320.435 25.2522L317.998 28.0656L299.525 12.0637C297.975 10.721 297.806 8.36345 299.149 6.81335C300.491 5.26325 302.849 5.09427 304.399 6.437L320.059 20.0018C321.609 21.3446 321.778 23.7021 320.435 25.2522Z" fill="white"/>
</mask>
<g mask="url(#mask3_5313_268)">
<path opacity="0.5" d="M298.213 19.7296L311.588 4.28967L308.524 1.63592L295.15 17.0759L298.213 19.7296Z" fill="black"/>
<path opacity="0.5" d="M304.426 25.1145L317.8 9.67456L314.737 7.0208L301.362 22.4608L304.426 25.1145Z" fill="black"/>
<path opacity="0.5" d="M310.64 30.4942L324.015 15.0542L320.951 12.4004L307.577 27.8404L310.64 30.4942Z" fill="black"/>
<path d="M316.855 35.8819L330.229 20.4419L327.166 17.7881L313.791 33.2281L316.855 35.8819Z" fill="#7C7C7C"/>
</g>
<path fill-rule="evenodd" clip-rule="evenodd" d="M284.853 71.1265L277.207 83.3828L286.775 89.3576L290.077 84.0691L295.002 79.7253C295.462 79.3135 295.406 78.5788 294.881 78.2478L294.033 77.723L294.566 76.8671L296.262 74.1543L296.899 73.1369C297.634 71.9581 298.135 70.4483 298.296 68.8254C298.659 65.0872 296.52 61.5427 293.153 59.8795C292.636 59.6211 292.087 59.4192 291.514 59.3466C289.181 59.0721 286.339 59.3062 284.885 62.4631C283.876 64.6673 283.908 67.0411 284.869 71.1265H284.853Z" fill="url(#paint2_linear_5313_268)"/>
<path d="M277.804 80.444L289.778 87.9124C291.32 88.8732 291.789 90.8998 290.828 92.4419L282.923 105.11C279.896 109.954 273.517 111.432 268.673 108.412C263.828 105.385 262.351 99.0061 265.37 94.1617L273.275 81.4936C274.236 79.9514 276.262 79.4832 277.804 80.444Z" fill="url(#paint3_linear_5313_268)"/>
<mask id="mask4_5313_268" style="mask-type:luminance" maskUnits="userSpaceOnUse" x="263" y="79" width="29" height="31">
<path d="M277.804 80.444L289.778 87.9124C291.32 88.8732 291.789 90.8998 290.828 92.4419L282.923 105.11C279.896 109.954 273.517 111.432 268.673 108.412C263.828 105.385 262.351 99.0061 265.37 94.1617L273.275 81.4936C274.236 79.9514 276.262 79.4832 277.804 80.444Z" fill="white"/>
</mask>
<g mask="url(#mask4_5313_268)">
<path d="M261.46 81.2505L293.259 101.089L299.917 90.4169L268.119 70.578L261.46 81.2505Z" fill="black"/>
</g>
<path fill-rule="evenodd" clip-rule="evenodd" d="M308.77 77.5818C308.843 77.5818 308.899 77.5091 308.899 77.4365C308.899 77.3638 308.843 77.2992 308.77 77.2911C306.211 76.9359 304.192 74.9255 303.845 72.366C303.845 72.2933 303.772 72.2368 303.7 72.2368C303.627 72.2368 303.562 72.2933 303.554 72.366C303.199 74.9255 301.189 76.944 298.629 77.2911C298.557 77.2911 298.5 77.3638 298.5 77.4365C298.5 77.5091 298.557 77.5737 298.629 77.5818C301.189 77.9371 303.207 79.9475 303.554 82.5069C303.554 82.5796 303.627 82.6361 303.7 82.6361C303.772 82.6361 303.837 82.5796 303.845 82.5069C304.2 79.9475 306.211 77.929 308.77 77.5818Z" fill="white"/>
<path fill-rule="evenodd" clip-rule="evenodd" d="M273.803 56.2161C273.918 56.1997 274 56.1067 274 55.9973C274 55.8879 273.918 55.7949 273.803 55.7785C269.863 55.2369 266.761 52.1354 266.219 48.1969C266.202 48.0821 266.109 48 266 48C265.891 48 265.798 48.0821 265.781 48.1969C265.239 52.1354 262.137 55.2369 258.197 55.7839C258.082 55.8003 258 55.8933 258 56.0027C258 56.1121 258.082 56.2051 258.197 56.2215C262.137 56.7631 265.239 59.8646 265.781 63.8031C265.798 63.9179 265.891 64 266 64C266.109 64 266.202 63.9179 266.219 63.8031C266.761 59.8646 269.863 56.7631 273.803 56.2161Z" fill="white"/>
<path d="M283.19 61.0581L274.284 62.463" stroke="url(#paint4_linear_5313_268)" stroke-width="2.4222" stroke-miterlimit="10" stroke-linecap="round"/>
<path d="M283.19 55.5759L276.714 49.3024" stroke="url(#paint5_linear_5313_268)" stroke-width="2.4222" stroke-miterlimit="10" stroke-linecap="round"/>
<path d="M298 81L299.534 89.8895" stroke="url(#paint6_linear_5313_268)" stroke-width="2.4222" stroke-miterlimit="10" stroke-linecap="round"/>
</g>
<defs>
<linearGradient id="paint0_linear_5313_268" x1="417.779" y1="105.722" x2="309.066" y2="100.69" gradientUnits="userSpaceOnUse">
<stop stop-color="#F6EAFF"/>
<stop offset="1" stop-color="#DEB4FF"/>
</linearGradient>
<linearGradient id="paint1_linear_5313_268" x1="362.347" y1="95.7472" x2="291.856" y2="32.9267" gradientUnits="userSpaceOnUse">
<stop stop-color="#F6EAFF"/>
<stop offset="0.72" stop-color="#E5C4FF"/>
<stop offset="1" stop-color="#DEB4FF"/>
</linearGradient>
<linearGradient id="paint2_linear_5313_268" x1="299.468" y1="67.985" x2="275.73" y2="80.6206" gradientUnits="userSpaceOnUse">
<stop offset="0.27" stop-color="#FFA933"/>
<stop offset="0.48" stop-color="#FF9F2E"/>
<stop offset="0.83" stop-color="#FF8623"/>
<stop offset="1" stop-color="#FF781D"/>
</linearGradient>
<linearGradient id="paint3_linear_5313_268" x1="283.787" y1="84.1814" x2="268.67" y2="108.41" gradientUnits="userSpaceOnUse">
<stop offset="0.28" stop-color="#88E3FF"/>
<stop offset="0.3" stop-color="#90E5FF"/>
<stop offset="0.38" stop-color="#AAEAFF"/>
<stop offset="0.45" stop-color="#BEEFFF"/>
<stop offset="0.54" stop-color="#CCF2FF"/>
<stop offset="0.66" stop-color="#D4F4FF"/>
<stop offset="0.85" stop-color="#D7F5FF"/>
</linearGradient>
<linearGradient id="paint4_linear_5313_268" x1="273.073" y1="61.7605" x2="284.401" y2="61.7605" gradientUnits="userSpaceOnUse">
<stop stop-color="white"/>
<stop offset="0.03" stop-color="white" stop-opacity="0.94"/>
<stop offset="0.16" stop-color="white" stop-opacity="0.69"/>
<stop offset="0.28" stop-color="white" stop-opacity="0.48"/>
<stop offset="0.41" stop-color="white" stop-opacity="0.31"/>
<stop offset="0.52" stop-color="white" stop-opacity="0.17"/>
<stop offset="0.63" stop-color="white" stop-opacity="0.08"/>
<stop offset="0.73" stop-color="white" stop-opacity="0.02"/>
<stop offset="0.82" stop-color="white" stop-opacity="0"/>
</linearGradient>
<linearGradient id="paint5_linear_5313_268" x1="276.544" y1="47.9116" x2="283.365" y2="56.966" gradientUnits="userSpaceOnUse">
<stop stop-color="white"/>
<stop offset="0.03" stop-color="white" stop-opacity="0.94"/>
<stop offset="0.16" stop-color="white" stop-opacity="0.69"/>
<stop offset="0.28" stop-color="white" stop-opacity="0.48"/>
<stop offset="0.41" stop-color="white" stop-opacity="0.31"/>
<stop offset="0.52" stop-color="white" stop-opacity="0.17"/>
<stop offset="0.63" stop-color="white" stop-opacity="0.08"/>
<stop offset="0.73" stop-color="white" stop-opacity="0.02"/>
<stop offset="0.82" stop-color="white" stop-opacity="0"/>
</linearGradient>
<linearGradient id="paint6_linear_5313_268" x1="298.841" y1="91.1051" x2="298.679" y2="79.7784" gradientUnits="userSpaceOnUse">
<stop stop-color="white"/>
<stop offset="0.03" stop-color="white" stop-opacity="0.94"/>
<stop offset="0.16" stop-color="white" stop-opacity="0.69"/>
<stop offset="0.28" stop-color="white" stop-opacity="0.48"/>
<stop offset="0.41" stop-color="white" stop-opacity="0.31"/>
<stop offset="0.52" stop-color="white" stop-opacity="0.17"/>
<stop offset="0.63" stop-color="white" stop-opacity="0.08"/>
<stop offset="0.73" stop-color="white" stop-opacity="0.02"/>
<stop offset="0.82" stop-color="white" stop-opacity="0"/>
</linearGradient>
<clipPath id="clip0_5313_268">
<rect width="374" height="96" fill="white"/>
</clipPath>
</defs>
</svg>
