<svg width="374" height="96" viewBox="0 0 374 96" fill="none" xmlns="http://www.w3.org/2000/svg">
<g clip-path="url(#clip0_5313_1740)">
<path d="M281.052 16.7292C281.052 15.8477 280.338 15.1332 279.456 15.1332C278.575 15.1332 277.86 15.8477 277.86 16.7292V52.0131C277.86 52.8946 278.575 53.6091 279.456 53.6091C280.338 53.6091 281.052 52.8946 281.052 52.0131V16.7292Z" fill="#0FC382"/>
<path d="M281.052 57.2948C281.052 56.4134 280.338 55.6989 279.456 55.6989C278.575 55.6989 277.86 56.4134 277.86 57.2948V79.0761C277.86 79.9575 278.575 80.672 279.456 80.672C280.338 80.672 281.052 79.9575 281.052 79.0761V57.2948Z" fill="#0FC382"/>
<path d="M295.003 79.0875C295.003 79.9689 295.717 80.6835 296.599 80.6835C297.48 80.6835 298.195 79.9689 298.195 79.0875V54.1717C298.195 53.2903 297.48 52.5757 296.599 52.5757C295.717 52.5757 295.003 53.2903 295.003 54.1717V79.0875Z" fill="#0FC382"/>
<path d="M295.003 38.5103C295.003 39.3918 295.717 40.1063 296.599 40.1063C297.48 40.1063 298.195 39.3918 298.195 38.5103V16.7291C298.195 15.8477 297.48 15.1331 296.599 15.1331C295.717 15.1331 295.003 15.8477 295.003 16.7291V38.5103Z" fill="#0FC382"/>
<path d="M300.675 87.366C300.675 88.2475 301.389 88.962 302.271 88.962C303.152 88.962 303.867 88.2475 303.867 87.366V75.0574C303.867 74.176 303.152 73.4614 302.271 73.4614C301.389 73.4614 300.675 74.176 300.675 75.0574V87.366Z" fill="#0FC382"/>
<path d="M300.675 69.9824C300.675 70.8638 301.389 71.5784 302.271 71.5784C303.152 71.5784 303.867 70.8638 303.867 69.9824V65.9637C303.867 65.0823 303.152 64.3677 302.271 64.3677C301.389 64.3677 300.675 65.0823 300.675 65.9637V69.9824Z" fill="#0FC382"/>
<path d="M300.675 28.7277C300.675 29.6092 301.389 30.3237 302.271 30.3237C303.152 30.3237 303.867 29.6092 303.867 28.7277V12.1134C303.867 11.232 303.152 10.5174 302.271 10.5174C301.389 10.5174 300.675 11.232 300.675 12.1134V28.7277Z" fill="#0FC382"/>
<g filter="url(#filter0_d_5313_1740)">
<path d="M286.885 37.2359C286.885 36.3544 286.17 35.6399 285.289 35.6399C284.408 35.6399 283.693 36.3544 283.693 37.2359V52.0131C283.693 52.8946 284.408 53.6091 285.289 53.6091C286.17 53.6091 286.885 52.8946 286.885 52.0131V37.2359Z" fill="url(#paint0_linear_5313_1740)"/>
</g>
<path d="M286.885 57.2948C286.885 56.4134 286.17 55.6989 285.289 55.6989C284.408 55.6989 283.693 56.4134 283.693 57.2948V62.7602C283.693 63.6417 284.408 64.3562 285.289 64.3562C286.17 64.3562 286.885 63.6417 286.885 62.7602V57.2948Z" fill="#0FC382"/>
<path d="M292.546 30.4386C292.546 29.5572 291.831 28.8427 290.95 28.8427C290.068 28.8427 289.354 29.5572 289.354 30.4386V54.5162C289.354 55.3977 290.068 56.1122 290.95 56.1122C291.831 56.1122 292.546 55.3977 292.546 54.5162V30.4386Z" fill="#0FC382"/>
<path d="M292.546 63.0358C292.546 62.1544 291.831 61.4398 290.95 61.4398C290.068 61.4398 289.354 62.1544 289.354 63.0358V68.5012C289.354 69.3826 290.068 70.0972 290.95 70.0972C291.831 70.0972 292.546 69.3826 292.546 68.5012V63.0358Z" fill="#0FC382"/>
<g filter="url(#filter1_d_5313_1740)">
<path d="M292.546 24.7091C292.546 23.8277 291.831 23.1132 290.95 23.1132C290.068 23.1132 289.354 23.8277 289.354 24.7091V25.1684C289.354 26.0499 290.068 26.7644 290.95 26.7644C291.831 26.7644 292.546 26.0499 292.546 25.1684V24.7091Z" fill="url(#paint1_linear_5313_1740)"/>
</g>
<path d="M303.855 60.4179C303.855 59.5364 303.141 58.8219 302.259 58.8219C301.378 58.8219 300.663 59.5364 300.663 60.4179V60.8772C300.663 61.7586 301.378 62.4732 302.259 62.4732C303.141 62.4732 303.855 61.7586 303.855 60.8772V60.4179Z" fill="#0FC382"/>
<path d="M303.855 33.642C303.855 32.7606 303.141 32.046 302.259 32.046C301.378 32.046 300.663 32.7606 300.663 33.642V55.1591C300.663 56.0406 301.378 56.7551 302.259 56.7551C303.141 56.7551 303.855 56.0406 303.855 55.1591V33.642Z" fill="#0FC382"/>
<path d="M326.67 12.102C326.67 11.2205 325.955 10.506 325.074 10.506C324.192 10.506 323.478 11.2205 323.478 12.102V24.4106C323.478 25.292 324.192 26.0066 325.074 26.0066C325.955 26.0066 326.67 25.292 326.67 24.4106V12.102Z" fill="#0FC382"/>
<path d="M326.67 29.4856C326.67 28.6042 325.955 27.8896 325.074 27.8896C324.192 27.8896 323.478 28.6042 323.478 29.4856V33.5043C323.478 34.3858 324.192 35.1003 325.074 35.1003C325.955 35.1003 326.67 34.3858 326.67 33.5043V29.4856Z" fill="#0FC382"/>
<path d="M326.67 60.9576C326.67 60.0761 325.955 59.3616 325.074 59.3616C324.192 59.3616 323.478 60.0761 323.478 60.9576V87.366C323.478 88.2474 324.192 88.962 325.074 88.962C325.955 88.962 326.67 88.2474 326.67 87.366V60.9576Z" fill="#0FC382"/>
<path d="M323.478 39.05C323.478 39.9314 324.192 40.646 325.074 40.646C325.955 40.646 326.67 39.9314 326.67 39.05V38.5907C326.67 37.7093 325.955 36.9947 325.074 36.9947C324.192 36.9947 323.478 37.7093 323.478 38.5907V39.05Z" fill="#0FC382"/>
<path d="M323.478 55.6759C323.478 56.5573 324.192 57.2719 325.074 57.2719C325.955 57.2719 326.67 56.5573 326.67 55.6759V44.2973C326.67 43.4158 325.955 42.7013 325.074 42.7013C324.192 42.7013 323.478 43.4158 323.478 44.2973V55.6759Z" fill="#0FC382"/>
<path d="M292.546 18.9682C292.546 18.0867 291.831 17.3722 290.95 17.3722C290.068 17.3722 289.354 18.0867 289.354 18.9682V19.4275C289.354 20.3089 290.068 21.0234 290.95 21.0234C291.831 21.0234 292.546 20.3089 292.546 19.4275V18.9682Z" fill="#0FC382"/>
<path d="M286.885 9.4611C286.885 8.57966 286.17 7.86511 285.289 7.86511C284.408 7.86511 283.693 8.57966 283.693 9.4611V19.4159C283.693 20.2974 284.408 21.0119 285.289 21.0119C286.17 21.0119 286.885 20.2974 286.885 19.4159V9.4611Z" fill="#0FC382"/>
<g filter="url(#filter2_d_5313_1740)">
<path d="M286.885 67.7319C286.885 66.8504 286.17 66.1359 285.289 66.1359C284.408 66.1359 283.693 66.8504 283.693 67.7319V83.221C283.693 84.1024 284.408 84.817 285.289 84.817C286.17 84.817 286.885 84.1024 286.885 83.221V67.7319Z" fill="url(#paint2_linear_5313_1740)"/>
</g>
<path d="M309.516 39.5093C309.516 38.6279 308.801 37.9133 307.92 37.9133C307.038 37.9133 306.324 38.6279 306.324 39.5093V52.0131C306.324 52.8946 307.038 53.6091 307.92 53.6091C308.801 53.6091 309.516 52.8946 309.516 52.0131V39.5093Z" fill="#0FC382"/>
<path d="M309.516 13.7094C309.516 12.828 308.801 12.1134 307.92 12.1134C307.038 12.1134 306.324 12.828 306.324 13.7094V29.233C306.324 30.1144 307.038 30.8289 307.92 30.8289C308.801 30.8289 309.516 30.1144 309.516 29.233V13.7094Z" fill="#0FC382"/>
<g filter="url(#filter3_d_5313_1740)">
<path d="M309.516 57.2948C309.516 56.4134 308.801 55.6989 307.92 55.6989C307.038 55.6989 306.324 56.4134 306.324 57.2948V79.0761C306.324 79.9575 307.038 80.672 307.92 80.672C308.801 80.672 309.516 79.9575 309.516 79.0761V57.2948Z" fill="url(#paint3_linear_5313_1740)"/>
</g>
<path d="M315.349 27.9585C315.349 27.0771 314.634 26.3625 313.753 26.3625C312.871 26.3625 312.157 27.0771 312.157 27.9585V52.0132C312.157 52.8946 312.871 53.6092 313.753 53.6092C314.634 53.6092 315.349 52.8946 315.349 52.0132V27.9585Z" fill="#0FC382"/>
<path d="M315.349 57.2948C315.349 56.4134 314.634 55.6989 313.753 55.6989C312.871 55.6989 312.157 56.4134 312.157 57.2948V62.7602C312.157 63.6417 312.871 64.3562 313.753 64.3562C314.634 64.3562 315.349 63.6417 315.349 62.7602V57.2948Z" fill="#0FC382"/>
<path d="M321.009 42.242C321.009 41.3605 320.295 40.646 319.413 40.646C318.532 40.646 317.817 41.3605 317.817 42.242V48.4078C317.817 49.2892 318.532 50.0038 319.413 50.0038C320.295 50.0038 321.009 49.2892 321.009 48.4078V42.242Z" fill="#0FC382"/>
<path d="M321.009 63.0358C321.009 62.1544 320.295 61.4398 319.413 61.4398C318.532 61.4398 317.817 62.1544 317.817 63.0358V68.5012C317.817 69.3826 318.532 70.0972 319.413 70.0972C320.295 70.0972 321.009 69.3826 321.009 68.5012V63.0358Z" fill="#0FC382"/>
<g filter="url(#filter4_d_5313_1740)">
<path d="M321.009 24.7091C321.009 23.8277 320.295 23.1132 319.413 23.1132C318.532 23.1132 317.817 23.8277 317.817 24.7091V37.2359C317.817 38.1174 318.532 38.8319 319.413 38.8319C320.295 38.8319 321.009 38.1174 321.009 37.2359V24.7091Z" fill="url(#paint4_linear_5313_1740)"/>
</g>
<path d="M321.009 18.9682C321.009 18.0867 320.295 17.3722 319.413 17.3722C318.532 17.3722 317.817 18.0867 317.817 18.9682V19.4275C317.817 20.3089 318.532 21.0234 319.413 21.0234C320.295 21.0234 321.009 20.3089 321.009 19.4275V18.9682Z" fill="#0FC382"/>
<g filter="url(#filter5_d_5313_1740)">
<path d="M309.608 34.1473C309.608 33.2658 308.893 32.5513 308.012 32.5513C307.13 32.5513 306.416 33.2658 306.416 34.1473V34.6065C306.416 35.488 307.13 36.2025 308.012 36.2025C308.893 36.2025 309.608 35.488 309.608 34.6065V34.1473Z" fill="url(#paint5_linear_5313_1740)"/>
</g>
<path d="M334.788 79.076C334.788 79.9574 335.502 80.672 336.384 80.672C337.265 80.672 337.979 79.9574 337.979 79.076V43.792C337.979 42.9106 337.265 42.1961 336.384 42.1961C335.502 42.1961 334.788 42.9106 334.788 43.792V79.076Z" fill="#0FC382"/>
<path d="M334.788 38.5103C334.788 39.3918 335.502 40.1063 336.384 40.1063C337.265 40.1063 337.979 39.3918 337.979 38.5103V16.7291C337.979 15.8477 337.265 15.1331 336.384 15.1331C335.502 15.1331 334.788 15.8477 334.788 16.7291V38.5103Z" fill="#0FC382"/>
<g filter="url(#filter6_d_5313_1740)">
<path d="M340.448 87.366C340.448 88.2475 341.163 88.962 342.044 88.962C342.926 88.962 343.64 88.2475 343.64 87.366V75.0574C343.64 74.176 342.926 73.4614 342.044 73.4614C341.163 73.4614 340.448 74.176 340.448 75.0574V87.366Z" fill="url(#paint6_linear_5313_1740)"/>
</g>
<path d="M340.448 69.9824C340.448 70.8638 341.163 71.5784 342.044 71.5784C342.926 71.5784 343.64 70.8638 343.64 69.9824V65.9637C343.64 65.0823 342.926 64.3677 342.044 64.3677C341.163 64.3677 340.448 65.0823 340.448 65.9637V69.9824Z" fill="#0FC382"/>
<path d="M340.448 28.7277C340.448 29.6092 341.163 30.3237 342.044 30.3237C342.926 30.3237 343.64 29.6092 343.64 28.7277V12.1134C343.64 11.232 342.926 10.5174 342.044 10.5174C341.163 10.5174 340.448 11.232 340.448 12.1134V28.7277Z" fill="#0FC382"/>
<g filter="url(#filter7_d_5313_1740)">
<path d="M332.319 30.4386C332.319 29.5572 331.604 28.8427 330.723 28.8427C329.841 28.8427 329.127 29.5572 329.127 30.4386V46.5937C329.127 47.4752 329.841 48.1897 330.723 48.1897C331.604 48.1897 332.319 47.4752 332.319 46.5937V30.4386Z" fill="url(#paint7_linear_5313_1740)"/>
</g>
<path d="M332.319 63.0358C332.319 62.1544 331.604 61.4398 330.723 61.4398C329.841 61.4398 329.127 62.1544 329.127 63.0358V68.5012C329.127 69.3826 329.841 70.0972 330.723 70.0972C331.604 70.0972 332.319 69.3826 332.319 68.5012V63.0358Z" fill="#0FC382"/>
<path d="M332.319 24.7091C332.319 23.8277 331.604 23.1132 330.723 23.1132C329.841 23.1132 329.127 23.8277 329.127 24.7091V25.1684C329.127 26.0499 329.841 26.7644 330.723 26.7644C331.604 26.7644 332.319 26.0499 332.319 25.1684V24.7091Z" fill="#0FC382"/>
<path d="M343.64 60.4179C343.64 59.5364 342.926 58.8219 342.044 58.8219C341.163 58.8219 340.448 59.5364 340.448 60.4179V60.8772C340.448 61.7586 341.163 62.4732 342.044 62.4732C342.926 62.4732 343.64 61.7586 343.64 60.8772V60.4179Z" fill="#0FC382"/>
<path d="M332.319 73.9322C332.319 73.0507 331.604 72.3362 330.723 72.3362C329.841 72.3362 329.127 73.0507 329.127 73.9322V74.3914C329.127 75.2729 329.841 75.9874 330.723 75.9874C331.604 75.9874 332.319 75.2729 332.319 74.3914V73.9322Z" fill="#0FC382"/>
<path d="M332.319 82.8077C332.319 81.9262 331.604 81.2117 330.723 81.2117C329.841 81.2117 329.127 81.9262 329.127 82.8077V83.2669C329.127 84.1484 329.841 84.8629 330.723 84.8629C331.604 84.8629 332.319 84.1484 332.319 83.2669V82.8077Z" fill="#0FC382"/>
<g filter="url(#filter8_d_5313_1740)">
<path d="M332.319 5.24723C332.319 4.36579 331.604 3.65125 330.723 3.65125C329.841 3.65125 329.127 4.36579 329.127 5.24723V5.70651C329.127 6.58795 329.841 7.3025 330.723 7.3025C331.604 7.3025 332.319 6.58795 332.319 5.70651V5.24723Z" fill="url(#paint8_linear_5313_1740)"/>
</g>
<path d="M286.885 28.613C286.885 27.7315 286.17 27.017 285.289 27.017C284.408 27.017 283.693 27.7315 283.693 28.613V29.0722C283.693 29.9537 284.408 30.6682 285.289 30.6682C286.17 30.6682 286.885 29.9537 286.885 29.0722V28.613Z" fill="#0FC382"/>
<path d="M332.319 54.5851C332.319 53.7037 331.604 52.9891 330.723 52.9891C329.841 52.9891 329.127 53.7037 329.127 54.5851V55.0444C329.127 55.9258 329.841 56.6404 330.723 56.6404C331.604 56.6404 332.319 55.9258 332.319 55.0444V54.5851Z" fill="#0FC382"/>
<path d="M298.206 92.3836C298.206 91.5021 297.492 90.7876 296.61 90.7876C295.729 90.7876 295.014 91.5021 295.014 92.3836V92.8429C295.014 93.7243 295.729 94.4389 296.61 94.4389C297.492 94.4389 298.206 93.7243 298.206 92.8429V92.3836Z" fill="#0FC382"/>
<path d="M298.206 85.4944C298.206 84.613 297.492 83.8984 296.61 83.8984C295.729 83.8984 295.014 84.613 295.014 85.4944V85.9537C295.014 86.8351 295.729 87.5497 296.61 87.5497C297.492 87.5497 298.206 86.8351 298.206 85.9537V85.4944Z" fill="#0FC382"/>
<path d="M321.009 80.4424C321.009 79.561 320.295 78.8464 319.413 78.8464C318.532 78.8464 317.817 79.561 317.817 80.4424V80.9017C317.817 81.7831 318.532 82.4977 319.413 82.4977C320.295 82.4977 321.009 81.7831 321.009 80.9017V80.4424Z" fill="#0FC382"/>
<path d="M298.206 5.24723C298.206 4.36579 297.492 3.65125 296.61 3.65125C295.729 3.65125 295.014 4.36579 295.014 5.24723V5.70651C295.014 6.58795 295.729 7.3025 296.61 7.3025C297.492 7.3025 298.206 6.58795 298.206 5.70651V5.24723Z" fill="#0FC382"/>
<g filter="url(#filter9_d_5313_1740)">
<path d="M321.009 90.558C321.009 89.6766 320.295 88.962 319.413 88.962C318.532 88.962 317.817 89.6766 317.817 90.558V91.0173C317.817 91.8987 318.532 92.6133 319.413 92.6133C320.295 92.6133 321.009 91.8987 321.009 91.0173V90.558Z" fill="url(#paint9_linear_5313_1740)"/>
</g>
<path d="M321.009 1.59599C321.009 0.714548 320.295 0 319.413 0C318.532 0 317.817 0.714548 317.817 1.59599V2.05527C317.817 2.93671 318.532 3.65125 319.413 3.65125C320.295 3.65125 321.009 2.93671 321.009 2.05527V1.59599Z" fill="#0FC382"/>
<path d="M343.64 47.363C343.64 46.4815 342.926 45.767 342.044 45.767C341.163 45.767 340.448 46.4815 340.448 47.363V55.1707C340.448 56.0521 341.163 56.7667 342.044 56.7667C342.926 56.7667 343.64 56.0521 343.64 55.1707V47.363Z" fill="#0FC382"/>
<path d="M349.301 39.5093C349.301 38.6279 348.586 37.9133 347.705 37.9133C346.823 37.9133 346.109 38.6279 346.109 39.5093V52.0131C346.109 52.8946 346.823 53.6091 347.705 53.6091C348.586 53.6091 349.301 52.8946 349.301 52.0131V39.5093Z" fill="#0FC382"/>
<path d="M349.301 13.7094C349.301 12.828 348.586 12.1134 347.705 12.1134C346.823 12.1134 346.109 12.828 346.109 13.7094V29.233C346.109 30.1144 346.823 30.8289 347.705 30.8289C348.586 30.8289 349.301 30.1144 349.301 29.233V13.7094Z" fill="#0FC382"/>
<path d="M349.301 57.2948C349.301 56.4134 348.586 55.6989 347.705 55.6989C346.823 55.6989 346.109 56.4134 346.109 57.2948V79.0761C346.109 79.9575 346.823 80.672 347.705 80.672C348.586 80.672 349.301 79.9575 349.301 79.0761V57.2948Z" fill="#0FC382"/>
<g filter="url(#filter10_d_5313_1740)">
<path d="M349.381 34.1473C349.381 33.2658 348.667 32.5513 347.785 32.5513C346.904 32.5513 346.189 33.2658 346.189 34.1473V34.6065C346.189 35.488 346.904 36.2025 347.785 36.2025C348.667 36.2025 349.381 35.488 349.381 34.6065V34.1473Z" fill="url(#paint10_linear_5313_1740)"/>
</g>
<path d="M315.349 9.4611C315.349 8.57966 314.634 7.86511 313.753 7.86511C312.871 7.86511 312.157 8.57966 312.157 9.4611V19.4159C312.157 20.2974 312.871 21.0119 313.753 21.0119C314.634 21.0119 315.349 20.2974 315.349 19.4159V9.4611Z" fill="#0FC382"/>
<path d="M315.349 67.7319C315.349 66.8504 314.634 66.1359 313.753 66.1359C312.871 66.1359 312.157 66.8504 312.157 67.7319V83.221C312.157 84.1024 312.871 84.817 313.753 84.817C314.634 84.817 315.349 84.1024 315.349 83.221V67.7319Z" fill="#0FC382"/>
<path fill-rule="evenodd" clip-rule="evenodd" d="M302.971 65.6422L304.188 65.3782C305.819 65.0337 306.703 63.2425 305.991 61.7384L301.41 52.0821C301.318 51.8525 301.191 51.6343 301.088 51.4161L301.019 51.2669C300.537 50.2565 299.963 49.3035 299.297 48.4194L299.595 34.7788C299.653 32.1609 296.587 30.6913 294.589 32.4021L284.313 41.1513H255.482L245.206 32.4021C243.208 30.7027 240.142 32.1609 240.199 34.7788L240.498 48.4194C239.832 49.3149 239.258 50.2794 238.764 51.3013V51.2784L233.781 61.7614C233.069 63.277 233.942 65.0567 235.584 65.4011L236.801 65.6652L235.469 68.4783C235.078 69.305 235.561 70.2809 236.445 70.4647L236.996 70.5795V70.7402C236.996 81.8777 246.032 90.914 257.17 90.914H282.625C293.763 90.914 302.799 81.8777 302.799 70.7402V70.568L303.327 70.4532C304.223 70.258 304.705 69.2935 304.303 68.4668L302.971 65.6537V65.6422Z" fill="url(#paint11_linear_5313_1740)"/>
<path fill-rule="evenodd" clip-rule="evenodd" d="M302.971 65.6422L304.188 65.3782C305.819 65.0337 306.703 63.2425 305.991 61.7384L301.41 52.0821C301.318 51.8525 301.191 51.6343 301.088 51.4161L301.019 51.2669C300.537 50.2565 299.963 49.3035 299.297 48.4194L299.595 34.7788C299.653 32.1609 296.587 30.6913 294.589 32.4021L284.313 41.1513H255.482L245.206 32.4021C243.208 30.7027 240.142 32.1609 240.199 34.7788L240.498 48.4194C239.832 49.3149 239.258 50.2794 238.764 51.3013V51.2784L233.781 61.7614C233.069 63.277 233.942 65.0567 235.584 65.4011L236.801 65.6652L235.469 68.4783C235.078 69.305 235.561 70.2809 236.445 70.4647L236.996 70.5795V70.7402C236.996 81.8777 246.032 90.914 257.17 90.914H282.625C293.763 90.914 302.799 81.8777 302.799 70.7402V70.568L303.327 70.4532C304.223 70.258 304.705 69.2935 304.303 68.4668L302.971 65.6537V65.6422Z" fill="url(#paint12_linear_5313_1740)"/>
<path d="M269.88 98.5723C295.29 98.5723 315.888 77.9738 315.888 52.5642C315.888 27.1547 295.29 6.55615 269.88 6.55615C244.471 6.55615 223.872 27.1547 223.872 52.5642C223.872 77.9738 244.471 98.5723 269.88 98.5723Z" fill="url(#paint13_linear_5313_1740)"/>
<path d="M234.883 83.531H304.889C304.889 86.367 302.592 88.6634 299.756 88.6634H240.016C237.18 88.6634 234.883 86.367 234.883 83.531Z" fill="black"/>
<path d="M240.016 88.3304H299.756C302.592 88.3304 304.889 90.6268 304.889 93.4629H234.883C234.883 90.6268 237.18 88.3304 240.016 88.3304Z" fill="black"/>
<g opacity="0.5">
<g style="mix-blend-mode:multiply">
<path fill-rule="evenodd" clip-rule="evenodd" d="M240.498 48.4078C239.832 49.3034 239.258 50.2679 238.764 51.2898V51.2668L233.781 61.7498C233.069 63.2655 233.942 65.0452 235.584 65.3896L236.801 65.6537L235.469 68.4668C235.078 69.2935 235.561 70.2694 236.445 70.4531L236.996 70.568V70.7287C236.996 81.8662 246.032 90.9025 257.17 90.9025H282.625C284.014 90.9025 285.381 90.7647 286.69 90.4891C286.69 90.4891 295.68 85.4485 297.517 73.4614C299.354 61.4743 296.599 45.7211 285.932 45.7211C276.161 45.7211 247.663 45.767 247.663 45.767L240.28 38.8204L240.486 48.4078H240.498Z" fill="#AA561D"/>
</g>
</g>
<path fill-rule="evenodd" clip-rule="evenodd" d="M304.889 93.4629C304.889 93.4629 312.777 113.235 303.786 142.778H207.235C207.235 142.778 213.068 108.47 234.883 93.4629H304.889Z" fill="black"/>
<path fill-rule="evenodd" clip-rule="evenodd" d="M304.889 93.4629C304.889 91.0631 303.224 89.0538 300.996 88.5027C303.224 87.9515 304.889 85.9422 304.889 83.5425H234.883C234.883 85.9422 236.548 87.9515 238.776 88.5027C236.548 89.0538 234.883 91.0631 234.883 93.4629C213.079 108.481 207.235 142.778 207.235 142.778H303.786C312.777 113.235 304.889 93.4629 304.889 93.4629Z" fill="url(#paint14_linear_5313_1740)"/>
<path fill-rule="evenodd" clip-rule="evenodd" d="M246.962 163.939C246.962 163.939 248.466 154.214 247.858 145.545C247.548 141.09 246.618 136.899 245.022 133.925C239.476 123.592 231.473 119.056 223.298 115.325C217.385 112.615 211.265 110.64 207.154 104.933C196.201 89.7313 201.161 77.262 201.161 77.262C202.642 73.8863 201.103 69.9365 197.728 68.4438C194.352 66.9627 190.402 68.5013 188.91 71.8769C188.91 71.8769 187.451 75.0115 186.831 80.2587L184.891 79.0417C184.443 78.7661 183.892 79.168 184.018 79.6732L187.601 94.0141C188.864 99.6517 191.447 106.036 196.293 112.764C200.897 119.148 207.017 122.604 213.55 125.612C220.6 128.85 228.385 131.261 233.218 140.275C234.435 142.537 234.585 146.108 234.619 149.529C234.677 155.856 233.735 161.884 233.735 161.884" fill="url(#paint15_linear_5313_1740)"/>
<g style="mix-blend-mode:multiply" opacity="0.5">
<path fill-rule="evenodd" clip-rule="evenodd" d="M191.08 69.1902C190.012 69.5576 189.415 70.7747 188.921 71.8769C188.921 71.8769 187.463 75.0115 186.843 80.2587L184.902 79.0416C184.455 78.7661 183.904 79.168 184.03 79.6732L187.612 94.0141C188.875 99.6517 191.459 106.036 196.304 112.764C200.908 119.148 207.028 122.604 213.561 125.612C220.611 128.85 228.396 131.261 233.23 140.275C234.447 142.537 234.596 146.108 234.631 149.529C234.688 155.856 233.747 161.884 233.747 161.884L241.554 163.101C241.554 163.101 249.27 136.589 233.747 127.002C218.223 117.414 204.858 118.425 198.153 101.259C193.353 88.962 195.5 77.6638 195.5 77.6638C195.5 77.6638 198.761 66.5493 191.068 69.2016L191.08 69.1902Z" fill="#AA561D"/>
</g>
</g>
<defs>
<filter id="filter0_d_5313_1740" x="281.213" y="33.1598" width="8.15218" height="22.9294" filterUnits="userSpaceOnUse" color-interpolation-filters="sRGB">
<feFlood flood-opacity="0" result="BackgroundImageFix"/>
<feColorMatrix in="SourceAlpha" type="matrix" values="0 0 0 0 0 0 0 0 0 0 0 0 0 0 0 0 0 0 127 0" result="hardAlpha"/>
<feOffset/>
<feGaussianBlur stdDeviation="1.24005"/>
<feColorMatrix type="matrix" values="0 0 0 0 0.690196 0 0 0 0 1 0 0 0 0 0.835294 0 0 0 0.75 0"/>
<feBlend mode="normal" in2="BackgroundImageFix" result="effect1_dropShadow_5313_1740"/>
<feBlend mode="normal" in="SourceGraphic" in2="effect1_dropShadow_5313_1740" result="shape"/>
</filter>
<filter id="filter1_d_5313_1740" x="286.873" y="20.6331" width="8.15218" height="8.61144" filterUnits="userSpaceOnUse" color-interpolation-filters="sRGB">
<feFlood flood-opacity="0" result="BackgroundImageFix"/>
<feColorMatrix in="SourceAlpha" type="matrix" values="0 0 0 0 0 0 0 0 0 0 0 0 0 0 0 0 0 0 127 0" result="hardAlpha"/>
<feOffset/>
<feGaussianBlur stdDeviation="1.24005"/>
<feColorMatrix type="matrix" values="0 0 0 0 0.690196 0 0 0 0 1 0 0 0 0 0.835294 0 0 0 0.75 0"/>
<feBlend mode="normal" in2="BackgroundImageFix" result="effect1_dropShadow_5313_1740"/>
<feBlend mode="normal" in="SourceGraphic" in2="effect1_dropShadow_5313_1740" result="shape"/>
</filter>
<filter id="filter2_d_5313_1740" x="281.213" y="63.6558" width="8.15218" height="23.6413" filterUnits="userSpaceOnUse" color-interpolation-filters="sRGB">
<feFlood flood-opacity="0" result="BackgroundImageFix"/>
<feColorMatrix in="SourceAlpha" type="matrix" values="0 0 0 0 0 0 0 0 0 0 0 0 0 0 0 0 0 0 127 0" result="hardAlpha"/>
<feOffset/>
<feGaussianBlur stdDeviation="1.24005"/>
<feColorMatrix type="matrix" values="0 0 0 0 0.690196 0 0 0 0 1 0 0 0 0 0.835294 0 0 0 0.75 0"/>
<feBlend mode="normal" in2="BackgroundImageFix" result="effect1_dropShadow_5313_1740"/>
<feBlend mode="normal" in="SourceGraphic" in2="effect1_dropShadow_5313_1740" result="shape"/>
</filter>
<filter id="filter3_d_5313_1740" x="303.844" y="53.2188" width="8.15218" height="29.9333" filterUnits="userSpaceOnUse" color-interpolation-filters="sRGB">
<feFlood flood-opacity="0" result="BackgroundImageFix"/>
<feColorMatrix in="SourceAlpha" type="matrix" values="0 0 0 0 0 0 0 0 0 0 0 0 0 0 0 0 0 0 127 0" result="hardAlpha"/>
<feOffset/>
<feGaussianBlur stdDeviation="1.24005"/>
<feColorMatrix type="matrix" values="0 0 0 0 0.690196 0 0 0 0 1 0 0 0 0 0.835294 0 0 0 0.75 0"/>
<feBlend mode="normal" in2="BackgroundImageFix" result="effect1_dropShadow_5313_1740"/>
<feBlend mode="normal" in="SourceGraphic" in2="effect1_dropShadow_5313_1740" result="shape"/>
</filter>
<filter id="filter4_d_5313_1740" x="315.337" y="20.6331" width="8.15218" height="20.6789" filterUnits="userSpaceOnUse" color-interpolation-filters="sRGB">
<feFlood flood-opacity="0" result="BackgroundImageFix"/>
<feColorMatrix in="SourceAlpha" type="matrix" values="0 0 0 0 0 0 0 0 0 0 0 0 0 0 0 0 0 0 127 0" result="hardAlpha"/>
<feOffset/>
<feGaussianBlur stdDeviation="1.24005"/>
<feColorMatrix type="matrix" values="0 0 0 0 0.690196 0 0 0 0 1 0 0 0 0 0.835294 0 0 0 0.75 0"/>
<feBlend mode="normal" in2="BackgroundImageFix" result="effect1_dropShadow_5313_1740"/>
<feBlend mode="normal" in="SourceGraphic" in2="effect1_dropShadow_5313_1740" result="shape"/>
</filter>
<filter id="filter5_d_5313_1740" x="303.936" y="30.0712" width="8.15218" height="8.61144" filterUnits="userSpaceOnUse" color-interpolation-filters="sRGB">
<feFlood flood-opacity="0" result="BackgroundImageFix"/>
<feColorMatrix in="SourceAlpha" type="matrix" values="0 0 0 0 0 0 0 0 0 0 0 0 0 0 0 0 0 0 127 0" result="hardAlpha"/>
<feOffset/>
<feGaussianBlur stdDeviation="1.24005"/>
<feColorMatrix type="matrix" values="0 0 0 0 0.690196 0 0 0 0 1 0 0 0 0 0.835294 0 0 0 0.75 0"/>
<feBlend mode="normal" in2="BackgroundImageFix" result="effect1_dropShadow_5313_1740"/>
<feBlend mode="normal" in="SourceGraphic" in2="effect1_dropShadow_5313_1740" result="shape"/>
</filter>
<filter id="filter6_d_5313_1740" x="337.968" y="70.9813" width="8.15218" height="20.4608" filterUnits="userSpaceOnUse" color-interpolation-filters="sRGB">
<feFlood flood-opacity="0" result="BackgroundImageFix"/>
<feColorMatrix in="SourceAlpha" type="matrix" values="0 0 0 0 0 0 0 0 0 0 0 0 0 0 0 0 0 0 127 0" result="hardAlpha"/>
<feOffset/>
<feGaussianBlur stdDeviation="1.24005"/>
<feColorMatrix type="matrix" values="0 0 0 0 0.690196 0 0 0 0 1 0 0 0 0 0.835294 0 0 0 0.75 0"/>
<feBlend mode="normal" in2="BackgroundImageFix" result="effect1_dropShadow_5313_1740"/>
<feBlend mode="normal" in="SourceGraphic" in2="effect1_dropShadow_5313_1740" result="shape"/>
</filter>
<filter id="filter7_d_5313_1740" x="326.647" y="26.3626" width="8.15218" height="24.3072" filterUnits="userSpaceOnUse" color-interpolation-filters="sRGB">
<feFlood flood-opacity="0" result="BackgroundImageFix"/>
<feColorMatrix in="SourceAlpha" type="matrix" values="0 0 0 0 0 0 0 0 0 0 0 0 0 0 0 0 0 0 127 0" result="hardAlpha"/>
<feOffset/>
<feGaussianBlur stdDeviation="1.24005"/>
<feColorMatrix type="matrix" values="0 0 0 0 0.690196 0 0 0 0 1 0 0 0 0 0.835294 0 0 0 0.75 0"/>
<feBlend mode="normal" in2="BackgroundImageFix" result="effect1_dropShadow_5313_1740"/>
<feBlend mode="normal" in="SourceGraphic" in2="effect1_dropShadow_5313_1740" result="shape"/>
</filter>
<filter id="filter8_d_5313_1740" x="326.647" y="1.17115" width="8.15218" height="8.61144" filterUnits="userSpaceOnUse" color-interpolation-filters="sRGB">
<feFlood flood-opacity="0" result="BackgroundImageFix"/>
<feColorMatrix in="SourceAlpha" type="matrix" values="0 0 0 0 0 0 0 0 0 0 0 0 0 0 0 0 0 0 127 0" result="hardAlpha"/>
<feOffset/>
<feGaussianBlur stdDeviation="1.24005"/>
<feColorMatrix type="matrix" values="0 0 0 0 0.690196 0 0 0 0 1 0 0 0 0 0.835294 0 0 0 0.75 0"/>
<feBlend mode="normal" in2="BackgroundImageFix" result="effect1_dropShadow_5313_1740"/>
<feBlend mode="normal" in="SourceGraphic" in2="effect1_dropShadow_5313_1740" result="shape"/>
</filter>
<filter id="filter9_d_5313_1740" x="315.337" y="86.4819" width="8.15218" height="8.61144" filterUnits="userSpaceOnUse" color-interpolation-filters="sRGB">
<feFlood flood-opacity="0" result="BackgroundImageFix"/>
<feColorMatrix in="SourceAlpha" type="matrix" values="0 0 0 0 0 0 0 0 0 0 0 0 0 0 0 0 0 0 127 0" result="hardAlpha"/>
<feOffset/>
<feGaussianBlur stdDeviation="1.24005"/>
<feColorMatrix type="matrix" values="0 0 0 0 0.690196 0 0 0 0 1 0 0 0 0 0.835294 0 0 0 0.75 0"/>
<feBlend mode="normal" in2="BackgroundImageFix" result="effect1_dropShadow_5313_1740"/>
<feBlend mode="normal" in="SourceGraphic" in2="effect1_dropShadow_5313_1740" result="shape"/>
</filter>
<filter id="filter10_d_5313_1740" x="343.709" y="30.0712" width="8.15218" height="8.61144" filterUnits="userSpaceOnUse" color-interpolation-filters="sRGB">
<feFlood flood-opacity="0" result="BackgroundImageFix"/>
<feColorMatrix in="SourceAlpha" type="matrix" values="0 0 0 0 0 0 0 0 0 0 0 0 0 0 0 0 0 0 127 0" result="hardAlpha"/>
<feOffset/>
<feGaussianBlur stdDeviation="1.24005"/>
<feColorMatrix type="matrix" values="0 0 0 0 0.690196 0 0 0 0 1 0 0 0 0 0.835294 0 0 0 0.75 0"/>
<feBlend mode="normal" in2="BackgroundImageFix" result="effect1_dropShadow_5313_1740"/>
<feBlend mode="normal" in="SourceGraphic" in2="effect1_dropShadow_5313_1740" result="shape"/>
</filter>
<linearGradient id="paint0_linear_5313_1740" x1="328.22" y1="53.6091" x2="328.22" y2="35.6399" gradientUnits="userSpaceOnUse">
<stop stop-color="#95FFCC"/>
<stop offset="1" stop-color="#0FC382"/>
</linearGradient>
<linearGradient id="paint1_linear_5313_1740" x1="333.88" y1="26.7644" x2="333.88" y2="23.1132" gradientUnits="userSpaceOnUse">
<stop stop-color="#95FFCC"/>
<stop offset="1" stop-color="#0FC382"/>
</linearGradient>
<linearGradient id="paint2_linear_5313_1740" x1="328.22" y1="84.817" x2="328.22" y2="66.1359" gradientUnits="userSpaceOnUse">
<stop stop-color="#95FFCC"/>
<stop offset="1" stop-color="#0FC382"/>
</linearGradient>
<linearGradient id="paint3_linear_5313_1740" x1="350.851" y1="80.672" x2="350.851" y2="55.6989" gradientUnits="userSpaceOnUse">
<stop stop-color="#95FFCC"/>
<stop offset="1" stop-color="#0FC382"/>
</linearGradient>
<linearGradient id="paint4_linear_5313_1740" x1="362.344" y1="38.8204" x2="362.344" y2="23.1132" gradientUnits="userSpaceOnUse">
<stop stop-color="#95FFCC"/>
<stop offset="1" stop-color="#0FC382"/>
</linearGradient>
<linearGradient id="paint5_linear_5313_1740" x1="350.931" y1="36.2025" x2="350.931" y2="32.5513" gradientUnits="userSpaceOnUse">
<stop stop-color="#95FFCC"/>
<stop offset="1" stop-color="#0FC382"/>
</linearGradient>
<linearGradient id="paint6_linear_5313_1740" x1="384.964" y1="88.962" x2="384.964" y2="73.4614" gradientUnits="userSpaceOnUse">
<stop stop-color="#95FFCC"/>
<stop offset="1" stop-color="#0FC382"/>
</linearGradient>
<linearGradient id="paint7_linear_5313_1740" x1="373.654" y1="48.1897" x2="373.654" y2="28.8427" gradientUnits="userSpaceOnUse">
<stop stop-color="#95FFCC"/>
<stop offset="1" stop-color="#0FC382"/>
</linearGradient>
<linearGradient id="paint8_linear_5313_1740" x1="373.654" y1="7.3025" x2="373.654" y2="3.65125" gradientUnits="userSpaceOnUse">
<stop stop-color="#95FFCC"/>
<stop offset="1" stop-color="#0FC382"/>
</linearGradient>
<linearGradient id="paint9_linear_5313_1740" x1="362.344" y1="92.6133" x2="362.344" y2="88.962" gradientUnits="userSpaceOnUse">
<stop stop-color="#95FFCC"/>
<stop offset="1" stop-color="#0FC382"/>
</linearGradient>
<linearGradient id="paint10_linear_5313_1740" x1="390.716" y1="36.2025" x2="390.716" y2="32.5513" gradientUnits="userSpaceOnUse">
<stop stop-color="#95FFCC"/>
<stop offset="1" stop-color="#0FC382"/>
</linearGradient>
<linearGradient id="paint11_linear_5313_1740" x1="269.88" y1="31.6443" x2="269.88" y2="90.9025" gradientUnits="userSpaceOnUse">
<stop offset="0.16" stop-color="#FFA933"/>
<stop offset="0.42" stop-color="#FFA531"/>
<stop offset="0.64" stop-color="#FF9A2C"/>
<stop offset="0.86" stop-color="#FF8724"/>
<stop offset="1" stop-color="#FF781D"/>
</linearGradient>
<linearGradient id="paint12_linear_5313_1740" x1="233.528" y1="61.2676" x2="306.243" y2="61.2676" gradientUnits="userSpaceOnUse">
<stop offset="0.09" stop-color="#0FC382" stop-opacity="0"/>
<stop offset="0.26" stop-color="#0FC382" stop-opacity="0.02"/>
<stop offset="0.43" stop-color="#0FC382" stop-opacity="0.08"/>
<stop offset="0.59" stop-color="#0FC382" stop-opacity="0.19"/>
<stop offset="0.76" stop-color="#0FC382" stop-opacity="0.33"/>
<stop offset="0.92" stop-color="#0FC382" stop-opacity="0.5"/>
</linearGradient>
<linearGradient id="paint13_linear_5313_1740" x1="269.88" y1="-7.38291" x2="269.88" y2="95.2081" gradientUnits="userSpaceOnUse">
<stop stop-color="#95FFEC" stop-opacity="0.5"/>
<stop offset="0.14" stop-color="#95FFEC" stop-opacity="0.47"/>
<stop offset="0.35" stop-color="#95FFEC" stop-opacity="0.39"/>
<stop offset="0.61" stop-color="#95FFEC" stop-opacity="0.26"/>
<stop offset="0.9" stop-color="#95FFEC" stop-opacity="0.07"/>
<stop offset="1" stop-color="#95FFEC" stop-opacity="0"/>
</linearGradient>
<linearGradient id="paint14_linear_5313_1740" x1="209.933" y1="147.451" x2="316.761" y2="85.77" gradientUnits="userSpaceOnUse">
<stop offset="0.33" stop-color="#0FC382" stop-opacity="0"/>
<stop offset="0.46" stop-color="#0FC382" stop-opacity="0.02"/>
<stop offset="0.6" stop-color="#0FC382" stop-opacity="0.08"/>
<stop offset="0.74" stop-color="#0FC382" stop-opacity="0.19"/>
<stop offset="0.88" stop-color="#0FC382" stop-opacity="0.33"/>
<stop offset="1" stop-color="#0FC382" stop-opacity="0.5"/>
</linearGradient>
<linearGradient id="paint15_linear_5313_1740" x1="183.875" y1="74.9798" x2="252.146" y2="159.771" gradientUnits="userSpaceOnUse">
<stop offset="0.27" stop-color="#FFA933"/>
<stop offset="0.73" stop-color="#FF8623"/>
<stop offset="1" stop-color="#FF781D"/>
</linearGradient>
<clipPath id="clip0_5313_1740">
<rect width="374" height="96" fill="white"/>
</clipPath>
</defs>
</svg>
