<svg width="374" height="96" viewBox="0 0 374 96" fill="none" xmlns="http://www.w3.org/2000/svg">
<g clip-path="url(#clip0_5349_171)">
<mask id="mask0_5349_171" style="mask-type:alpha" maskUnits="userSpaceOnUse" x="0" y="0" width="374" height="96">
<path d="M0 7C0 3.13401 3.13401 0 7 0H367C370.866 0 374 3.13401 374 7V96H0V7Z" fill="url(#paint0_linear_5349_171)"/>
</mask>
<g mask="url(#mask0_5349_171)">
<path d="M233.129 56.7379H242.478L238.402 50.3682L233.915 51.5773L233.129 56.7379Z" fill="url(#paint1_linear_5349_171)"/>
<path fill-rule="evenodd" clip-rule="evenodd" d="M323.788 19.492L300.416 19.6167C300.204 19.2926 300.005 18.9685 299.768 18.6568C294.745 10.5919 283.489 10.7539 283.489 10.7539H252.188C240.708 10.7539 235.921 18.6444 235.921 18.6444C235.585 19.1056 235.273 19.5793 234.974 20.0654L208.972 19.9283C207.962 19.9283 207.625 21.2745 208.51 21.7482L228.916 32.568L228.654 33.1289C227.881 34.7743 228.829 36.7064 230.611 37.0804L231.933 37.3671L230.487 40.4211C230.063 41.3185 230.586 42.3781 231.546 42.5775L232.119 42.7022V42.8892C232.119 54.9929 241.93 64.7905 254.021 64.7905H281.656C293.747 64.7905 303.557 54.9804 303.557 42.8892V42.7147L304.156 42.59C305.128 42.3781 305.652 41.331 305.215 40.4335L303.769 37.3796L305.091 37.0928C306.861 36.7189 307.821 34.7743 307.048 33.1414L306.013 30.9724L324.225 21.3244C325.11 20.8507 324.773 19.5045 323.764 19.5045L323.788 19.492Z" fill="url(#paint2_linear_5349_171)"/>
<path d="M267.39 42.3905C267.39 41.7049 266.854 41.1564 266.169 41.144C265.483 41.144 264.922 41.68 264.922 42.3656C264.91 43.7243 264.336 44.9583 263.427 45.8434C262.517 46.7284 261.283 47.2644 259.911 47.2395C258.553 47.227 257.319 46.6536 256.434 45.7436C255.549 44.8461 255.025 43.5996 255.037 42.2285C255.037 41.5429 254.501 40.9819 253.816 40.9819C253.13 40.9819 252.569 41.5179 252.569 42.2035C252.544 44.2478 253.355 46.1051 254.676 47.4638C255.997 48.8225 257.842 49.6826 259.886 49.7076C261.931 49.7325 263.788 48.9223 265.147 47.6009C265.496 47.2519 265.82 46.878 266.094 46.4666C266.356 46.878 266.667 47.2644 267.017 47.6259C268.338 48.9846 270.183 49.8322 272.214 49.8571C274.259 49.8821 276.116 49.0843 277.475 47.7505C278.834 46.4292 279.681 44.5844 279.706 42.5401C279.706 41.8545 279.17 41.2936 278.484 41.2936C277.799 41.2936 277.238 41.8296 277.238 42.5152C277.225 43.8739 276.652 45.1079 275.742 45.9929C274.832 46.878 273.598 47.414 272.227 47.389C270.856 47.3766 269.634 46.8032 268.749 45.9057C267.864 44.9957 267.328 43.7617 267.353 42.3905" fill="black"/>
<path d="M300.292 62.3599L235.435 62.3599C232.356 62.3599 229.863 59.8668 229.863 56.7879L305.851 56.7879C305.851 59.8668 303.358 62.3599 300.279 62.3599H300.292Z" fill="black"/>
<path d="M305.851 67.5703L229.851 67.5703C229.851 64.4914 232.344 61.9984 235.423 61.9984L300.292 61.9984C303.37 61.9984 305.864 64.4914 305.864 67.5703H305.851Z" fill="black"/>
<path fill-rule="evenodd" clip-rule="evenodd" d="M281.731 148.494H328.488C347.896 147.26 351.1 146.325 351.1 126.88C351.1 110.924 314.876 68.0565 305.851 67.5579H229.838V81.7432C229.838 111.149 223.444 151.1 281.731 148.482V148.494Z" fill="#815B24"/>
<mask id="mask1_5349_171" style="mask-type:luminance" maskUnits="userSpaceOnUse" x="229" y="67" width="123" height="82">
<path d="M281.731 148.494H328.488C347.896 147.26 351.1 146.325 351.1 126.88C351.1 110.924 314.876 68.0565 305.851 67.5579H229.838V81.7432C229.838 111.149 223.444 151.1 281.731 148.482V148.494Z" fill="white"/>
</mask>
<g mask="url(#mask1_5349_171)">
<path d="M211.352 63.8806H242.441C242.441 63.8806 288.126 117.306 287.004 157.706L216.077 155.687L211.365 63.8806H211.352Z" fill="url(#paint3_linear_5349_171)"/>
<path d="M199.909 75.1741H230.998C230.998 75.1741 276.682 128.6 275.561 169L204.634 166.98L199.909 75.1741Z" fill="url(#paint4_linear_5349_171)"/>
<path d="M363.552 64.8903L277.256 63.8806C277.256 63.8806 231.571 117.306 232.693 157.719L358.841 156.709L363.552 64.9028V64.8903Z" fill="url(#paint5_linear_5349_171)"/>
<path d="M383.995 64.8903L297.699 63.8806C297.699 63.8806 252.014 117.306 253.136 157.706L379.283 156.696L383.995 64.8903Z" fill="url(#paint6_linear_5349_171)"/>
</g>
<path d="M248.125 87.1157H266.935C273.874 87.1157 279.5 81.493 279.5 74.557C279.5 67.6211 273.874 61.9984 266.935 61.9984H248.125C241.185 61.9984 235.56 67.6211 235.56 74.557C235.56 81.493 241.185 87.1157 248.125 87.1157Z" fill="url(#paint7_linear_5349_171)"/>
<path d="M247.863 83.7251H267.196C272.429 83.7251 276.67 79.4864 276.67 74.2578C276.67 69.0291 272.429 64.7905 267.196 64.7905H247.863C242.631 64.7905 238.389 69.0291 238.389 74.2578C238.389 79.4864 242.631 83.7251 247.863 83.7251Z" fill="url(#paint8_linear_5349_171)"/>
<path d="M257.536 80.3468C260.93 80.3468 263.681 77.5955 263.681 74.2015C263.681 70.8075 260.93 68.0562 257.536 68.0562C254.142 68.0562 251.391 70.8075 251.391 74.2015C251.391 77.5955 254.142 80.3468 257.536 80.3468Z" fill="#DBDBDB"/>
<path d="M248.598 70.8236C249.576 70.8236 250.368 70.0311 250.368 69.0535C250.368 68.0759 249.576 67.2834 248.598 67.2834C247.621 67.2834 246.828 68.0759 246.828 69.0535C246.828 70.0311 247.621 70.8236 248.598 70.8236Z" fill="#DBDBDB"/>
<path d="M248.598 81.1073C249.576 81.1073 250.368 80.3148 250.368 79.3372C250.368 78.3596 249.576 77.5671 248.598 77.5671C247.621 77.5671 246.828 78.3596 246.828 79.3372C246.828 80.3148 247.621 81.1073 248.598 81.1073Z" fill="#DBDBDB"/>
<path d="M266.573 70.8236C267.551 70.8236 268.343 70.0311 268.343 69.0535C268.343 68.0759 267.551 67.2834 266.573 67.2834C265.596 67.2834 264.803 68.0759 264.803 69.0535C264.803 70.0311 265.596 70.8236 266.573 70.8236Z" fill="#DBDBDB"/>
<path d="M266.573 81.1073C267.551 81.1073 268.343 80.3148 268.343 79.3372C268.343 78.3596 267.551 77.5671 266.573 77.5671C265.596 77.5671 264.803 78.3596 264.803 79.3372C264.803 80.3148 265.596 81.1073 266.573 81.1073Z" fill="#DBDBDB"/>
<path d="M258.066 30.7231H245.975C245.177 30.7231 244.529 31.3677 244.529 32.1629C244.529 32.958 245.177 33.6026 245.975 33.6026H258.066C258.865 33.6026 259.512 32.958 259.512 32.1629C259.512 31.3677 258.865 30.7231 258.066 30.7231Z" fill="black"/>
<path d="M286.724 30.7231H274.633C273.834 30.7231 273.187 31.3677 273.187 32.1629C273.187 32.958 273.834 33.6026 274.633 33.6026H286.724C287.522 33.6026 288.17 32.958 288.17 32.1629C288.17 31.3677 287.522 30.7231 286.724 30.7231Z" fill="black"/>
<path d="M263.681 152.346C263.681 152.346 276.708 84.9593 303.109 47.3767C303.109 47.3767 308.868 57.3115 311.049 59.5801C313.729 62.3599 317.269 64.4914 320.323 69.3778C331.218 86.8041 362.568 136.091 378 150.875L263.681 152.346Z" fill="url(#paint9_linear_5349_171)"/>
<path d="M271.223 152.346C271.223 152.346 234.525 95.0311 233.914 51.5649C233.914 51.5649 225.588 57.1743 222.272 70.3001C222.272 70.3001 215.989 92.6627 222.334 150.202L271.223 152.334V152.346Z" fill="url(#paint10_linear_5349_171)"/>
<path d="M283.588 152.097C283.588 152.097 298.06 88.5243 303.769 75.386C303.769 75.386 295.019 138.136 300.528 152.359L283.588 152.097Z" fill="url(#paint11_linear_5349_171)"/>
<path d="M251.403 151.025C251.403 151.025 236.333 137.051 231.222 92.7375C231.222 92.7375 229.639 124.524 234.463 151.224L251.403 151.025Z" fill="url(#paint12_linear_5349_171)"/>
</g>
</g>
<defs>
<linearGradient id="paint0_linear_5349_171" x1="0" y1="48" x2="374" y2="48" gradientUnits="userSpaceOnUse">
<stop stop-color="#7B3BA5"/>
<stop offset="1" stop-color="#421560"/>
</linearGradient>
<linearGradient id="paint1_linear_5349_171" x1="237.804" y1="56.7379" x2="237.804" y2="50.3682" gradientUnits="userSpaceOnUse">
<stop offset="0.2" stop-color="#4D2D00"/>
<stop offset="0.53" stop-color="#5F3B0B"/>
<stop offset="1" stop-color="#805620"/>
</linearGradient>
<linearGradient id="paint2_linear_5349_171" x1="266.374" y1="10.7539" x2="266.374" y2="64.778" gradientUnits="userSpaceOnUse">
<stop offset="0.237597" stop-color="#95FFCC"/>
<stop offset="1" stop-color="#0FC382"/>
</linearGradient>
<linearGradient id="paint3_linear_5349_171" x1="211.352" y1="110.8" x2="287.016" y2="110.8" gradientUnits="userSpaceOnUse">
<stop stop-color="#F6E4C3"/>
<stop offset="1" stop-color="#D6A87A"/>
</linearGradient>
<linearGradient id="paint4_linear_5349_171" x1="199.909" y1="122.093" x2="275.573" y2="122.093" gradientUnits="userSpaceOnUse">
<stop stop-color="#F6E4C3"/>
<stop offset="1" stop-color="#D6A87A"/>
</linearGradient>
<linearGradient id="paint5_linear_5349_171" x1="298.11" y1="63.8806" x2="298.11" y2="157.719" gradientUnits="userSpaceOnUse">
<stop stop-color="#F6E4C3"/>
<stop offset="1" stop-color="#D6A87A"/>
</linearGradient>
<linearGradient id="paint6_linear_5349_171" x1="318.566" y1="63.8806" x2="318.566" y2="157.719" gradientUnits="userSpaceOnUse">
<stop offset="0.52" stop-color="#F6E4C3"/>
<stop offset="1" stop-color="#D6A87A"/>
</linearGradient>
<linearGradient id="paint7_linear_5349_171" x1="257.536" y1="87.1157" x2="257.536" y2="61.9984" gradientUnits="userSpaceOnUse">
<stop stop-color="#D6A87A"/>
<stop offset="1" stop-color="#F6E4C3"/>
</linearGradient>
<linearGradient id="paint8_linear_5349_171" x1="257.536" y1="83.7251" x2="257.536" y2="50.0691" gradientUnits="userSpaceOnUse">
<stop stop-color="#7C7C7C"/>
<stop offset="0.05" stop-color="#747474"/>
<stop offset="0.5" stop-color="#353535"/>
<stop offset="0.83" stop-color="#0E0E0E"/>
<stop offset="1"/>
</linearGradient>
<linearGradient id="paint9_linear_5349_171" x1="320.847" y1="152.346" x2="320.847" y2="47.3767" gradientUnits="userSpaceOnUse">
<stop offset="0.2" stop-color="#4D2D00"/>
<stop offset="0.53" stop-color="#5F3B0B"/>
<stop offset="1" stop-color="#805620"/>
</linearGradient>
<linearGradient id="paint10_linear_5349_171" x1="245.37" y1="152.346" x2="245.37" y2="51.5774" gradientUnits="userSpaceOnUse">
<stop stop-color="#4D2D00"/>
<stop offset="1" stop-color="#805620"/>
</linearGradient>
<linearGradient id="paint11_linear_5349_171" x1="293.685" y1="152.346" x2="293.685" y2="75.386" gradientUnits="userSpaceOnUse">
<stop offset="0.2" stop-color="#4D2D00"/>
<stop offset="0.71" stop-color="#3A2204"/>
<stop offset="1" stop-color="#2E1C07"/>
</linearGradient>
<linearGradient id="paint12_linear_5349_171" x1="241.182" y1="151.212" x2="241.182" y2="92.7375" gradientUnits="userSpaceOnUse">
<stop offset="0.2" stop-color="#4D2D00"/>
<stop offset="0.71" stop-color="#3A2204"/>
<stop offset="1" stop-color="#2E1C07"/>
</linearGradient>
<clipPath id="clip0_5349_171">
<rect width="374" height="96" fill="white"/>
</clipPath>
</defs>
</svg>
