<svg width="374" height="96" viewBox="0 0 374 96" fill="none" xmlns="http://www.w3.org/2000/svg">
<g clip-path="url(#clip0_5313_439)">
<path d="M282.221 92.3649C288.646 92.3649 293.854 87.1562 293.854 80.7309C293.854 74.3056 288.646 69.0969 282.221 69.0969C275.795 69.0969 270.587 74.3056 270.587 80.7309C270.587 87.1562 275.795 92.3649 282.221 92.3649Z" fill="black"/>
<path d="M284.392 67.5897L275.976 67.3091C275.257 67.2851 274.654 67.849 274.63 68.5687L273.845 92.1017C273.821 92.8213 274.385 93.4242 275.105 93.4482L283.52 93.7288C284.24 93.7528 284.842 93.1889 284.866 92.4692L285.651 68.9363C285.675 68.2166 285.111 67.6137 284.392 67.5897Z" fill="black"/>
<path fill-rule="evenodd" clip-rule="evenodd" d="M306.487 107.354C308.734 106.041 309.819 103.374 309.108 100.872C306.815 92.7889 303.241 70.3005 289.072 70.0543C286.656 70.0133 286.437 82.6091 288.42 107.842C288.343 112.3 293.171 115.127 297.018 112.879L306.482 107.359L306.487 107.354Z" fill="url(#paint0_linear_5313_439)"/>
<path d="M309.938 20.7877C309.711 19.6648 308.617 18.9384 307.494 19.1652C306.371 19.3921 305.645 20.4862 305.872 21.6091L309.21 38.1337C309.436 39.2566 310.531 39.983 311.653 39.7561C312.776 39.5293 313.503 38.4352 313.276 37.3123L309.938 20.7877Z" fill="#7C7C7C"/>
<mask id="mask0_5313_439" style="mask-type:luminance" maskUnits="userSpaceOnUse" x="305" y="19" width="9" height="21">
<path d="M309.938 20.7877C309.711 19.6648 308.617 18.9384 307.494 19.1652C306.371 19.3921 305.645 20.4862 305.872 21.6091L309.21 38.1337C309.436 39.2566 310.531 39.983 311.653 39.7561C312.776 39.5293 313.503 38.4352 313.276 37.3123L309.938 20.7877Z" fill="white"/>
</mask>
<g mask="url(#mask0_5313_439)">
<path opacity="0.5" d="M313.576 20.0404L302.414 22.2952L302.861 24.5071L314.023 22.2523L313.576 20.0404Z" fill="black"/>
<path opacity="0.5" d="M314.484 24.5311L303.322 26.7859L303.768 28.9978L314.931 26.743L314.484 24.5311Z" fill="black"/>
<path opacity="0.5" d="M315.392 29.0265L304.23 31.2812L304.677 33.4932L315.839 31.2384L315.392 29.0265Z" fill="black"/>
<path opacity="0.5" d="M316.3 33.5128L305.138 35.7676L305.584 37.9795L316.747 35.7247L316.3 33.5128Z" fill="black"/>
</g>
<path d="M318.528 22.7198C318.63 21.5787 317.787 20.5713 316.646 20.4697C315.505 20.368 314.498 21.2107 314.396 22.3517L312.901 39.1435C312.799 40.2846 313.642 41.292 314.783 41.3936C315.924 41.4953 316.931 40.6527 317.033 39.5116L318.528 22.7198Z" fill="#7C7C7C"/>
<mask id="mask1_5313_439" style="mask-type:luminance" maskUnits="userSpaceOnUse" x="312" y="20" width="7" height="22">
<path d="M318.528 22.7198C318.63 21.5787 317.787 20.5713 316.646 20.4697C315.505 20.368 314.498 21.2107 314.396 22.3517L312.901 39.1435C312.799 40.2846 313.642 41.292 314.783 41.3936C315.924 41.4953 316.931 40.6527 317.033 39.5116L318.528 22.7198Z" fill="white"/>
</mask>
<g mask="url(#mask1_5313_439)">
<path opacity="0.5" d="M322.229 23.0338L310.886 22.0234L310.686 24.2711L322.029 25.2815L322.229 23.0338Z" fill="black"/>
<path opacity="0.5" d="M321.826 27.5977L310.483 26.5874L310.283 28.8351L321.626 29.8454L321.826 27.5977Z" fill="black"/>
<path opacity="0.5" d="M321.418 32.1663L310.075 31.156L309.875 33.4037L321.217 34.414L321.418 32.1663Z" fill="black"/>
<path opacity="0.5" d="M321.014 36.7303L309.671 35.72L309.471 37.9677L320.814 38.978L321.014 36.7303Z" fill="black"/>
</g>
<path d="M323.555 35.4924C323.49 34.3487 322.51 33.4745 321.366 33.5399C320.222 33.6052 319.348 34.5854 319.414 35.7291L320.375 52.5599C320.441 53.7036 321.421 54.5778 322.564 54.5125C323.708 54.4471 324.582 53.467 324.517 52.3233L323.555 35.4924Z" fill="#7C7C7C"/>
<mask id="mask2_5313_439" style="mask-type:luminance" maskUnits="userSpaceOnUse" x="319" y="33" width="6" height="22">
<path d="M323.555 35.4924C323.49 34.3487 322.51 33.4745 321.366 33.5399C320.222 33.6052 319.348 34.5854 319.414 35.7291L320.375 52.5599C320.441 53.7036 321.421 54.5778 322.564 54.5125C323.708 54.4471 324.582 53.467 324.517 52.3233L323.555 35.4924Z" fill="white"/>
</mask>
<g mask="url(#mask2_5313_439)">
<path opacity="0.5" d="M327.269 35.2679L315.9 35.9175L316.029 38.1704L327.398 37.5208L327.269 35.2679Z" fill="black"/>
<path opacity="0.5" d="M327.53 39.8453L316.161 40.4949L316.289 42.7478L327.659 42.0982L327.53 39.8453Z" fill="black"/>
<path opacity="0.5" d="M327.786 44.4183L316.417 45.0679L316.546 47.3208L327.915 46.6712L327.786 44.4183Z" fill="black"/>
<path opacity="0.5" d="M328.051 48.9957L316.682 49.6453L316.811 51.8982L328.18 51.2486L328.051 48.9957Z" fill="black"/>
</g>
<path fill-rule="evenodd" clip-rule="evenodd" d="M325.182 36.4287C327.425 36.839 329.208 38.544 329.723 40.7641C330.926 45.9566 332.85 55.8901 332.622 65.5821C332.49 71.1802 331.783 76.6599 331.077 80.8494C330.434 84.6787 326.24 86.7575 322.798 84.9614L310.932 78.7706C309.318 77.9272 308.201 76.3727 307.927 74.5719L302.607 40.0119C302.01 36.1279 305.42 32.8091 309.286 33.5157L325.182 36.4242V36.4287Z" fill="url(#paint1_linear_5313_439)"/>
<path fill-rule="evenodd" clip-rule="evenodd" d="M330.489 44.3108C330.22 42.9751 329.96 41.7807 329.723 40.7641C329.208 38.5394 327.425 36.839 325.182 36.4287L309.286 33.5202C305.42 32.8136 302.01 36.1278 302.607 40.0164L303.592 46.4215L305.953 46.9868C307.244 47.2922 308.456 46.2483 308.338 44.9262L308.114 42.4098C308 41.1196 309.154 40.0802 310.426 40.3355L330.493 44.3153L330.489 44.3108Z" fill="black"/>
<path d="M302.585 35.0959C303.741 35.0299 304.737 35.9182 304.803 37.0742L305.59 50.8512L303.492 50.971C302.336 51.0371 301.34 50.1488 301.274 48.9927L300.607 37.314C300.541 36.1579 301.429 35.162 302.585 35.0959Z" fill="#7C7C7C"/>
<mask id="mask3_5313_439" style="mask-type:luminance" maskUnits="userSpaceOnUse" x="300" y="35" width="6" height="16">
<path d="M302.585 35.0959C303.741 35.0299 304.737 35.9182 304.803 37.0742L305.59 50.8512L303.492 50.971C302.336 51.0371 301.34 50.1488 301.274 48.9927L300.607 37.314C300.541 36.1579 301.429 35.162 302.585 35.0959Z" fill="white"/>
</mask>
<g mask="url(#mask3_5313_439)">
<path opacity="0.5" d="M308.558 36.8477L297.043 37.5056L297.174 39.7904L308.689 39.1325L308.558 36.8477Z" fill="black"/>
<path opacity="0.5" d="M308.822 41.4796L297.307 42.1375L297.437 44.4222L308.952 43.7643L308.822 41.4796Z" fill="black"/>
<path opacity="0.5" d="M309.086 46.116L297.571 46.7739L297.701 49.0587L309.216 48.4008L309.086 46.116Z" fill="black"/>
<path d="M309.35 50.7525L297.835 51.4104L297.965 53.6952L309.48 53.0373L309.35 50.7525Z" fill="#7C7C7C"/>
</g>
<path d="M220.723 92.3649C227.148 92.3649 232.357 87.1562 232.357 80.7309C232.357 74.3056 227.148 69.0969 220.723 69.0969C214.297 69.0969 209.089 74.3056 209.089 80.7309C209.089 87.1562 214.297 92.3649 220.723 92.3649Z" fill="black"/>
<path d="M219.422 93.7313L227.837 93.4507C228.557 93.4267 229.12 92.8238 229.096 92.1041L228.312 68.5712C228.288 67.8515 227.685 67.2876 226.965 67.3116L218.55 67.5922C217.83 67.6162 217.266 68.2191 217.29 68.9387L218.075 92.4717C218.099 93.1914 218.702 93.7553 219.422 93.7313Z" fill="black"/>
<path fill-rule="evenodd" clip-rule="evenodd" d="M196.452 107.354C194.204 106.041 193.119 103.374 193.831 100.872C196.124 92.7889 199.698 70.3005 213.866 70.0543C216.283 70.0133 216.501 82.6091 214.518 107.842C214.596 112.3 209.768 115.127 205.92 112.879L196.456 107.359L196.452 107.354Z" fill="url(#paint2_linear_5313_439)"/>
<path fill-rule="evenodd" clip-rule="evenodd" d="M281.409 64.7523H221.707L224 53.0181H279.193L281.409 64.7523Z" fill="black"/>
<path fill-rule="evenodd" clip-rule="evenodd" d="M250.017 18.6906C248.504 18.1345 247.428 16.6802 247.423 14.9752C247.414 12.787 249.192 11.0046 251.38 11C253.569 11 255.351 12.7688 255.356 14.957C255.356 16.662 254.284 18.1208 252.775 18.6815V21.0065C260.844 21.1843 273.614 21.9274 273.614 21.9274C276.303 21.9228 278.592 23.8831 279.002 26.5408C279.002 26.5408 281.154 35.0885 282.307 43.5906C282.731 46.7225 283.196 50.1598 283.593 53.1321C284.135 57.1621 281.008 60.7407 276.942 60.7498C276.942 60.7498 259.108 61.9214 251.175 61.9397C238.137 61.967 226.038 60.8592 226.038 60.8592C222.045 60.8684 218.922 57.4219 219.332 53.4512C219.569 51.1764 219.916 48.2953 220.436 44.6893C222.204 32.3852 224.324 26.6594 224.324 26.6594C224.721 24.0016 227.005 22.0322 229.694 22.0231C229.694 22.0231 241.944 21.0065 250.027 20.9746V18.6815L250.017 18.6906Z" fill="url(#paint3_linear_5313_439)"/>
<path d="M275.36 28.2093C275.113 26.7049 273.851 25.5789 272.328 25.5014C265.946 25.0866 259.003 24.886 251.494 24.9042C243.991 24.9225 237.139 25.1458 230.948 25.5744C229.453 25.6701 228.222 26.7779 227.967 28.2504C226.663 33.3015 225.705 37.5776 225.099 41.0787C224.493 44.5799 224.124 47.9625 223.991 51.2265C223.732 52.7264 224.146 54.2627 225.131 55.4252C226.111 56.5876 227.556 57.2578 229.079 57.2532C235.306 57.5678 242.801 57.7137 251.567 57.6909C260.334 57.6726 267.828 57.4948 274.051 57.1529C275.56 57.1529 276.992 56.4828 277.972 55.334C278.947 54.1806 279.367 52.658 279.125 51.1718C278.756 47.1875 278.263 43.3216 277.648 39.5652C277.033 35.8133 276.267 32.025 275.36 28.2093Z" fill="black"/>
<path d="M239.528 40.9922L235.562 41.0013C235.562 39.9072 236.446 39.0137 237.54 39.0137C238.634 39.0137 239.528 39.8981 239.528 40.9922Z" fill="#95FFEC"/>
<path d="M263.657 40.942C263.657 39.8479 264.542 38.9543 265.636 38.9543C266.73 38.9543 267.623 39.8387 267.623 40.9329L263.657 40.942Z" fill="#95FFEC"/>
<path d="M256.5 41.4663C256.505 44.2791 254.234 46.563 251.422 46.5676C248.609 46.5721 246.325 44.2973 246.32 41.4891L256.5 41.4663Z" fill="#95FFEC"/>
<path fill-rule="evenodd" clip-rule="evenodd" d="M278.783 128.935H224.466C222.204 128.935 220.312 127.221 220.089 124.969C219.022 114.06 218.038 76.6279 218.908 65.5729C219.077 63.4485 220.923 61.8711 223.048 62.0261C233.866 62.8194 269.1 62.8194 279.896 62.0261C282.015 61.8711 283.862 63.4485 284.035 65.5683C284.924 76.6187 284.236 114.064 283.16 124.974C282.936 127.226 281.044 128.935 278.783 128.935Z" fill="url(#paint4_linear_5313_439)"/>
<path d="M238.848 71.8628L238.014 71.8645L238.025 77.0797L238.859 77.078L238.848 71.8628Z" fill="black"/>
<path d="M235.046 71.8752L234.212 71.877L234.223 77.0922L235.057 77.0904L235.046 71.8752Z" fill="black"/>
<path d="M242.559 71.8642L241.725 71.866L241.736 77.0812L242.57 77.0794L242.559 71.8642Z" fill="black"/>
<path d="M246.256 71.8791L245.422 71.8809L245.433 77.0961L246.267 77.0943L246.256 71.8791Z" fill="black"/>
<path d="M249.958 71.8852L249.124 71.887L249.134 77.1022L249.969 77.1004L249.958 71.8852Z" fill="black"/>
<path d="M253.664 71.8864L252.83 71.8882L252.841 77.1034L253.675 77.1017L253.664 71.8864Z" fill="black"/>
<path d="M257.372 71.8846L256.538 71.8865L256.549 77.1017L257.384 77.0998L257.372 71.8846Z" fill="black"/>
<path d="M261.078 71.8897L260.244 71.8916L260.256 77.1068L261.09 77.1049L261.078 71.8897Z" fill="black"/>
<path d="M264.774 71.9043L263.94 71.906L263.95 77.1212L264.785 77.1195L264.774 71.9043Z" fill="black"/>
<path d="M268.475 71.9101L267.641 71.9119L267.652 77.1271L268.486 77.1253L268.475 71.9101Z" fill="black"/>
<path d="M274.776 62.2859V109.966C274.776 112.446 272.766 114.452 270.29 114.452H232.662C230.182 114.452 228.176 112.441 228.176 109.966V62.2859" stroke="#DEB4FF" stroke-width="0.911754" stroke-miterlimit="10"/>
<path d="M266.447 85.1392H236.505C234.899 85.1392 233.597 86.4413 233.597 88.0476V106.702C233.597 108.308 234.899 109.611 236.505 109.611H266.447C268.054 109.611 269.356 108.308 269.356 106.702V88.0476C269.356 86.4413 268.054 85.1392 266.447 85.1392Z" fill="black"/>
<path d="M265.21 90.6718L248.365 90.707L248.371 93.2919L265.215 93.2566L265.21 90.6718Z" fill="#95FFEC"/>
<path fill-rule="evenodd" clip-rule="evenodd" d="M243.248 92.374C243.248 93.9331 241.989 95.1959 240.435 95.2004C238.876 95.2004 237.613 93.9422 237.608 92.3877C237.608 90.8286 238.867 89.5658 240.421 89.5612C241.98 89.5612 243.243 90.8195 243.248 92.374ZM243.594 92.374C243.594 90.6234 242.167 89.2057 240.417 89.2102C238.666 89.2102 237.253 90.6371 237.253 92.3877C237.253 94.1382 238.68 95.556 240.43 95.5515C242.181 95.5515 243.599 94.1246 243.594 92.374Z" fill="white"/>
<path fill-rule="evenodd" clip-rule="evenodd" d="M239.309 94.0698C238.351 93.5182 238.019 92.2964 238.57 91.3391C239.122 90.3817 240.344 90.0489 241.306 90.6006L241.652 89.9988C240.357 89.2557 238.712 89.7025 237.969 90.9926C237.225 92.2873 237.672 93.933 238.962 94.6761L239.309 94.0698Z" fill="white"/>
<path d="M228.172 81.3098H274.776" stroke="#DEB4FF" stroke-width="0.911754" stroke-miterlimit="10"/>
<path d="M190.029 17.0085C204.143 17.0085 215.603 28.4693 215.603 42.5832V98.378H164.454V42.5832C164.454 28.4693 175.915 17.0085 190.029 17.0085Z" fill="url(#paint5_radial_5313_439)"/>
<path d="M180.054 53.0183V57.454C180.054 60.5448 182.561 63.0522 185.652 63.0522H187.102" stroke="#106375" stroke-width="1.23998" stroke-miterlimit="10"/>
<path d="M190.904 46.1253C190.904 43.6226 189.728 41.3979 187.904 39.9619V38.2751H183.049C178.714 38.2751 175.199 41.79 175.199 46.1253C175.199 50.4607 178.714 53.9755 183.049 53.9755H187.904V52.2888C189.728 50.8528 190.904 48.6281 190.904 46.1253Z" fill="url(#paint6_linear_5313_439)"/>
<mask id="mask4_5313_439" style="mask-type:luminance" maskUnits="userSpaceOnUse" x="175" y="38" width="16" height="16">
<path d="M190.904 46.1253C190.904 43.6226 189.728 41.3979 187.904 39.9619V38.2751H183.049C178.714 38.2751 175.199 41.79 175.199 46.1253C175.199 50.4607 178.714 53.9755 183.049 53.9755H187.904V52.2888C189.728 50.8528 190.904 48.6281 190.904 46.1253Z" fill="white"/>
</mask>
<g mask="url(#mask4_5313_439)">
<path d="M189.395 51.4089H173.731V53.0182H189.395V51.4089Z" fill="#106375"/>
<path d="M189.395 48.3682H173.731V49.9774H189.395V48.3682Z" fill="#106375"/>
<path d="M189.395 45.3276H173.731V46.9369H189.395V45.3276Z" fill="#106375"/>
<path d="M189.395 42.2913H173.731V43.9005H189.395V42.2913Z" fill="#106375"/>
<path d="M189.395 39.2507H173.731V40.86H189.395V39.2507Z" fill="#106375"/>
</g>
<path d="M187.904 53.9755C192.24 53.9755 195.754 50.4609 195.754 46.1253C195.754 41.7898 192.24 38.2751 187.904 38.2751C183.569 38.2751 180.054 41.7898 180.054 46.1253C180.054 50.4609 183.569 53.9755 187.904 53.9755Z" fill="black"/>
<path d="M187.904 50.1646C190.135 50.1646 191.943 48.3562 191.943 46.1255C191.943 43.8948 190.135 42.0864 187.904 42.0864C185.673 42.0864 183.865 43.8948 183.865 46.1255C183.865 48.3562 185.673 50.1646 187.904 50.1646Z" fill="#DBFFFD"/>
<path d="M205.031 63.0521H206.267C207.689 63.0521 208.843 61.8987 208.843 60.4764V53.2097" stroke="#10C0C0" stroke-width="1.23998" stroke-miterlimit="10"/>
<path d="M201.093 61.5933H191.036C190.23 61.5933 189.577 62.2464 189.577 63.0521C189.577 63.8577 190.23 64.5109 191.036 64.5109H201.093C201.898 64.5109 202.552 63.8577 202.552 63.0521C202.552 62.2464 201.898 61.5933 201.093 61.5933Z" fill="black"/>
<path d="M201.831 59.8472H190.302C188.535 59.8472 187.102 61.28 187.102 63.0474V63.052C187.102 64.8194 188.535 66.2522 190.302 66.2522H201.831C203.599 66.2522 205.032 64.8194 205.032 63.052V63.0474C205.032 61.28 203.599 59.8472 201.831 59.8472Z" stroke="url(#paint7_linear_5313_439)" stroke-width="1.23998" stroke-miterlimit="10"/>
<path d="M217.016 46.1253C217.016 43.6226 215.84 41.3979 214.017 39.9619V38.2751H209.162C204.826 38.2751 201.312 41.79 201.312 46.1253C201.312 50.4607 204.826 53.9755 209.162 53.9755H214.017V52.2888C215.84 50.8528 217.016 48.6281 217.016 46.1253Z" fill="url(#paint8_linear_5313_439)"/>
<mask id="mask5_5313_439" style="mask-type:luminance" maskUnits="userSpaceOnUse" x="201" y="38" width="17" height="16">
<path d="M217.016 46.1253C217.016 43.6226 215.84 41.3979 214.017 39.9619V38.2751H209.162C204.826 38.2751 201.312 41.79 201.312 46.1253C201.312 50.4607 204.826 53.9755 209.162 53.9755H214.017V52.2888C215.84 50.8528 217.016 48.6281 217.016 46.1253Z" fill="white"/>
</mask>
<g mask="url(#mask5_5313_439)">
<path d="M215.508 51.4089H199.844V53.0182H215.508V51.4089Z" fill="#106375"/>
<path d="M215.508 48.3682H199.844V49.9774H215.508V48.3682Z" fill="#106375"/>
<path d="M215.508 45.3276H199.844V46.9369H215.508V45.3276Z" fill="#106375"/>
<path d="M215.508 42.2913H199.844V43.9005H215.508V42.2913Z" fill="#106375"/>
<path d="M215.508 39.2507H199.844V40.86H215.508V39.2507Z" fill="#106375"/>
</g>
<path d="M214.017 53.9755C218.352 53.9755 221.867 50.4609 221.867 46.1253C221.867 41.7898 218.352 38.2751 214.017 38.2751C209.681 38.2751 206.167 41.7898 206.167 46.1253C206.167 50.4609 209.681 53.9755 214.017 53.9755Z" fill="black"/>
<path d="M214.017 50.1646C216.248 50.1646 218.056 48.3562 218.056 46.1255C218.056 43.8948 216.248 42.0864 214.017 42.0864C211.786 42.0864 209.978 43.8948 209.978 46.1255C209.978 48.3562 211.786 50.1646 214.017 50.1646Z" fill="#DBFFFD"/>
<path d="M214.933 70.811H165.124C162.294 70.811 160 73.1052 160 75.9351C160 78.765 162.294 81.0591 165.124 81.0591H214.933C217.763 81.0591 220.057 78.765 220.057 75.9351C220.057 73.1052 217.763 70.811 214.933 70.811Z" fill="black"/>
<path d="M214.933 80.5076H165.124C162.294 80.5076 160 82.8017 160 85.6316C160 88.4616 162.294 90.7557 165.124 90.7557H214.933C217.763 90.7557 220.057 88.4616 220.057 85.6316C220.057 82.8017 217.763 80.5076 214.933 80.5076Z" fill="black"/>
<path d="M214.933 90.7556H165.124C162.294 90.7556 160 93.0497 160 95.8797C160 98.7096 162.294 101.004 165.124 101.004H214.933C217.763 101.004 220.057 98.7096 220.057 95.8797C220.057 93.0497 217.763 90.7556 214.933 90.7556Z" fill="black"/>
<path d="M324.084 39.5605L341.845 57.3215C343.896 59.373 345.045 62.1538 345.045 65.0532V113.577L323.924 122.339L324.079 39.5651L324.084 39.5605Z" fill="url(#paint9_radial_5313_439)"/>
<path d="M320.209 37.8237H277.343C274.392 37.8237 272 40.2158 272 43.1666V119.453C272 122.404 274.392 124.796 277.343 124.796H320.209C323.16 124.796 325.552 122.404 325.552 119.453V43.1666C325.552 40.2158 323.16 37.8237 320.209 37.8237Z" fill="url(#paint10_radial_5313_439)"/>
<path d="M318.148 41.4343H279.403C277.127 41.4343 275.282 43.2794 275.282 45.5555V74.6723C275.282 76.9483 277.127 78.7934 279.403 78.7934H318.148C320.424 78.7934 322.27 76.9483 322.27 74.6723V45.5555C322.27 43.2794 320.424 41.4343 318.148 41.4343Z" fill="black"/>
<path d="M337.851 91.8177C342.665 91.8177 346.568 87.9153 346.568 83.1014C346.568 78.2875 342.665 74.385 337.851 74.385C333.038 74.385 329.135 78.2875 329.135 83.1014C329.135 87.9153 333.038 91.8177 337.851 91.8177Z" fill="black"/>
<path d="M283.52 50.4835V67.5332C283.52 68.4421 284.256 69.179 285.164 69.179C286.071 69.179 286.807 68.4421 286.807 67.5332V50.4835C286.807 49.5746 286.071 48.8377 285.164 48.8377C284.256 48.8377 283.52 49.5746 283.52 50.4835Z" fill="#AEF1FF"/>
<path d="M303.724 50.4788V67.5286C303.724 68.4375 304.46 69.1743 305.368 69.1743C306.276 69.1743 307.011 68.4375 307.011 67.5286V50.4788C307.011 49.5699 306.276 48.8331 305.368 48.8331C304.46 48.8331 303.724 49.5699 303.724 50.4788Z" fill="#AEF1FF"/>
<path d="M338.909 78.2507C342.273 78.2507 345.004 80.9814 345.004 84.3458V110.636H332.809V84.3458C332.809 80.9814 335.54 78.2507 338.905 78.2507H338.909Z" fill="url(#paint11_radial_5313_439)"/>
<mask id="mask6_5313_439" style="mask-type:luminance" maskUnits="userSpaceOnUse" x="332" y="78" width="14" height="33">
<path d="M338.909 78.2507C342.273 78.2507 345.004 80.9814 345.004 84.3458V110.636H332.809V84.3458C332.809 80.9814 335.54 78.2507 338.905 78.2507H338.909Z" fill="white"/>
</mask>
<g mask="url(#mask6_5313_439)">
<path d="M346.974 95.3279H331.246V98.282H346.974V95.3279Z" fill="#3F57C4"/>
<path d="M346.974 90.0352H331.246V92.9892H346.974V90.0352Z" fill="#3F57C4"/>
<path d="M346.974 84.7424H331.246V87.6965H346.974V84.7424Z" fill="#3F57C4"/>
<path d="M346.974 79.4497H331.246V82.4038H346.974V79.4497Z" fill="#3F57C4"/>
</g>
<path d="M284.787 86.4202H310.978C312.933 86.4202 314.52 88.0066 314.52 89.9623V124.8H281.245V89.9623C281.245 88.0066 282.832 86.4202 284.787 86.4202Z" stroke="url(#paint12_linear_5313_439)" stroke-width="1.39498" stroke-miterlimit="10"/>
<path d="M302.284 92.7935H290.937C290.028 92.7935 289.291 93.5292 289.291 94.4369C289.291 95.3445 290.028 96.0803 290.937 96.0803H302.284C303.193 96.0803 303.93 95.3445 303.93 94.4369C303.93 93.5292 303.193 92.7935 302.284 92.7935Z" fill="black"/>
</g>
<defs>
<linearGradient id="paint0_linear_5313_439" x1="302.269" y1="73.0762" x2="286.926" y2="132.577" gradientUnits="userSpaceOnUse">
<stop stop-color="#F6EAFF"/>
<stop offset="1" stop-color="#DEB4FF"/>
</linearGradient>
<linearGradient id="paint1_linear_5313_439" x1="320.145" y1="86.0173" x2="316.345" y2="32.8403" gradientUnits="userSpaceOnUse">
<stop stop-color="#F6EAFF"/>
<stop offset="0.72" stop-color="#E5C4FF"/>
<stop offset="1" stop-color="#DEB4FF"/>
</linearGradient>
<linearGradient id="paint2_linear_5313_439" x1="200.674" y1="73.1202" x2="216.018" y2="132.621" gradientUnits="userSpaceOnUse">
<stop stop-color="#F6EAFF"/>
<stop offset="1" stop-color="#DEB4FF"/>
</linearGradient>
<linearGradient id="paint3_linear_5313_439" x1="251.472" y1="5.47022" x2="251.472" y2="70.966" gradientUnits="userSpaceOnUse">
<stop stop-color="#F6EAFF"/>
<stop offset="0.28" stop-color="#F4E6FF"/>
<stop offset="0.55" stop-color="#EFDAFF"/>
<stop offset="0.81" stop-color="#E6C7FF"/>
<stop offset="1" stop-color="#DEB4FF"/>
</linearGradient>
<linearGradient id="paint4_linear_5313_439" x1="251.508" y1="51.7871" x2="251.508" y2="138.49" gradientUnits="userSpaceOnUse">
<stop stop-color="white"/>
<stop offset="1" stop-color="#DEB4FF"/>
</linearGradient>
<radialGradient id="paint5_radial_5313_439" cx="0" cy="0" r="1" gradientUnits="userSpaceOnUse" gradientTransform="translate(209.203 23.213) scale(60.3262 60.3262)">
<stop stop-color="#95FFEC"/>
<stop offset="1" stop-color="#10C0C0"/>
</radialGradient>
<linearGradient id="paint6_linear_5313_439" x1="183.049" y1="53.9755" x2="183.049" y2="38.2751" gradientUnits="userSpaceOnUse">
<stop stop-color="#106375"/>
<stop offset="1" stop-color="#10C0C0"/>
</linearGradient>
<linearGradient id="paint7_linear_5313_439" x1="186.482" y1="63.052" x2="205.652" y2="63.052" gradientUnits="userSpaceOnUse">
<stop stop-color="#106375"/>
<stop offset="1" stop-color="#10C0C0"/>
</linearGradient>
<linearGradient id="paint8_linear_5313_439" x1="209.166" y1="11" x2="209.166" y2="11" gradientUnits="userSpaceOnUse">
<stop stop-color="#106375"/>
<stop offset="1" stop-color="#10C0C0"/>
</linearGradient>
<radialGradient id="paint9_radial_5313_439" cx="0" cy="0" r="1" gradientUnits="userSpaceOnUse" gradientTransform="translate(325.146 42.583) scale(67.1689 67.1689)">
<stop stop-color="#3F57C4"/>
<stop offset="1" stop-color="#11258E"/>
</radialGradient>
<radialGradient id="paint10_radial_5313_439" cx="0" cy="0" r="1" gradientUnits="userSpaceOnUse" gradientTransform="translate(275.037 41.0012) scale(77.5807 80.8133)">
<stop stop-color="#AEF1FF"/>
<stop offset="1" stop-color="#3F57C4"/>
</radialGradient>
<radialGradient id="paint11_radial_5313_439" cx="0" cy="0" r="1" gradientUnits="userSpaceOnUse" gradientTransform="translate(334.423 79.9831) scale(32.0573 32.0573)">
<stop stop-color="#AEF1FF"/>
<stop offset="1" stop-color="#3F57C4"/>
</radialGradient>
<linearGradient id="paint12_linear_5313_439" x1="280.548" y1="105.608" x2="315.217" y2="105.608" gradientUnits="userSpaceOnUse">
<stop stop-color="#3F57C4"/>
<stop offset="1" stop-color="#11258E"/>
</linearGradient>
<clipPath id="clip0_5313_439">
<rect width="374" height="96" fill="white"/>
</clipPath>
</defs>
</svg>
