<svg width="374" height="96" viewBox="0 0 374 96" fill="none" xmlns="http://www.w3.org/2000/svg">
<g clip-path="url(#clip0_5313_1494)">
<path d="M353.876 49.105C355.038 50.1121 356.797 49.9861 357.804 48.8234C358.812 47.6607 358.686 45.9017 357.523 44.8945L340.413 30.0732C339.25 29.0661 337.491 29.1921 336.484 30.3548C335.477 31.5175 335.603 33.2765 336.765 34.2837L353.876 49.105Z" fill="#7C7C7C"/>
<mask id="mask0_5313_1494" style="mask-type:luminance" maskUnits="userSpaceOnUse" x="335" y="29" width="24" height="21">
<path d="M353.876 49.105C355.038 50.1121 356.797 49.9861 357.804 48.8234C358.812 47.6607 358.686 45.9017 357.523 44.8945L340.413 30.0732C339.25 29.0661 337.491 29.1921 336.484 30.3548C335.477 31.5175 335.603 33.2765 336.765 34.2837L353.876 49.105Z" fill="white"/>
</mask>
<g mask="url(#mask0_5313_1494)">
<path opacity="0.5" d="M335.781 40.0323L345.793 28.4744L343.503 26.4904L333.491 38.0484L335.781 40.0323Z" fill="black"/>
<path opacity="0.5" d="M340.429 44.06L350.441 32.5021L348.15 30.5181L338.139 42.0761L340.429 44.06Z" fill="black"/>
<path opacity="0.5" d="M345.088 48.0918L355.099 36.5338L352.809 34.5499L342.797 46.1078L345.088 48.0918Z" fill="black"/>
<path opacity="0.5" d="M349.74 52.1174L359.752 40.5594L357.462 38.5755L347.45 50.1335L349.74 52.1174Z" fill="black"/>
</g>
<path d="M350.937 57.6227C352.099 58.6298 353.858 58.5038 354.865 57.3411C355.873 56.1784 355.746 54.4194 354.584 53.4122L337.474 38.5909C336.311 37.5837 334.552 37.7098 333.545 38.8725C332.538 40.0352 332.664 41.7942 333.826 42.8014L350.937 57.6227Z" fill="#7C7C7C"/>
<mask id="mask1_5313_1494" style="mask-type:luminance" maskUnits="userSpaceOnUse" x="332" y="37" width="24" height="22">
<path d="M350.937 57.6227C352.099 58.6298 353.858 58.5038 354.865 57.3411C355.873 56.1784 355.746 54.4194 354.584 53.4122L337.474 38.5909C336.311 37.5837 334.552 37.7098 333.545 38.8725C332.538 40.0352 332.664 41.7942 333.826 42.8014L350.937 57.6227Z" fill="white"/>
</mask>
<g mask="url(#mask1_5313_1494)">
<path opacity="0.5" d="M332.842 48.55L342.854 36.9921L340.564 35.0081L330.552 46.5661L332.842 48.55Z" fill="black"/>
<path opacity="0.5" d="M337.496 52.5716L347.508 41.0137L345.218 39.0297L335.206 50.5877L337.496 52.5716Z" fill="black"/>
<path opacity="0.5" d="M342.149 56.6034L352.16 45.0454L349.87 43.0615L339.858 54.6194L342.149 56.6034Z" fill="black"/>
<path opacity="0.5" d="M346.801 60.6351L356.813 49.0771L354.523 47.0932L344.511 58.6512L346.801 60.6351Z" fill="black"/>
</g>
<path d="M348.731 66.5173C349.894 67.5245 351.653 67.3984 352.66 66.2357C353.667 65.073 353.541 63.314 352.379 62.3069L335.268 47.4856C334.106 46.4784 332.347 46.6045 331.34 47.7672C330.332 48.9299 330.459 50.6889 331.621 51.696L348.731 66.5173Z" fill="#7C7C7C"/>
<mask id="mask2_5313_1494" style="mask-type:luminance" maskUnits="userSpaceOnUse" x="330" y="46" width="24" height="22">
<path d="M348.731 66.5173C349.894 67.5245 351.653 67.3984 352.66 66.2357C353.667 65.073 353.541 63.314 352.379 62.3069L335.268 47.4856C334.106 46.4784 332.347 46.6045 331.34 47.7672C330.332 48.9299 330.459 50.6889 331.621 51.696L348.731 66.5173Z" fill="white"/>
</mask>
<g mask="url(#mask2_5313_1494)">
<path opacity="0.5" d="M330.632 57.4408L340.644 45.8828L338.354 43.8989L328.342 55.4568L330.632 57.4408Z" fill="black"/>
<path opacity="0.5" d="M335.285 61.4725L345.297 49.9146L343.006 47.9306L332.994 59.4886L335.285 61.4725Z" fill="black"/>
<path opacity="0.5" d="M339.937 65.5042L349.949 53.9463L347.659 51.9624L337.647 63.5203L339.937 65.5042Z" fill="black"/>
<path opacity="0.5" d="M343.169 70.0522L353.181 58.4943L350.891 56.5103L340.879 68.0683L343.169 70.0522Z" fill="black"/>
</g>
<path fill-rule="evenodd" clip-rule="evenodd" d="M342.466 58.481C341.064 61.205 341.413 64.4983 343.353 66.8673C347.889 72.4011 356.882 82.5932 367.368 90.2939C373.428 94.7442 379.837 98.4782 384.875 101.166C389.472 103.62 395.122 100.859 396.034 95.7297L399.181 78.0389C399.609 75.6332 398.862 73.1662 397.179 71.3972L364.784 37.4111C361.142 33.5914 354.819 34.4973 352.401 39.1925L342.46 58.481H342.466Z" fill="url(#paint0_linear_5313_1494)"/>
<path fill-rule="evenodd" clip-rule="evenodd" d="M346.5 70.5891C345.3 69.2057 344.241 67.9508 343.359 66.8673C341.419 64.4983 341.07 61.205 342.472 58.481L352.413 39.1925C354.831 34.4973 361.154 33.5914 364.797 37.4111L370.802 43.7101L369.467 46.6851C368.739 48.3072 366.633 48.7418 365.323 47.5298L362.832 45.2282C361.552 44.0467 359.502 44.4263 358.73 45.9811L346.512 70.583L346.5 70.5891Z" fill="black"/>
<path d="M349.958 15.4108H302.009C299.93 15.4108 298.245 17.0963 298.245 19.1754V83.3522C298.245 85.4314 299.93 87.1169 302.009 87.1169H349.958C352.038 87.1169 353.723 85.4314 353.723 83.3522V19.1754C353.723 17.0963 352.038 15.4108 349.958 15.4108Z" fill="url(#paint1_linear_5313_1494)"/>
<path d="M352.217 20.9737L301.745 16.9836L296.649 81.449L347.121 85.439L352.217 20.9737Z" fill="url(#paint2_linear_5313_1494)"/>
<path fill-rule="evenodd" clip-rule="evenodd" d="M345.502 30.7879C345.575 30.7879 345.631 30.7267 345.637 30.6593C345.643 30.592 345.594 30.5247 345.527 30.5124C343.053 29.9676 341.248 27.8496 341.101 25.3215C341.101 25.248 341.04 25.1929 340.972 25.1868C340.905 25.1807 340.838 25.2296 340.825 25.297C340.28 27.77 338.162 29.582 335.634 29.7289C335.561 29.7289 335.506 29.7901 335.5 29.8574C335.494 29.9248 335.543 29.9921 335.61 30.0043C338.083 30.5491 339.889 32.6671 340.036 35.1953C340.036 35.2687 340.097 35.3238 340.164 35.33C340.232 35.3361 340.299 35.2871 340.311 35.2198C340.85 32.7467 342.974 30.9409 345.502 30.7879Z" fill="white"/>
<path fill-rule="evenodd" clip-rule="evenodd" d="M311.791 48.4052C311.791 48.4052 311.84 48.3869 311.84 48.3563C311.84 48.3257 311.828 48.3073 311.798 48.3012C310.898 48.1053 310.243 47.334 310.188 46.4158C310.188 46.3913 310.169 46.3668 310.139 46.3668C310.108 46.3668 310.09 46.3791 310.084 46.4097C309.888 47.3095 309.116 47.9645 308.198 48.0196C308.174 48.0196 308.149 48.038 308.149 48.0686C308.149 48.0992 308.161 48.1175 308.192 48.1237C309.092 48.3195 309.747 49.0908 309.802 50.0091C309.802 50.0335 309.82 50.058 309.851 50.058C309.882 50.058 309.9 50.0458 309.906 50.0152C310.102 49.1153 310.873 48.4603 311.791 48.4052Z" fill="white"/>
<path fill-rule="evenodd" clip-rule="evenodd" d="M336.363 72.1501C336.412 72.1501 336.455 72.1073 336.461 72.0583C336.467 72.0093 336.43 71.9604 336.381 71.9481C334.606 71.5564 333.302 70.0321 333.198 68.2202C333.198 68.1712 333.155 68.1284 333.106 68.1222C333.057 68.1161 333.008 68.1529 332.996 68.2018C332.604 69.977 331.08 71.2809 329.262 71.3911C329.213 71.3911 329.17 71.4339 329.164 71.4829C329.158 71.5319 329.195 71.5808 329.244 71.5931C331.019 71.9849 332.323 73.5091 332.427 75.321C332.427 75.3761 332.47 75.4128 332.519 75.419C332.567 75.4251 332.616 75.3884 332.629 75.3394C333.02 73.5642 334.545 72.2603 336.357 72.1501H336.363Z" fill="white"/>
<path fill-rule="evenodd" clip-rule="evenodd" d="M338.175 35.2198C338.175 35.2198 338.224 35.2014 338.224 35.1708C338.224 35.1402 338.211 35.1218 338.181 35.1157C337.293 34.9198 336.644 34.1608 336.589 33.2487C336.589 33.2242 336.571 33.1997 336.54 33.1997C336.51 33.1997 336.491 33.2119 336.485 33.2426C336.289 34.1302 335.53 34.779 334.618 34.8341C334.594 34.8341 334.569 34.8525 334.569 34.8831C334.569 34.9137 334.581 34.9321 334.612 34.9382C335.5 35.1341 336.148 35.8931 336.204 36.8052C336.204 36.8297 336.222 36.8542 336.253 36.8542C336.283 36.8542 336.302 36.8419 336.308 36.8113C336.504 35.9237 337.263 35.2749 338.175 35.2198Z" fill="white"/>
<path d="M321.604 32.0244C322.006 32.0244 322.332 31.6983 322.332 31.296C322.332 30.8936 322.006 30.5675 321.604 30.5675C321.202 30.5675 320.876 30.8936 320.876 31.296C320.876 31.6983 321.202 32.0244 321.604 32.0244Z" fill="white"/>
<path opacity="0.5" d="M308.37 29.1717C308.772 29.1717 309.098 28.8456 309.098 28.4433C309.098 28.041 308.772 27.7148 308.37 27.7148C307.967 27.7148 307.641 28.041 307.641 28.4433C307.641 28.8456 307.967 29.1717 308.37 29.1717Z" fill="white"/>
<path opacity="0.5" d="M340.623 60.7949C341.026 60.7949 341.352 60.4688 341.352 60.0665C341.352 59.6642 341.026 59.338 340.623 59.338C340.221 59.338 339.895 59.6642 339.895 60.0665C339.895 60.4688 340.221 60.7949 340.623 60.7949Z" fill="white"/>
<path opacity="0.2" d="M304.348 61.5724C304.75 61.5724 305.076 61.2462 305.076 60.8439C305.076 60.4416 304.75 60.1155 304.348 60.1155C303.945 60.1155 303.619 60.4416 303.619 60.8439C303.619 61.2462 303.945 61.5724 304.348 61.5724Z" fill="white"/>
<path opacity="0.2" d="M343.255 45.9568C343.658 45.9568 343.984 45.6306 343.984 45.2283C343.984 44.826 343.658 44.4999 343.255 44.4999C342.853 44.4999 342.527 44.826 342.527 45.2283C342.527 45.6306 342.853 45.9568 343.255 45.9568Z" fill="white"/>
<path opacity="0.2" d="M343.323 80.6589C343.725 80.6589 344.051 80.3328 344.051 79.9305C344.051 79.5282 343.725 79.202 343.323 79.202C342.92 79.202 342.594 79.5282 342.594 79.9305C342.594 80.3328 342.92 80.6589 343.323 80.6589Z" fill="white"/>
<path opacity="0.5" d="M317.913 63.3721C318.315 63.3721 318.641 63.0459 318.641 62.6436C318.641 62.2413 318.315 61.9152 317.913 61.9152C317.511 61.9152 317.184 62.2413 317.184 62.6436C317.184 63.0459 317.511 63.3721 317.913 63.3721Z" fill="white"/>
<path opacity="0.5" d="M303.093 77.4819C303.495 77.4819 303.821 77.1558 303.821 76.7535C303.821 76.3512 303.495 76.025 303.093 76.025C302.691 76.025 302.365 76.3512 302.365 76.7535C302.365 77.1558 302.691 77.4819 303.093 77.4819Z" fill="white"/>
<path opacity="0.2" d="M311.136 34.4974C311.539 34.4974 311.865 34.1713 311.865 33.769C311.865 33.3667 311.539 33.0405 311.136 33.0405C310.734 33.0405 310.408 33.3667 310.408 33.769C310.408 34.1713 310.734 34.4974 311.136 34.4974Z" fill="white"/>
<path d="M309.786 74.3546C309.818 73.9535 309.518 73.6027 309.117 73.571C308.716 73.5393 308.365 73.8387 308.334 74.2398C308.302 74.6408 308.601 74.9916 309.002 75.0233C309.403 75.0551 309.754 74.7556 309.786 74.3546Z" fill="white"/>
<path fill-rule="evenodd" clip-rule="evenodd" d="M328.148 40.276C325.497 40.0679 323.177 42.0451 322.969 44.6957C322.81 46.7463 325.326 51.3374 326.483 53.3207C326.752 53.786 327.407 53.841 327.75 53.4187C329.201 51.6435 332.414 47.4993 332.574 45.4547C332.782 42.8042 330.805 40.4841 328.154 40.276H328.148ZM327.53 48.0624C326.03 47.9461 324.91 46.63 325.026 45.1303C325.142 43.6305 326.458 42.5103 327.958 42.6266C329.458 42.7429 330.578 44.059 330.462 45.5588C330.345 47.0585 329.029 48.1787 327.53 48.0624Z" fill="#DEB4FF"/>
<path opacity="0.5" d="M311.92 73.7907L329.029 73.1847" stroke="#DBDBDB" stroke-width="0.624383" stroke-miterlimit="10" stroke-linecap="round"/>
<path opacity="0.5" d="M330.847 67.2653L328.197 55.3776" stroke="#DBDBDB" stroke-width="0.624383" stroke-miterlimit="10" stroke-linecap="round"/>
<path opacity="0.5" d="M323.759 53.4431L313.75 50.5967" stroke="#DBDBDB" stroke-width="0.624383" stroke-miterlimit="10" stroke-linecap="round"/>
<path opacity="0.5" d="M311.449 44.053L319.835 33.7262" stroke="#DBDBDB" stroke-width="0.624383" stroke-miterlimit="10" stroke-linecap="round"/>
<path opacity="0.5" d="M324.01 31.4857L334.006 33.0099" stroke="#DBDBDB" stroke-width="0.624383" stroke-miterlimit="10" stroke-linecap="round"/>
<path d="M365.358 39.4142L363.511 41.5472L349.505 29.4152C348.33 28.3972 348.202 26.6098 349.22 25.4346C350.238 24.2594 352.025 24.1312 353.2 25.1492L365.073 35.4336C366.248 36.4516 366.376 38.239 365.358 39.4142Z" fill="#7C7C7C"/>
<mask id="mask3_5313_1494" style="mask-type:luminance" maskUnits="userSpaceOnUse" x="348" y="24" width="19" height="18">
<path d="M365.358 39.4142L363.511 41.5472L349.505 29.4152C348.33 28.3972 348.202 26.6098 349.22 25.4346C350.238 24.2594 352.025 24.1312 353.2 25.1492L365.073 35.4336C366.248 36.4516 366.376 38.239 365.358 39.4142Z" fill="white"/>
</mask>
<g mask="url(#mask3_5313_1494)">
<path opacity="0.5" d="M348.509 35.2312L358.649 23.5251L356.326 21.5132L346.186 33.2192L348.509 35.2312Z" fill="black"/>
<path opacity="0.5" d="M353.221 39.3099L363.361 27.6039L361.038 25.5919L350.898 37.2979L353.221 39.3099Z" fill="black"/>
<path opacity="0.5" d="M357.932 43.3886L368.072 31.6826L365.75 29.6706L355.61 41.3766L357.932 43.3886Z" fill="black"/>
<path d="M362.644 47.4733L372.784 35.7673L370.461 33.7554L360.321 45.4614L362.644 47.4733Z" fill="#7C7C7C"/>
</g>
<path d="M305.555 78.0501C304.88 79.4326 305.454 81.1001 306.836 81.7747C308.219 82.4493 309.886 81.8754 310.561 80.493L320.488 60.1487C321.162 58.7663 320.589 57.0988 319.206 56.4242C317.824 55.7496 316.156 56.3235 315.482 57.7059L305.555 78.0501Z" fill="#7C7C7C"/>
<mask id="mask4_5313_1494" style="mask-type:luminance" maskUnits="userSpaceOnUse" x="305" y="56" width="16" height="27">
<path d="M305.555 78.0501C304.88 79.4326 305.454 81.1001 306.836 81.7747C308.219 82.4493 309.886 81.8754 310.561 80.493L320.488 60.1487C321.162 58.7663 320.589 57.0988 319.206 56.4242C317.824 55.7496 316.156 56.3235 315.482 57.7059L305.555 78.0501Z" fill="white"/>
</mask>
<g mask="url(#mask4_5313_1494)">
<path opacity="0.5" d="M309.674 58.2272L323.417 64.9329L324.746 62.2097L311.003 55.504L309.674 58.2272Z" fill="black"/>
<path opacity="0.5" d="M306.98 63.7546L320.722 70.4602L322.051 67.737L308.308 61.0314L306.98 63.7546Z" fill="black"/>
<path opacity="0.5" d="M304.282 69.2935L318.025 75.9991L319.353 73.2759L305.611 66.5703L304.282 69.2935Z" fill="black"/>
<path opacity="0.5" d="M301.576 74.8182L315.318 81.5238L316.647 78.8006L302.904 72.095L301.576 74.8182Z" fill="black"/>
</g>
<path d="M292.578 87.6764C291.904 89.0588 292.478 90.7263 293.86 91.4009C295.243 92.0755 296.91 91.5016 297.585 90.1192L307.512 69.775C308.186 68.3925 307.612 66.725 306.23 66.0504C304.847 65.3758 303.18 65.9497 302.505 67.3321L292.578 87.6764Z" fill="#7C7C7C"/>
<mask id="mask5_5313_1494" style="mask-type:luminance" maskUnits="userSpaceOnUse" x="292" y="65" width="16" height="27">
<path d="M292.578 87.6764C291.904 89.0588 292.478 90.7263 293.86 91.4009C295.243 92.0755 296.91 91.5016 297.585 90.1192L307.512 69.775C308.186 68.3925 307.612 66.725 306.23 66.0504C304.847 65.3758 303.18 65.9497 302.505 67.3321L292.578 87.6764Z" fill="white"/>
</mask>
<g mask="url(#mask5_5313_1494)">
<path opacity="0.5" d="M296.698 67.8473L310.441 74.553L311.77 71.8298L298.027 65.1241L296.698 67.8473Z" fill="black"/>
<path opacity="0.5" d="M294.001 73.3863L307.743 80.0919L309.072 77.3687L295.329 70.6631L294.001 73.3863Z" fill="black"/>
<path opacity="0.5" d="M291.3 78.9136L305.042 85.6193L306.371 82.8961L292.628 76.1904L291.3 78.9136Z" fill="black"/>
<path opacity="0.5" d="M288.602 84.4465L302.345 91.1521L303.673 88.4289L289.931 81.7233L288.602 84.4465Z" fill="black"/>
</g>
<path d="M284.91 88.2408C284.236 89.6233 284.81 91.2908 286.192 91.9654C287.575 92.6399 289.242 92.0661 289.917 90.6836L299.844 70.3394C300.518 68.957 299.944 67.2894 298.562 66.6149C297.179 65.9403 295.512 66.5142 294.837 67.8966L284.91 88.2408Z" fill="#7C7C7C"/>
<mask id="mask6_5313_1494" style="mask-type:luminance" maskUnits="userSpaceOnUse" x="284" y="66" width="17" height="27">
<path d="M284.91 88.2408C284.236 89.6233 284.81 91.2908 286.192 91.9654C287.575 92.6399 289.242 92.0661 289.917 90.6836L299.844 70.3394C300.518 68.957 299.944 67.2894 298.562 66.6149C297.179 65.9403 295.512 66.5142 294.837 67.8966L284.91 88.2408Z" fill="white"/>
</mask>
<g mask="url(#mask6_5313_1494)">
<path opacity="0.5" d="M289.027 68.4174L302.77 75.123L304.099 72.3998L290.356 65.6942L289.027 68.4174Z" fill="black"/>
<path opacity="0.5" d="M286.327 73.9482L300.07 80.6538L301.398 77.9306L287.656 71.225L286.327 73.9482Z" fill="black"/>
<path opacity="0.5" d="M283.632 79.4755L297.375 86.1812L298.704 83.458L284.961 76.7523L283.632 79.4755Z" fill="black"/>
<path opacity="0.5" d="M280.06 83.7707L293.802 90.4763L295.131 87.7531L281.388 81.0475L280.06 83.7707Z" fill="black"/>
</g>
<path fill-rule="evenodd" clip-rule="evenodd" d="M293.568 69.4199C290.575 68.7649 287.483 69.9464 285.69 72.4317C281.503 78.2409 273.967 89.5471 269.217 101.661C266.475 108.664 264.51 115.814 263.206 121.372C262.018 126.447 266.132 131.197 271.329 130.762L289.234 129.257C291.67 129.055 293.862 127.702 295.135 125.614L319.657 85.5804C322.418 81.0812 319.915 75.2047 314.754 74.0722L293.556 69.4199H293.568Z" fill="url(#paint3_linear_5313_1494)"/>
<path fill-rule="evenodd" clip-rule="evenodd" d="M282.905 76.4289C283.933 74.9108 284.876 73.5702 285.69 72.4378C287.483 69.9525 290.575 68.771 293.568 69.426L314.766 74.0783C319.921 75.2108 322.424 81.0873 319.67 85.5865L315.121 93.0057L311.908 92.4792C310.151 92.1915 309.196 90.2633 310.022 88.6901L311.608 85.6906C312.422 84.1541 311.528 82.2687 309.826 81.9198L282.911 76.435L282.905 76.4289Z" fill="black"/>
<path d="M316.273 91.4566L313.737 90.2191L321.863 73.5663C322.545 72.1689 324.239 71.5858 325.636 72.2677C327.034 72.9495 327.617 74.644 326.935 76.0413L320.047 90.1579C319.365 91.5553 317.671 92.1384 316.273 91.4566Z" fill="#7C7C7C"/>
<mask id="mask7_5313_1494" style="mask-type:luminance" maskUnits="userSpaceOnUse" x="313" y="71" width="15" height="21">
<path d="M316.273 91.4566L313.737 90.2191L321.863 73.5663C322.545 72.1689 324.239 71.5858 325.636 72.2677C327.034 72.9495 327.617 74.644 326.935 76.0413L320.047 90.1579C319.365 91.5553 317.671 92.1384 316.273 91.4566Z" fill="white"/>
</mask>
<g mask="url(#mask7_5313_1494)">
<path opacity="0.5" d="M315.986 74.094L329.905 80.8855L331.252 78.1238L317.334 71.3322L315.986 74.094Z" fill="black"/>
<path opacity="0.5" d="M313.244 79.6966L327.163 86.4882L328.51 83.7265L314.592 76.9349L313.244 79.6966Z" fill="black"/>
<path opacity="0.5" d="M310.514 85.302L324.433 92.0935L325.78 89.3318L311.862 82.5402L310.514 85.302Z" fill="black"/>
<path d="M307.784 90.9073L321.702 97.6989L323.05 94.9372L309.131 88.1456L307.784 90.9073Z" fill="#7C7C7C"/>
</g>
<path fill-rule="evenodd" clip-rule="evenodd" d="M330.97 12.9316H328.038V9.47305C328.038 8.10797 326.93 7 325.565 7C324.199 7 323.091 8.10797 323.091 9.47305V12.9316H319.859C317.576 12.9316 315.721 14.7803 315.721 17.0697V20.865C315.721 21.3424 316.113 21.7342 316.591 21.7342H334.226C334.71 21.7342 335.096 21.3424 335.096 20.865V17.0697C335.096 14.7864 333.247 12.9316 330.957 12.9316H330.97ZM325.589 11.1075C324.72 11.1075 324.01 10.4035 324.01 9.52814C324.01 8.65278 324.714 7.94882 325.589 7.94882C326.464 7.94882 327.168 8.65278 327.168 9.52814C327.168 10.4035 326.464 11.1075 325.589 11.1075Z" fill="url(#paint4_linear_5313_1494)"/>
<path d="M333.504 16.3229H317.337C317.094 16.3229 316.897 16.5202 316.897 16.7636C316.897 17.007 317.094 17.2044 317.337 17.2044H333.504C333.747 17.2044 333.945 17.007 333.945 16.7636C333.945 16.5202 333.747 16.3229 333.504 16.3229Z" fill="#7C7C7C"/>
<path d="M333.504 17.9941H317.337C317.094 17.9941 316.897 18.1915 316.897 18.4349C316.897 18.6783 317.094 18.8756 317.337 18.8756H333.504C333.747 18.8756 333.945 18.6783 333.945 18.4349C333.945 18.1915 333.747 17.9941 333.504 17.9941Z" fill="#7C7C7C"/>
<path d="M333.504 19.6591H317.337C317.094 19.6591 316.897 19.8564 316.897 20.0998C316.897 20.3432 317.094 20.5405 317.337 20.5405H333.504C333.747 20.5405 333.945 20.3432 333.945 20.0998C333.945 19.8564 333.747 19.6591 333.504 19.6591Z" fill="#7C7C7C"/>
</g>
<defs>
<linearGradient id="paint0_linear_5313_1494" x1="399.386" y1="93.7668" x2="345.947" y2="46.135" gradientUnits="userSpaceOnUse">
<stop stop-color="#F6EAFF"/>
<stop offset="0.72" stop-color="#E5C4FF"/>
<stop offset="1" stop-color="#DEB4FF"/>
</linearGradient>
<linearGradient id="paint1_linear_5313_1494" x1="325.981" y1="15.4108" x2="325.981" y2="107.581" gradientUnits="userSpaceOnUse">
<stop stop-color="#E0B886"/>
<stop offset="0.84" stop-color="#CD8D25"/>
</linearGradient>
<linearGradient id="paint2_linear_5313_1494" x1="326.985" y1="18.9728" x2="320.435" y2="101.831" gradientUnits="userSpaceOnUse">
<stop/>
<stop offset="1" stop-color="#3D125F"/>
</linearGradient>
<linearGradient id="paint3_linear_5313_1494" x1="274.068" y1="133.314" x2="306.375" y2="69.4317" gradientUnits="userSpaceOnUse">
<stop stop-color="#F6EAFF"/>
<stop offset="0.72" stop-color="#E5C4FF"/>
<stop offset="1" stop-color="#DEB4FF"/>
</linearGradient>
<linearGradient id="paint4_linear_5313_1494" x1="325.418" y1="7" x2="325.418" y2="21.7342" gradientUnits="userSpaceOnUse">
<stop stop-color="#DBDBDB"/>
<stop offset="1" stop-color="#7C7C7C"/>
</linearGradient>
<clipPath id="clip0_5313_1494">
<rect width="374" height="96" fill="white"/>
</clipPath>
</defs>
</svg>
