<svg width="374" height="96" viewBox="0 0 374 96" fill="none" xmlns="http://www.w3.org/2000/svg">
<g clip-path="url(#clip0_5313_1307)">
<path d="M344.987 9H229.013C226.796 9 225 10.7965 225 13.0125V82.8433C225 85.0594 226.796 86.8559 229.013 86.8559H344.987C347.204 86.8559 349 85.0594 349 82.8433V13.0125C349 10.7965 347.204 9 344.987 9Z" fill="url(#paint0_linear_5313_1307)" stroke="#D7F5FF" stroke-width="0.706432" stroke-miterlimit="10"/>
<path d="M280.985 35.6255V38.6278" stroke="#D7F5FF" stroke-width="0.762947" stroke-miterlimit="10"/>
<path d="M280.985 69.4989V75.659C280.985 76.2524 281.465 76.7398 282.066 76.7398H286.283C288.614 76.7398 290.677 75.2351 291.391 73.0169L294.096 64.6175C294.93 62.039 297.19 60.1811 299.889 59.8773L323.865 57.1575C325.716 56.9456 327.496 56.3028 329.05 55.2855L335.486 51.0681C337.521 49.7329 337.506 46.7377 335.451 45.4308L328.98 41.2981C327.468 40.3303 325.751 39.7157 323.971 39.5109L299.938 36.6639C297.254 36.3461 295.008 34.4952 294.181 31.9238L291.398 23.2629C290.684 21.0447 288.621 19.54 286.29 19.54H282.073C281.479 19.54 280.992 20.0204 280.992 20.6209V26.781" stroke="#D7F5FF" stroke-width="0.762947" stroke-miterlimit="10"/>
<path d="M280.985 57.9841V60.6403" stroke="#D7F5FF" stroke-width="0.762947" stroke-miterlimit="10"/>
<path d="M276.499 39.5179C276.704 39.6168 276.937 39.6733 277.184 39.6733C277.432 39.6733 277.658 39.6168 277.87 39.5179V56.7478C277.658 56.6489 277.432 56.5924 277.184 56.5924C276.937 56.5924 276.711 56.6489 276.499 56.7478V39.5179ZM278.251 38.6278C278.032 39.0658 277.608 39.2919 277.184 39.2919C276.76 39.2919 276.337 39.0729 276.125 38.6278V57.6308C276.344 57.1928 276.767 56.9668 277.184 56.9668C277.601 56.9668 278.032 57.1858 278.244 57.6308V38.6278H278.251Z" fill="#D7F5FF"/>
<path d="M276.125 57.6308V38.6278H270.268V57.6308H276.125Z" stroke="#D7F5FF" stroke-width="0.381473" stroke-miterlimit="10"/>
<path d="M288.918 57.6308V38.6278H278.251V57.6308H288.918Z" stroke="#D7F5FF" stroke-width="0.381473" stroke-miterlimit="10"/>
<path opacity="0.5" d="M288.918 41.8633V39.7299H278.251V41.8633H288.918Z" stroke="#D7F5FF" stroke-width="0.381473" stroke-miterlimit="10"/>
<path opacity="0.5" d="M288.918 45.5297V43.3962H278.251V45.5297H288.918Z" stroke="#D7F5FF" stroke-width="0.381473" stroke-miterlimit="10"/>
<path opacity="0.5" d="M288.911 49.2031V47.0697H278.244V49.2031H288.911Z" stroke="#D7F5FF" stroke-width="0.381473" stroke-miterlimit="10"/>
<path opacity="0.5" d="M288.918 52.8695V50.7361H278.251V52.8695H288.918Z" stroke="#D7F5FF" stroke-width="0.381473" stroke-miterlimit="10"/>
<path opacity="0.5" d="M288.911 56.543V54.4095H278.244V56.543H288.911Z" stroke="#D7F5FF" stroke-width="0.381473" stroke-miterlimit="10"/>
<path opacity="0.5" d="M276.125 41.8562V39.7228H270.268V41.8562H276.125Z" stroke="#D7F5FF" stroke-width="0.381473" stroke-miterlimit="10"/>
<path opacity="0.5" d="M276.118 45.5297V43.3962H270.261V45.5297H276.118Z" stroke="#D7F5FF" stroke-width="0.381473" stroke-miterlimit="10"/>
<path opacity="0.5" d="M276.125 49.196V47.0626H270.268V49.196H276.125Z" stroke="#D7F5FF" stroke-width="0.381473" stroke-miterlimit="10"/>
<path opacity="0.5" d="M276.118 52.8695V50.7361H270.261V52.8695H276.118Z" stroke="#D7F5FF" stroke-width="0.381473" stroke-miterlimit="10"/>
<path opacity="0.5" d="M276.125 56.5359V54.4025H270.268V56.5359H276.125Z" stroke="#D7F5FF" stroke-width="0.381473" stroke-miterlimit="10"/>
<path d="M288.911 29.8044V32.5806C288.911 34.2619 287.548 35.6254 285.866 35.6254H276.209V26.7596H285.866C287.548 26.7596 288.911 28.1231 288.911 29.8044Z" stroke="#D7F5FF" stroke-width="0.762947" stroke-miterlimit="10"/>
<path d="M278.95 35.6326V26.7668H276.209V35.6326H278.95Z" stroke="#D7F5FF" stroke-width="0.762947" stroke-miterlimit="10"/>
<path opacity="0.5" d="M278.957 28.2715V27.2754H276.216V28.2715H278.957Z" stroke="#D7F5FF" stroke-width="0.381473" stroke-miterlimit="10"/>
<path opacity="0.5" d="M278.957 29.9881V28.9921H276.216V29.9881H278.957Z" stroke="#D7F5FF" stroke-width="0.381473" stroke-miterlimit="10"/>
<path opacity="0.5" d="M278.957 31.7048V30.7087H276.216V31.7048H278.957Z" stroke="#D7F5FF" stroke-width="0.381473" stroke-miterlimit="10"/>
<path opacity="0.5" d="M278.957 33.4284V32.4324H276.216V33.4284H278.957Z" stroke="#D7F5FF" stroke-width="0.381473" stroke-miterlimit="10"/>
<path opacity="0.5" d="M278.95 35.1451V34.149H276.209V35.1451H278.95Z" stroke="#D7F5FF" stroke-width="0.381473" stroke-miterlimit="10"/>
<path d="M288.911 63.6779V66.4542C288.911 68.1355 287.548 69.4989 285.866 69.4989H276.209V60.6332H285.866C287.548 60.6332 288.911 61.9966 288.911 63.6779Z" stroke="#D7F5FF" stroke-width="0.762947" stroke-miterlimit="10"/>
<path d="M278.957 69.506V60.6403H276.216V69.506H278.957Z" stroke="#D7F5FF" stroke-width="0.762947" stroke-miterlimit="10"/>
<path opacity="0.5" d="M278.957 62.145V61.1489H276.216V62.145H278.957Z" stroke="#D7F5FF" stroke-width="0.381473" stroke-miterlimit="10"/>
<path opacity="0.5" d="M278.957 63.8615V62.8655H276.216V63.8615H278.957Z" stroke="#D7F5FF" stroke-width="0.381473" stroke-miterlimit="10"/>
<path opacity="0.5" d="M278.957 65.5853V64.5892H276.216V65.5853H278.957Z" stroke="#D7F5FF" stroke-width="0.381473" stroke-miterlimit="10"/>
<path opacity="0.5" d="M278.95 67.3019V66.3058H276.209V67.3019H278.95Z" stroke="#D7F5FF" stroke-width="0.381473" stroke-miterlimit="10"/>
<path opacity="0.5" d="M278.957 69.0185V68.0225H276.216V69.0185H278.957Z" stroke="#D7F5FF" stroke-width="0.381473" stroke-miterlimit="10"/>
<path opacity="0.5" d="M294.011 57.6309L288.932 71.3922C288.381 72.8827 286.961 73.8717 285.379 73.8717H280.985" stroke="#D7F5FF" stroke-width="0.381473" stroke-miterlimit="10"/>
<path opacity="0.5" d="M322.205 42.6333L328.28 43.2762C329.015 43.3539 329.7 43.6647 330.244 44.1663L331.813 45.6144C333.282 46.9708 333.282 49.295 331.813 50.6584L330.287 52.0642C329.722 52.5869 328.987 52.9048 328.217 52.9613L322.65 53.2722" stroke="#D7F5FF" stroke-width="0.381473" stroke-miterlimit="10"/>
<path opacity="0.5" d="M280.985 22.938H285.464C287.011 22.938 288.395 23.8775 288.975 25.3045L294.372 38.642" stroke="#D7F5FF" stroke-width="0.381473" stroke-miterlimit="10"/>
<mask id="mask0_5313_1307" style="mask-type:luminance" maskUnits="userSpaceOnUse" x="288" y="38" width="41" height="20">
<path d="M322.657 53.2721L327.284 50.616C329.206 49.5139 329.206 46.7447 327.284 45.6427L322.657 42.9865C321.357 42.2377 319.909 41.7785 318.419 41.6231L296.646 38.8327C295.566 38.6914 294.478 38.6278 293.39 38.6278H288.911V57.6308H293.39C294.478 57.6308 295.566 57.5602 296.639 57.426L318.412 54.6356C319.902 54.4872 321.35 54.021 322.65 53.2721H322.657Z" fill="white"/>
</mask>
<g mask="url(#mask0_5313_1307)">
<path d="M306.664 56.1403L309.348 54.2471C310.627 53.3428 312.138 52.8201 313.707 52.7282L316.977 52.5446C318.567 52.4527 319.817 51.1388 319.817 49.5422V46.6459C319.817 45.0352 318.553 43.7142 316.942 43.6435L313.77 43.5022C312.167 43.4316 310.62 42.9018 309.313 41.9763L306.678 40.1184L329.63 37.6106V58.6411L306.678 56.1403H306.664Z" stroke="#D7F5FF" stroke-width="0.381473" stroke-miterlimit="10"/>
</g>
<path d="M322.657 53.2721L327.284 50.616C329.206 49.5139 329.206 46.7447 327.284 45.6427L322.657 42.9865C321.357 42.2377 319.909 41.7785 318.419 41.6231L296.646 38.8327C295.566 38.6914 294.478 38.6278 293.39 38.6278H288.911V57.6308H293.39C294.478 57.6308 295.566 57.5602 296.639 57.426L318.412 54.6356C319.902 54.4872 321.35 54.021 322.65 53.2721H322.657Z" stroke="#D7F5FF" stroke-width="0.762947" stroke-miterlimit="10"/>
<path opacity="0.2" d="M349 20.5431V19.5258H338.573V9H337.556V19.5258H327.185V9H326.168V19.5258H315.798V9H314.78V19.5258H304.41V9H303.393V19.5258H293.022V9H292.005V19.5258H281.635V9H280.617V19.5258H270.247V9H269.23V19.5258H258.859V9H257.842V19.5258H247.472V9H246.454V19.5258H236.084V9H235.067V19.5258H225V20.5431H235.06V30.7581H225V31.7754H235.06V41.9904H225V43.0076H235.06V53.2226H225V54.2399H235.06V64.4549H225V65.4722H235.06V75.6872H225V76.7044H235.06V86.8206H236.077V76.7044H246.447V86.8206H247.465V76.7044H257.835V86.8206H258.852V76.7044H269.223V86.8206H270.24V76.7044H280.61V86.8206H281.628V76.7044H291.998V86.8206H293.015V76.7044H303.386V86.8206H304.403V76.7044H314.773V86.8206H315.791V76.7044H326.161V86.8206H327.178V76.7044H337.549V86.8206H338.566V76.7044H348.993V75.6872H338.566V65.4722H348.993V64.4549H338.566V54.2399H348.993V53.2226H338.566V43.0076H348.993V41.9904H338.566V31.7754H348.993V30.7581H338.566V20.5431H348.993H349ZM246.447 75.7154H236.077V65.5004H246.447V75.7154ZM246.447 64.4761H236.077V54.2611H246.447V64.4761ZM246.447 53.2368H236.077V43.0218H246.447V53.2368ZM246.447 42.0045H236.077V31.7895H246.447V42.0045ZM246.447 30.7652H236.077V20.5502H246.447V30.7652ZM257.835 75.7154H247.465V65.5004H257.835V75.7154ZM257.835 64.4761H247.465V54.2611H257.835V64.4761ZM257.835 53.2368H247.465V43.0218H257.835V53.2368ZM257.835 42.0045H247.465V31.7895H257.835V42.0045ZM257.835 30.7652H247.465V20.5502H257.835V30.7652ZM269.223 75.7154H258.852V65.5004H269.223V75.7154ZM269.223 64.4761H258.852V54.2611H269.223V64.4761ZM269.223 53.2368H258.852V43.0218H269.223V53.2368ZM269.223 42.0045H258.852V31.7895H269.223V42.0045ZM269.223 30.7652H258.852V20.5502H269.223V30.7652ZM315.798 20.5431H326.168V30.7581H315.798V20.5431ZM304.41 20.5431H314.78V30.7581H304.41V20.5431ZM314.78 75.7154H304.41V65.5004H314.78V75.7154ZM326.168 75.7154H315.798V65.5004H326.168V75.7154ZM337.556 75.7154H327.185V65.5004H337.556V75.7154ZM337.556 42.0045H329.34L330.937 43.0218H337.556V53.2368H331.473L329.919 54.254H337.563V64.469H327.192V55.9353C326.86 56.0978 326.521 56.2462 326.175 56.3804V64.469H315.805V57.9345L314.787 58.0476V64.462H304.417V59.2202L303.4 59.3333V64.4549H293.799V64.469L293.474 65.4722H303.407V75.6872H293.036V66.8285L292.019 70.0004V75.6872H288.826C288.014 76.1887 287.067 76.4784 286.064 76.4784H281.889C281.296 76.4784 280.815 75.998 280.815 75.4046V69.301H280.632V75.6801H270.261V65.4651H276.089V64.4478H270.261V57.546H270.198V56.4652V54.3529V52.827V50.7148V49.1889V47.0767V45.5508V43.4386V41.9127V39.8004V38.7125H270.261V31.7542H276.089V30.7369H270.261V20.5219H280.632V26.9575H280.815V20.8539C280.815 20.2605 281.296 19.7802 281.889 19.7802H286.064C287.032 19.7802 287.943 20.0557 288.734 20.5148H292.019V26.2511L293.036 29.4229V20.5148H303.407V30.7298H293.46L293.785 31.7471H303.407V37.1937L304.424 37.3138V31.7471H314.795V38.543L315.812 38.6631V31.7471H326.182V40.2455C326.528 40.3797 326.867 40.5139 327.2 40.6764V31.7471H337.57V41.9621L337.556 42.0045ZM337.556 30.7652H327.185V20.5502H337.556V30.7652Z" fill="#D7F5FF"/>
<path opacity="0.2" d="M280.794 57.5743H280.61V60.5484H280.794V57.5743Z" fill="#D7F5FF"/>
<path opacity="0.2" d="M280.794 35.7667H280.61V38.7408H280.794V35.7667Z" fill="#D7F5FF"/>
<path d="M265.147 19.8296H235.06V26.0462H265.147V19.8296Z" fill="#D7F5FF"/>
<path d="M252.65 29.3241H235.06V35.5407H252.65V29.3241Z" fill="#D7F5FF"/>
<path d="M257.418 42.4213H236.501C235.705 42.4213 235.06 43.0665 235.06 43.8624C235.06 44.6583 235.705 45.3035 236.501 45.3035H257.418C258.214 45.3035 258.86 44.6583 258.86 43.8624C258.86 43.0665 258.214 42.4213 257.418 42.4213Z" fill="#D7F5FF"/>
<path d="M252.629 52.4597H236.501C235.705 52.4597 235.06 53.1049 235.06 53.9008C235.06 54.6967 235.705 55.342 236.501 55.342H252.629C253.425 55.342 254.07 54.6967 254.07 53.9008C254.07 53.1049 253.425 52.4597 252.629 52.4597Z" fill="#D7F5FF"/>
<path d="M248.609 47.437H236.501C235.705 47.437 235.06 48.0822 235.06 48.8781C235.06 49.674 235.705 50.3193 236.501 50.3193H248.609C249.405 50.3193 250.05 49.674 250.05 48.8781C250.05 48.0822 249.405 47.437 248.609 47.437Z" fill="#D7F5FF"/>
<path d="M257.418 65.5499H236.501C235.705 65.5499 235.06 66.1951 235.06 66.991C235.06 67.787 235.705 68.4322 236.501 68.4322H257.418C258.214 68.4322 258.86 67.787 258.86 66.991C258.86 66.1951 258.214 65.5499 257.418 65.5499Z" fill="#D7F5FF"/>
<path d="M248.609 70.5656H236.501C235.705 70.5656 235.06 71.2108 235.06 72.0067C235.06 72.8026 235.705 73.4478 236.501 73.4478H248.609C249.405 73.4478 250.05 72.8026 250.05 72.0067C250.05 71.2108 249.405 70.5656 248.609 70.5656Z" fill="#D7F5FF"/>
<path fill-rule="evenodd" clip-rule="evenodd" d="M320.572 74.601L324.938 86.462L334.199 83.0499L332.313 77.9283L331.953 72.1991C331.918 71.6622 331.374 71.309 330.872 71.4927L330.053 71.7964L329.749 70.9699L328.781 68.342L328.421 67.353C328.004 66.2156 327.227 65.05 326.188 64.0751C323.801 61.8216 320.205 61.3977 317.245 62.8318C316.793 63.0508 316.355 63.3192 315.995 63.6795C314.553 65.1418 313.183 67.2329 314.589 69.9385C315.571 71.8247 317.231 73.068 320.565 74.601H320.572Z" fill="url(#paint1_linear_5313_1307)"/>
<path d="M323.229 84.4698L334.821 80.2029C336.312 79.6519 337.965 80.4149 338.516 81.9054L343.03 94.162C344.754 98.8527 342.352 104.052 337.661 105.783C332.97 107.507 327.771 105.105 326.04 100.414L321.526 88.1574C320.975 86.6668 321.738 85.0137 323.229 84.4627V84.4698Z" fill="url(#paint2_linear_5313_1307)"/>
<mask id="mask1_5313_1307" style="mask-type:luminance" maskUnits="userSpaceOnUse" x="321" y="80" width="23" height="27">
<path d="M323.229 84.4698L334.821 80.2029C336.312 79.6519 337.965 80.4149 338.516 81.9054L343.03 94.162C344.754 98.8527 342.352 104.052 337.661 105.783C332.97 107.507 327.771 105.105 326.04 100.414L321.526 88.1574C320.975 86.6668 321.738 85.0137 323.229 84.4627V84.4698Z" fill="white"/>
</mask>
<g mask="url(#mask1_5313_1307)">
<path d="M315.021 96.1938L345.795 84.8652L341.992 74.5367L311.219 85.8652L315.021 96.1938Z" fill="black"/>
</g>
<path fill-rule="evenodd" clip-rule="evenodd" d="M267.022 83.6008L262.657 95.4618L253.395 92.0498L255.282 86.9281L255.642 81.199C255.677 80.6621 256.221 80.3089 256.723 80.4925L257.542 80.7963L257.846 79.9698L258.814 77.3419L259.174 76.3528C259.591 75.2155 260.368 74.0499 261.406 73.075C263.794 70.8215 267.39 70.3976 270.35 71.8317C270.802 72.0507 271.24 72.3191 271.6 72.6794C273.041 74.1417 274.412 76.2328 273.006 78.9384C272.024 80.8246 270.364 82.0679 267.03 83.6008H267.022Z" fill="url(#paint3_linear_5313_1307)"/>
<path d="M264.359 93.4698L252.767 89.2029C251.276 88.6519 249.623 89.4149 249.072 90.9054L244.558 103.162C242.834 107.853 245.236 113.052 249.927 114.783C254.618 116.507 259.817 114.105 261.548 109.414L266.062 97.1574C266.613 95.6668 265.85 94.0137 264.359 93.4627V93.4698Z" fill="url(#paint4_linear_5313_1307)"/>
<mask id="mask2_5313_1307" style="mask-type:luminance" maskUnits="userSpaceOnUse" x="244" y="89" width="23" height="27">
<path d="M264.359 93.4698L252.767 89.2029C251.276 88.6519 249.623 89.4149 249.072 90.9054L244.558 103.162C242.834 107.853 245.236 113.052 249.927 114.783C254.618 116.507 259.817 114.105 261.548 109.414L266.062 97.1574C266.613 95.6668 265.85 94.0137 264.359 93.4627V93.4698Z" fill="white"/>
</mask>
<g mask="url(#mask2_5313_1307)">
<path d="M276.384 94.8723L245.61 83.5437L241.808 93.8723L272.582 105.201L276.384 94.8723Z" fill="black"/>
</g>
<path d="M324.826 25.6506H328.669C328.669 27.7558 326.938 29.4936 324.826 29.4936C322.714 29.4936 320.983 27.7628 320.983 25.6506C320.983 23.5384 322.714 21.8076 324.826 21.8076C325.483 21.8076 326.126 21.9772 326.698 22.2951L324.826 25.6506Z" fill="#D7F5FF"/>
<path d="M335.119 25.6506L336.143 21.9489C337.803 22.4081 338.955 23.9269 338.955 25.6506C338.955 27.7558 337.224 29.4936 335.112 29.4936C332.999 29.4936 331.269 27.7629 331.269 25.6506C331.269 23.7927 332.618 22.1891 334.447 21.8712L335.104 25.6506H335.119Z" fill="#D7F5FF"/>
</g>
<defs>
<linearGradient id="paint0_linear_5313_1307" x1="255.377" y1="-6.84527" x2="318.623" y2="102.701" gradientUnits="userSpaceOnUse">
<stop stop-color="#88E3FF"/>
<stop offset="1" stop-color="#005FBE"/>
</linearGradient>
<linearGradient id="paint1_linear_5313_1307" x1="326.27" y1="62.8153" x2="322.273" y2="86.0044" gradientUnits="userSpaceOnUse">
<stop offset="0.27" stop-color="#FFA933"/>
<stop offset="0.48" stop-color="#FF9F2E"/>
<stop offset="0.83" stop-color="#FF8623"/>
<stop offset="1" stop-color="#FF781D"/>
</linearGradient>
<linearGradient id="paint2_linear_5313_1307" x1="329.048" y1="82.3436" x2="337.679" y2="105.792" gradientUnits="userSpaceOnUse">
<stop offset="0.28" stop-color="#88E3FF"/>
<stop offset="0.3" stop-color="#90E5FF"/>
<stop offset="0.38" stop-color="#AAEAFF"/>
<stop offset="0.45" stop-color="#BEEFFF"/>
<stop offset="0.54" stop-color="#CCF2FF"/>
<stop offset="0.66" stop-color="#D4F4FF"/>
<stop offset="0.85" stop-color="#D7F5FF"/>
</linearGradient>
<linearGradient id="paint3_linear_5313_1307" x1="261.323" y1="71.8191" x2="265.329" y2="95.0041" gradientUnits="userSpaceOnUse">
<stop offset="0.27" stop-color="#FFA933"/>
<stop offset="0.48" stop-color="#FF9F2E"/>
<stop offset="0.83" stop-color="#FF8623"/>
<stop offset="1" stop-color="#FF781D"/>
</linearGradient>
<linearGradient id="paint4_linear_5313_1307" x1="258.546" y1="91.3476" x2="249.914" y2="114.796" gradientUnits="userSpaceOnUse">
<stop offset="0.28" stop-color="#88E3FF"/>
<stop offset="0.3" stop-color="#90E5FF"/>
<stop offset="0.38" stop-color="#AAEAFF"/>
<stop offset="0.45" stop-color="#BEEFFF"/>
<stop offset="0.54" stop-color="#CCF2FF"/>
<stop offset="0.66" stop-color="#D4F4FF"/>
<stop offset="0.85" stop-color="#D7F5FF"/>
</linearGradient>
<clipPath id="clip0_5313_1307">
<rect width="374" height="96" fill="white"/>
</clipPath>
</defs>
</svg>
