<svg width="374" height="96" viewBox="0 0 374 96" fill="none" xmlns="http://www.w3.org/2000/svg">
<g clip-path="url(#clip0_9717_317)">
<path d="M357.344 71.456L362.734 71.5395C364.522 71.5673 365.959 73.0265 365.959 74.8142C365.959 76.6242 367.424 78.0889 369.234 78.0889H375.855" stroke="#DBFFFD" stroke-width="2.65103" stroke-miterlimit="10"/>
<path d="M288.564 16.5995V15.2907C288.564 12.3669 290.931 10 293.855 10C296.779 10 299.145 12.3669 299.145 15.2907V16.5995" stroke="#DBFFFD" stroke-width="2.65103" stroke-miterlimit="10"/>
<path d="M285.133 15.8478V19.1782C285.133 19.7626 285.607 20.2364 286.192 20.2364H290.931C291.515 20.2364 291.989 19.7626 291.989 19.1782V15.8478C291.989 15.2634 291.515 14.7897 290.931 14.7897H286.192C285.607 14.7897 285.133 15.2634 285.133 15.8478Z" fill="url(#paint0_linear_9717_317)"/>
<path d="M295.709 15.8478V19.1782C295.709 19.7626 296.183 20.2364 296.767 20.2364H301.507C302.091 20.2364 302.565 19.7626 302.565 19.1782V15.8478C302.565 15.2634 302.091 14.7897 301.507 14.7897H296.767C296.183 14.7897 295.709 15.2634 295.709 15.8478Z" fill="url(#paint1_linear_9717_317)"/>
<path d="M357.978 66.5775H354.648C354.063 66.5775 353.59 67.0512 353.59 67.6356V75.3489C353.59 75.9333 354.063 76.4071 354.648 76.4071H357.978C358.563 76.4071 359.036 75.9333 359.036 75.3489V67.6356C359.036 67.0512 358.563 66.5775 357.978 66.5775Z" fill="url(#paint2_linear_9717_317)"/>
<path d="M276 23.728V78.0108C276 80.8375 278.291 83.1289 281.118 83.1289H350.36C353.186 83.1289 355.478 80.8375 355.478 78.0108V23.728C355.478 20.9014 353.186 18.6099 350.36 18.6099H281.118C278.291 18.6099 276 20.9014 276 23.728Z" fill="url(#paint3_linear_9717_317)"/>
<path d="M281.502 26.9748L281.502 47.9981C281.502 49.8374 282.993 51.3284 284.833 51.3284H332.622C334.461 51.3284 335.952 49.8374 335.952 47.9981L335.952 26.9748C335.952 25.1355 334.461 23.6444 332.622 23.6444L284.833 23.6444C282.993 23.6444 281.502 25.1355 281.502 26.9748Z" fill="url(#paint4_linear_9717_317)"/>
<path opacity="0.4" d="M339.661 26.4179V75.3209C339.661 76.8526 340.903 78.0943 342.435 78.0943H348.633C350.165 78.0943 351.407 76.8526 351.407 75.3209V26.4179C351.407 24.8862 350.165 23.6444 348.633 23.6444H342.435C340.903 23.6444 339.661 24.8862 339.661 26.4179Z" stroke="#6A3C98" stroke-width="0.556918" stroke-miterlimit="10"/>
<g opacity="0.6">
<path d="M343.582 74.5579C344.019 74.5579 344.373 74.2038 344.373 73.7671C344.373 73.3303 344.019 72.9763 343.582 72.9763C343.145 72.9763 342.791 73.3303 342.791 73.7671C342.791 74.2038 343.145 74.5579 343.582 74.5579Z" fill="#6A3C98"/>
<path d="M343.582 71.5895C344.019 71.5895 344.373 71.2355 344.373 70.7987C344.373 70.3619 344.019 70.0079 343.582 70.0079C343.145 70.0079 342.791 70.3619 342.791 70.7987C342.791 71.2355 343.145 71.5895 343.582 71.5895Z" fill="#6A3C98"/>
<path d="M343.582 68.6212C344.019 68.6212 344.373 68.2671 344.373 67.8304C344.373 67.3936 344.019 67.0396 343.582 67.0396C343.145 67.0396 342.791 67.3936 342.791 67.8304C342.791 68.2671 343.145 68.6212 343.582 68.6212Z" fill="#6A3C98"/>
<path d="M343.582 65.6528C344.019 65.6528 344.373 65.2987 344.373 64.862C344.373 64.4252 344.019 64.0711 343.582 64.0711C343.145 64.0711 342.791 64.4252 342.791 64.862C342.791 65.2987 343.145 65.6528 343.582 65.6528Z" fill="#6A3C98"/>
<path d="M347.486 74.5579C347.923 74.5579 348.277 74.2038 348.277 73.7671C348.277 73.3303 347.923 72.9763 347.486 72.9763C347.049 72.9763 346.695 73.3303 346.695 73.7671C346.695 74.2038 347.049 74.5579 347.486 74.5579Z" fill="#6A3C98"/>
<path d="M347.486 71.5895C347.923 71.5895 348.277 71.2355 348.277 70.7987C348.277 70.3619 347.923 70.0079 347.486 70.0079C347.049 70.0079 346.695 70.3619 346.695 70.7987C346.695 71.2355 347.049 71.5895 347.486 71.5895Z" fill="#6A3C98"/>
<path d="M347.486 68.6212C347.923 68.6212 348.277 68.2671 348.277 67.8304C348.277 67.3936 347.923 67.0396 347.486 67.0396C347.049 67.0396 346.695 67.3936 346.695 67.8304C346.695 68.2671 347.049 68.6212 347.486 68.6212Z" fill="#6A3C98"/>
<path d="M347.486 65.6528C347.923 65.6528 348.277 65.2987 348.277 64.862C348.277 64.4252 347.923 64.0711 347.486 64.0711C347.049 64.0711 346.695 64.4252 346.695 64.862C346.695 65.2987 347.049 65.6528 347.486 65.6528Z" fill="#6A3C98"/>
<path d="M345.537 73.0375C345.973 73.0375 346.327 72.6835 346.327 72.2467C346.327 71.81 345.973 71.4559 345.537 71.4559C345.1 71.4559 344.746 71.81 344.746 72.2467C344.746 72.6835 345.1 73.0375 345.537 73.0375Z" fill="#6A3C98"/>
<path d="M345.537 70.0691C345.973 70.0691 346.327 69.7151 346.327 69.2783C346.327 68.8416 345.973 68.4875 345.537 68.4875C345.1 68.4875 344.746 68.8416 344.746 69.2783C344.746 69.7151 345.1 70.0691 345.537 70.0691Z" fill="#6A3C98"/>
<path d="M345.537 67.1008C345.973 67.1008 346.327 66.7467 346.327 66.3099C346.327 65.8732 345.973 65.5191 345.537 65.5191C345.1 65.5191 344.746 65.8732 344.746 66.3099C344.746 66.7467 345.1 67.1008 345.537 67.1008Z" fill="#6A3C98"/>
<path d="M345.537 64.1324C345.973 64.1324 346.327 63.7784 346.327 63.3416C346.327 62.9048 345.973 62.5508 345.537 62.5508C345.1 62.5508 344.746 62.9048 344.746 63.3416C344.746 63.7784 345.1 64.1324 345.537 64.1324Z" fill="#6A3C98"/>
<path d="M343.582 62.69C344.019 62.69 344.373 62.336 344.373 61.8992C344.373 61.4624 344.019 61.1084 343.582 61.1084C343.145 61.1084 342.791 61.4624 342.791 61.8992C342.791 62.336 343.145 62.69 343.582 62.69Z" fill="#6A3C98"/>
<path d="M347.486 62.69C347.923 62.69 348.277 62.336 348.277 61.8992C348.277 61.4624 347.923 61.1084 347.486 61.1084C347.049 61.1084 346.695 61.4624 346.695 61.8992C346.695 62.336 347.049 62.69 347.486 62.69Z" fill="#6A3C98"/>
<path d="M345.537 61.164C345.973 61.164 346.327 60.8099 346.327 60.3732C346.327 59.9364 345.973 59.5824 345.537 59.5824C345.1 59.5824 344.746 59.9364 344.746 60.3732C344.746 60.8099 345.1 61.164 345.537 61.164Z" fill="#6A3C98"/>
</g>
<path opacity="0.4" d="M342.257 56.5472H348.812" stroke="#6A3C98" stroke-width="0.556918" stroke-miterlimit="10"/>
<path opacity="0.4" d="M342.257 53.6512H348.812" stroke="#6A3C98" stroke-width="0.556918" stroke-miterlimit="10"/>
<path opacity="0.4" d="M342.257 50.7552H348.812" stroke="#6A3C98" stroke-width="0.556918" stroke-miterlimit="10"/>
<path opacity="0.4" d="M342.257 47.8593H348.812" stroke="#6A3C98" stroke-width="0.556918" stroke-miterlimit="10"/>
<path opacity="0.4" d="M342.257 44.9633H348.812" stroke="#6A3C98" stroke-width="0.556918" stroke-miterlimit="10"/>
<path d="M345.531 40.9256C347.045 40.9256 348.271 39.6989 348.271 38.1856C348.271 36.6723 347.045 35.4456 345.531 35.4456C344.018 35.4456 342.791 36.6723 342.791 38.1856C342.791 39.6989 344.018 40.9256 345.531 40.9256Z" fill="url(#paint5_radial_9717_317)"/>
<path d="M345.531 32.5774C347.045 32.5774 348.271 31.3506 348.271 29.8374C348.271 28.3241 347.045 27.0973 345.531 27.0973C344.018 27.0973 342.791 28.3241 342.791 29.8374C342.791 31.3506 344.018 32.5774 345.531 32.5774Z" fill="url(#paint6_radial_9717_317)"/>
<rect x="282.186" y="55.9511" width="52.1369" height="2.65103" rx="1.32551" fill="#9A70C1"/>
<rect x="282.186" y="63.9043" width="52.1369" height="2.65103" rx="1.32551" fill="#9A70C1"/>
<rect x="282.186" y="71.8573" width="52.1369" height="2.65103" rx="1.32551" fill="#9A70C1"/>
<circle cx="294.999" cy="65.2298" r="3.09287" fill="url(#paint7_linear_9717_317)"/>
<circle cx="311.789" cy="73.1828" r="3.09287" fill="url(#paint8_linear_9717_317)"/>
<circle cx="317.091" cy="57.2767" r="3.09287" fill="url(#paint9_linear_9717_317)"/>
<circle cx="294.999" cy="65.2298" r="2.20919" fill="url(#paint10_linear_9717_317)"/>
<circle cx="311.789" cy="73.1828" r="2.20919" fill="url(#paint11_linear_9717_317)"/>
<circle cx="317.091" cy="57.2767" r="2.20919" fill="url(#paint12_linear_9717_317)"/>
<path fill-rule="evenodd" clip-rule="evenodd" d="M318.038 79.4578L321.896 89.9391L330.08 86.9239L328.414 82.3981L328.095 77.3353C328.064 76.8609 327.583 76.5488 327.14 76.7111L326.416 76.9795L326.148 76.2491L325.292 73.9269L324.974 73.0529C324.606 72.0479 323.919 71.0178 323.001 70.1564C320.891 68.165 317.714 67.7904 315.098 69.0577C314.699 69.2512 314.312 69.4884 313.993 69.8068C312.72 71.099 311.509 72.9468 312.751 75.3377C313.619 77.0045 315.086 78.1032 318.032 79.4578H318.038Z" fill="url(#paint13_linear_9717_317)"/>
<path d="M320.386 88.1787L330.63 84.4082C331.947 83.9212 333.408 84.5954 333.895 85.9126L337.884 96.7435C339.407 100.889 337.284 105.483 333.139 107.013C328.994 108.536 324.4 106.413 322.87 102.268L318.881 91.4373C318.394 90.1201 319.068 88.6594 320.386 88.1724V88.1787Z" fill="url(#paint14_linear_9717_317)"/>
<mask id="mask0_9717_317" style="mask-type:luminance" maskUnits="userSpaceOnUse" x="318" y="84" width="21" height="24">
<path d="M320.386 88.1787L330.63 84.4082C331.947 83.9212 333.408 84.5954 333.895 85.9126L337.884 96.7435C339.407 100.889 337.284 105.483 333.139 107.013C328.994 108.536 324.4 106.413 322.87 102.268L318.881 91.4373C318.394 90.1201 319.068 88.6594 320.386 88.1724V88.1787Z" fill="white"/>
</mask>
<g mask="url(#mask0_9717_317)">
<path d="M313.133 98.5389L340.327 88.5281L336.967 79.401L309.773 89.4118L313.133 98.5389Z" fill="black"/>
</g>
<path d="M291.288 43.7564C290.64 43.6622 290.08 43.5149 289.609 43.3146C289.137 43.1143 288.743 42.9081 288.424 42.696C288.047 42.4486 287.735 42.1835 287.488 41.9007L289.255 40.1334C289.467 40.3808 289.721 40.6047 290.015 40.805C290.263 40.9699 290.563 41.1231 290.916 41.2645C291.282 41.3941 291.7 41.4589 292.171 41.4589C292.878 41.4589 293.391 41.3234 293.709 41.0524C294.039 40.7814 294.204 40.4456 294.204 40.045C294.204 39.6915 294.051 39.4146 293.744 39.2143C293.438 39.0023 293.055 38.8137 292.595 38.6488C292.136 38.4838 291.641 38.313 291.111 38.1363C290.581 37.9595 290.086 37.7298 289.626 37.447C289.167 37.1524 288.784 36.7813 288.478 36.3336C288.171 35.874 288.018 35.2849 288.018 34.5662C288.018 33.6825 288.307 32.9402 288.884 32.3393C289.461 31.7384 290.263 31.3025 291.288 31.0315V29.4409H293.585V31.0315C294.045 31.1022 294.463 31.2259 294.84 31.4026C295.229 31.5676 295.559 31.7443 295.83 31.9329C296.148 32.1449 296.431 32.3747 296.678 32.6221L294.911 34.3895C294.722 34.1892 294.516 34.0124 294.292 33.8593C294.092 33.7297 293.85 33.6118 293.567 33.5058C293.285 33.388 292.967 33.3291 292.613 33.3291C291.942 33.3291 291.464 33.4469 291.182 33.6825C290.899 33.9182 290.757 34.2127 290.757 34.5662C290.757 34.9197 290.911 35.2025 291.217 35.4145C291.523 35.6148 291.906 35.7975 292.366 35.9624C292.825 36.1274 293.32 36.2982 293.85 36.4749C294.38 36.6517 294.875 36.8873 295.335 37.1819C295.794 37.4647 296.177 37.8358 296.484 38.2953C296.79 38.743 296.943 39.3263 296.943 40.045C296.943 40.5045 296.861 40.9405 296.696 41.3528C296.531 41.7534 296.295 42.1128 295.989 42.4309C295.694 42.749 295.341 43.0259 294.928 43.2616C294.516 43.4854 294.068 43.6504 293.585 43.7564V45.3471H291.288V43.7564Z" fill="#DBFFFD"/>
<rect x="301.627" y="41.8123" width="2.65103" height="3.5347" fill="#DBFFFD"/>
<rect x="306.045" y="38.2776" width="2.65103" height="7.06941" fill="#DBFFFD"/>
<rect x="310.463" y="33.8593" width="2.65103" height="11.4878" fill="#DBFFFD"/>
<rect x="314.882" y="29.4409" width="2.65103" height="15.9062" fill="#DBFFFD"/>
<path d="M325.604 35.6266C325.604 35.6266 325.53 35.6266 325.486 35.6266C324.028 35.6266 322.835 34.4336 322.835 32.9756C322.835 31.5175 324.028 30.3246 325.486 30.3246C326.944 30.3246 328.137 31.5175 328.137 32.9756" stroke="url(#paint15_linear_9717_317)" stroke-width="1.76735" stroke-miterlimit="10"/>
<path d="M323.131 40.5888C323.131 40.5888 323.168 40.5251 323.19 40.4868C323.919 39.2241 325.548 38.7874 326.811 39.5165C328.074 40.2455 328.511 41.8751 327.782 43.1378C327.053 44.4006 325.423 44.8372 324.16 44.1082" stroke="url(#paint16_linear_9717_317)" stroke-width="1.76735" stroke-miterlimit="10"/>
</g>
<defs>
<linearGradient id="paint0_linear_9717_317" x1="288.564" y1="14.7897" x2="288.564" y2="20.2364" gradientUnits="userSpaceOnUse">
<stop stop-color="#F6EAFF"/>
<stop offset="0.87" stop-color="#DEB4FF"/>
</linearGradient>
<linearGradient id="paint1_linear_9717_317" x1="299.14" y1="9.39317" x2="299.14" y2="9.39317" gradientUnits="userSpaceOnUse">
<stop stop-color="#F6EAFF"/>
<stop offset="0.87" stop-color="#DEB4FF"/>
</linearGradient>
<linearGradient id="paint2_linear_9717_317" x1="356.313" y1="66.5775" x2="356.313" y2="76.4071" gradientUnits="userSpaceOnUse">
<stop stop-color="#F6EAFF"/>
<stop offset="0.4" stop-color="#EDD7FF"/>
<stop offset="1" stop-color="#DEB4FF"/>
</linearGradient>
<linearGradient id="paint3_linear_9717_317" x1="315.742" y1="18.6099" x2="315.742" y2="93.0309" gradientUnits="userSpaceOnUse">
<stop stop-color="#F6EAFF"/>
<stop offset="0.87" stop-color="#DEB4FF"/>
</linearGradient>
<linearGradient id="paint4_linear_9717_317" x1="282.477" y1="24.619" x2="334.972" y2="77.1197" gradientUnits="userSpaceOnUse">
<stop stop-color="#500E82"/>
<stop offset="0.22" stop-color="#490F76"/>
<stop offset="0.67" stop-color="#401165"/>
<stop offset="1" stop-color="#3D125F"/>
</linearGradient>
<radialGradient id="paint5_radial_9717_317" cx="0" cy="0" r="1" gradientUnits="userSpaceOnUse" gradientTransform="translate(345.888 35.685) scale(8.53756 8.53755)">
<stop stop-color="#FFA17F"/>
<stop offset="0.87" stop-color="#FF4400"/>
</radialGradient>
<radialGradient id="paint6_radial_9717_317" cx="0" cy="0" r="1" gradientUnits="userSpaceOnUse" gradientTransform="translate(345.888 27.3368) scale(8.53756 8.53755)">
<stop stop-color="#0FC382"/>
<stop offset="0.87" stop-color="#107557"/>
</radialGradient>
<linearGradient id="paint7_linear_9717_317" x1="293.232" y1="62.5787" x2="297.208" y2="67.439" gradientUnits="userSpaceOnUse">
<stop stop-color="white"/>
<stop offset="1" stop-color="#F6EAFF"/>
</linearGradient>
<linearGradient id="paint8_linear_9717_317" x1="310.022" y1="70.5318" x2="313.998" y2="75.392" gradientUnits="userSpaceOnUse">
<stop stop-color="white"/>
<stop offset="1" stop-color="#F6EAFF"/>
</linearGradient>
<linearGradient id="paint9_linear_9717_317" x1="315.324" y1="54.6256" x2="319.3" y2="59.4859" gradientUnits="userSpaceOnUse">
<stop stop-color="white"/>
<stop offset="1" stop-color="#F6EAFF"/>
</linearGradient>
<linearGradient id="paint10_linear_9717_317" x1="294.999" y1="63.0206" x2="294.999" y2="67.439" gradientUnits="userSpaceOnUse">
<stop stop-color="#6A3C98"/>
<stop offset="1" stop-color="#3D125F"/>
</linearGradient>
<linearGradient id="paint11_linear_9717_317" x1="311.789" y1="70.9736" x2="311.789" y2="75.392" gradientUnits="userSpaceOnUse">
<stop stop-color="#6A3C98"/>
<stop offset="1" stop-color="#3D125F"/>
</linearGradient>
<linearGradient id="paint12_linear_9717_317" x1="317.091" y1="55.0675" x2="317.091" y2="59.4859" gradientUnits="userSpaceOnUse">
<stop stop-color="#6A3C98"/>
<stop offset="1" stop-color="#3D125F"/>
</linearGradient>
<linearGradient id="paint13_linear_9717_317" x1="323.073" y1="69.0431" x2="319.541" y2="89.5348" gradientUnits="userSpaceOnUse">
<stop offset="0.27" stop-color="#FFA933"/>
<stop offset="0.48" stop-color="#FF9F2E"/>
<stop offset="0.83" stop-color="#FF8623"/>
<stop offset="1" stop-color="#FF781D"/>
</linearGradient>
<linearGradient id="paint14_linear_9717_317" x1="325.528" y1="86.2998" x2="333.156" y2="107.02" gradientUnits="userSpaceOnUse">
<stop offset="0.28" stop-color="#88E3FF"/>
<stop offset="0.3" stop-color="#90E5FF"/>
<stop offset="0.38" stop-color="#AAEAFF"/>
<stop offset="0.45" stop-color="#BEEFFF"/>
<stop offset="0.54" stop-color="#CCF2FF"/>
<stop offset="0.66" stop-color="#D4F4FF"/>
<stop offset="0.85" stop-color="#D7F5FF"/>
</linearGradient>
<linearGradient id="paint15_linear_9717_317" x1="323.718" y1="32.5337" x2="327.253" y2="32.5337" gradientUnits="userSpaceOnUse">
<stop offset="0.12" stop-color="#DBFFFD"/>
<stop offset="1" stop-color="#DBFFFD" stop-opacity="0"/>
</linearGradient>
<linearGradient id="paint16_linear_9717_317" x1="326.752" y1="40.5027" x2="324.985" y2="43.5638" gradientUnits="userSpaceOnUse">
<stop offset="0.12" stop-color="#DBFFFD"/>
<stop offset="1" stop-color="#DBFFFD" stop-opacity="0"/>
</linearGradient>
<clipPath id="clip0_9717_317">
<rect width="374" height="96" fill="white"/>
</clipPath>
</defs>
</svg>
