<svg width="374" height="96" viewBox="0 0 374 96" fill="none" xmlns="http://www.w3.org/2000/svg">
<g clip-path="url(#clip0_5313_158)">
<path d="M309.33 101.995C317.937 101.995 324.913 95.0184 324.913 86.4119C324.913 77.8055 317.937 70.8286 309.33 70.8286C300.724 70.8286 293.747 77.8055 293.747 86.4119C293.747 95.0184 300.724 101.995 309.33 101.995Z" fill="black"/>
<path d="M312.231 68.8081L300.972 68.4326C300.005 68.4004 299.195 69.1578 299.163 70.1243L298.112 101.641C298.08 102.608 298.837 103.417 299.804 103.45L311.063 103.825C312.03 103.857 312.84 103.1 312.872 102.133L313.923 70.6165C313.955 69.65 313.198 68.8403 312.231 68.8081Z" fill="black"/>
<path fill-rule="evenodd" clip-rule="evenodd" d="M341.84 122.072C344.854 120.313 346.302 116.739 345.35 113.389C342.28 102.563 337.49 72.4359 318.509 72.108C315.271 72.0521 314.983 88.9227 317.638 122.728C317.534 128.701 324.002 132.482 329.159 129.476L341.84 122.08V122.072Z" fill="url(#paint0_linear_5313_158)"/>
<path d="M226.952 101.995C235.558 101.995 242.535 95.0184 242.535 86.4119C242.535 77.8055 235.558 70.8286 226.952 70.8286C218.346 70.8286 211.369 77.8055 211.369 86.4119C211.369 95.0184 218.346 101.995 226.952 101.995Z" fill="black"/>
<path d="M225.222 103.826L236.481 103.451C237.448 103.419 238.205 102.609 238.173 101.643L237.122 70.1256C237.09 69.1591 236.28 68.4017 235.313 68.4339L224.054 68.8094C223.087 68.8416 222.33 69.6513 222.362 70.6178L223.413 102.135C223.445 103.101 224.255 103.859 225.222 103.826Z" fill="black"/>
<path fill-rule="evenodd" clip-rule="evenodd" d="M194.442 122.072C191.428 120.313 189.981 116.739 190.932 113.389C194.002 102.563 198.792 72.4359 217.773 72.108C221.011 72.0521 221.299 88.9227 218.645 122.728C218.749 128.701 212.28 132.482 207.123 129.476L194.442 122.08V122.072Z" fill="url(#paint1_linear_5313_158)"/>
<path fill-rule="evenodd" clip-rule="evenodd" d="M308.243 65.0079H228.271L231.342 49.2887H305.276L308.243 65.0079Z" fill="black"/>
<path fill-rule="evenodd" clip-rule="evenodd" d="M304.733 150.984H231.973C228.943 150.984 226.408 148.689 226.113 145.675C224.681 131.059 223.362 80.9189 224.529 66.1112C224.753 63.2648 227.232 61.1459 230.07 61.3618C244.566 62.4252 291.764 62.4252 306.22 61.3618C309.058 61.1539 311.537 63.2648 311.761 66.1112C312.952 80.9109 312.033 131.075 310.585 145.691C310.29 148.705 307.755 151 304.725 151L304.733 150.984Z" fill="url(#paint2_linear_5313_158)"/>
<path fill-rule="evenodd" clip-rule="evenodd" d="M304.733 150.984H231.973C228.943 150.984 226.408 148.689 226.113 145.675C224.681 131.059 223.362 80.9191 224.529 66.1113C224.753 63.2649 227.232 61.1461 230.07 61.362C234.972 61.7218 241.736 61.9376 251.586 62.0496L267.306 106.169L284.064 62.0576C293.403 61.9376 301.535 61.7058 306.22 61.354C309.058 61.1461 311.537 63.2569 311.761 66.1033C312.952 80.9031 312.033 131.067 310.585 145.683C310.29 148.697 307.755 150.992 304.725 150.992L304.733 150.984Z" fill="url(#paint3_linear_5313_158)"/>
<path fill-rule="evenodd" clip-rule="evenodd" d="M253.057 66.1912H281.546L267.306 106.161L253.057 66.1912Z" fill="url(#paint4_linear_5313_158)"/>
<path fill-rule="evenodd" clip-rule="evenodd" d="M251.586 62.0415L265.475 66.1912L260.693 76.0977C260.126 77.273 258.462 77.313 257.847 76.1616L254.225 69.4454L251.586 62.0415Z" fill="url(#paint5_linear_5313_158)"/>
<path fill-rule="evenodd" clip-rule="evenodd" d="M282.993 62.0415L269.104 66.1912L273.886 76.0977C274.454 77.273 276.117 77.313 276.732 76.1616L280.354 69.4454L282.993 62.0415Z" fill="url(#paint6_linear_5313_158)"/>
<path fill-rule="evenodd" clip-rule="evenodd" d="M261.964 73.4511L265.475 66.1912H269.105L272.607 73.4511L269.848 78.0885H264.451L261.964 73.4511Z" fill="url(#paint7_linear_5313_158)"/>
<path fill-rule="evenodd" clip-rule="evenodd" d="M264.451 78.0886L261.317 91.3532L267.305 106.161L273.262 91.1933L269.848 78.0886H264.451Z" fill="url(#paint8_linear_5313_158)"/>
<path fill-rule="evenodd" clip-rule="evenodd" d="M251.586 62.0416L241.704 61.8657L239.785 67.4146C239.457 68.3581 240.065 69.3655 241.048 69.5175L244.478 70.0532L242.16 74.8265C241.888 75.3942 241.968 76.0738 242.375 76.5535L267.314 106.153L251.594 62.0336L251.586 62.0416Z" fill="url(#paint9_linear_5313_158)"/>
<path fill-rule="evenodd" clip-rule="evenodd" d="M283.025 62.0416L292.907 61.8657L294.826 67.4146C295.154 68.3581 294.546 69.3655 293.563 69.5175L290.133 70.0532L292.452 74.8265C292.723 75.3942 292.643 76.0738 292.236 76.5535L267.298 106.153L283.017 62.0336L283.025 62.0416Z" fill="url(#paint10_linear_5313_158)"/>
<path d="M250.315 82.766C249.124 82.766 247.924 82.726 246.725 82.6541C212.576 80.5193 187.662 49.0568 186.622 47.7215L189.773 45.2589C190.021 45.5707 214.655 76.6574 246.997 78.6643C263.923 79.7197 280.122 72.6676 295.138 57.708L297.96 60.5384C283.145 75.2982 267.13 82.758 250.315 82.758V82.766Z" fill="black"/>
<path d="M232.813 68.374C226.352 68.374 219.028 66.567 210.977 62.945C197.768 57.0043 187.358 48.3931 186.918 48.0333L189.477 44.963C189.885 45.2988 230.23 78.4084 249.635 57.3881L252.57 60.0986C247.485 65.6075 240.808 68.374 232.813 68.374Z" fill="black"/>
<path d="M191.401 82.1726C191.933 83.6144 193.531 84.3529 194.971 83.8221C196.411 83.2912 197.147 81.692 196.615 80.2502L188.806 59.0725C188.275 57.6307 186.677 56.8922 185.237 57.4231C183.797 57.954 183.061 59.5531 183.593 60.9949L191.401 82.1726Z" fill="#7C7C7C"/>
<mask id="mask0_5313_158" style="mask-type:luminance" maskUnits="userSpaceOnUse" x="183" y="57" width="14" height="27">
<path d="M191.401 82.1726C191.933 83.6144 193.531 84.3529 194.971 83.8221C196.411 83.2912 197.147 81.692 196.615 80.2502L188.806 59.0725C188.275 57.6307 186.677 56.8922 185.237 57.4231C183.797 57.954 183.061 59.5531 183.593 60.9949L191.401 82.1726Z" fill="white"/>
</mask>
<g mask="url(#mask0_5313_158)">
<path opacity="0.5" d="M179.96 65.526L194.274 60.2483L193.228 57.4126L178.914 62.6903L179.96 65.526Z" fill="black"/>
<path opacity="0.5" d="M182.082 71.2945L196.395 66.0168L195.35 63.1812L181.036 68.4588L182.082 71.2945Z" fill="black"/>
<path opacity="0.5" d="M184.208 77.045L198.521 71.7673L197.476 68.9316L183.162 74.2093L184.208 77.045Z" fill="black"/>
<path opacity="0.5" d="M186.329 82.8136L200.643 77.5359L199.597 74.7002L185.284 79.9779L186.329 82.8136Z" fill="black"/>
</g>
<path d="M184.73 88.1856C185.262 89.6274 186.86 90.3659 188.3 89.835C189.74 89.3041 190.476 87.705 189.944 86.2631L182.135 65.0855C181.604 63.6436 180.006 62.9052 178.566 63.436C177.126 63.9669 176.39 65.5661 176.922 67.0079L184.73 88.1856Z" fill="#7C7C7C"/>
<mask id="mask1_5313_158" style="mask-type:luminance" maskUnits="userSpaceOnUse" x="176" y="63" width="15" height="28">
<path d="M184.73 88.1856C185.262 89.6274 186.86 90.3659 188.3 89.835C189.74 89.3041 190.476 87.705 189.944 86.2631L182.135 65.0855C181.604 63.6436 180.006 62.9052 178.566 63.436C177.126 63.9669 176.39 65.5661 176.922 67.0079L184.73 88.1856Z" fill="white"/>
</mask>
<g mask="url(#mask1_5313_158)">
<path opacity="0.5" d="M173.292 71.5462L187.605 66.2686L186.56 63.4329L172.246 68.7105L173.292 71.5462Z" fill="black"/>
<path opacity="0.5" d="M175.411 77.3075L189.724 72.0298L188.678 69.1941L174.365 74.4718L175.411 77.3075Z" fill="black"/>
<path opacity="0.5" d="M177.54 83.0733L191.853 77.7957L190.807 74.96L176.494 80.2377L177.54 83.0733Z" fill="black"/>
<path opacity="0.5" d="M179.658 88.8343L193.972 83.5566L192.926 80.7209L178.613 85.9986L179.658 88.8343Z" fill="black"/>
</g>
<path d="M176.485 94.9394C176.757 96.4518 178.202 97.4578 179.712 97.1864C181.223 96.9149 182.227 95.4687 181.955 93.9563L177.961 71.7409C177.69 70.2284 176.245 69.2224 174.735 69.4939C173.224 69.7653 172.22 71.2115 172.492 72.724L176.485 94.9394Z" fill="#7C7C7C"/>
<mask id="mask2_5313_158" style="mask-type:luminance" maskUnits="userSpaceOnUse" x="172" y="69" width="10" height="29">
<path d="M176.485 94.9394C176.757 96.4518 178.202 97.4578 179.712 97.1864C181.223 96.9149 182.227 95.4687 181.955 93.9563L177.961 71.7409C177.69 70.2284 176.245 69.2224 174.735 69.4939C173.224 69.7653 172.22 71.2115 172.492 72.724L176.485 94.9394Z" fill="white"/>
</mask>
<g mask="url(#mask2_5313_158)">
<path opacity="0.5" d="M168.126 76.5614L183.141 73.8625L182.607 70.8879L167.592 73.5868L168.126 76.5614Z" fill="black"/>
<path opacity="0.5" d="M169.217 82.6059L184.232 79.907L183.697 76.9323L168.682 79.6312L169.217 82.6059Z" fill="black"/>
<path opacity="0.5" d="M170.3 88.6425L185.314 85.9436L184.78 82.969L169.765 85.6679L170.3 88.6425Z" fill="black"/>
<path opacity="0.5" d="M171.39 94.6869L186.405 91.988L185.87 89.0134L170.855 91.7123L171.39 94.6869Z" fill="black"/>
</g>
<path fill-rule="evenodd" clip-rule="evenodd" d="M176.916 84.8528C174.381 86.5558 173.102 89.6022 173.654 92.6085C174.949 99.6286 177.899 112.861 183.352 124.647C186.503 131.459 190.3 137.807 193.411 142.581C196.249 146.938 202.51 147.25 205.78 143.204L217.046 129.26C218.581 127.365 219.116 124.855 218.493 122.496L206.563 77.2011C205.22 72.1079 199.263 69.8611 194.89 72.7955L176.916 84.8608V84.8528Z" fill="url(#paint11_linear_5313_158)"/>
<path fill-rule="evenodd" clip-rule="evenodd" d="M174.613 97.3739C174.229 95.5909 173.91 93.9838 173.662 92.6086C173.11 89.6023 174.389 86.556 176.924 84.8529L194.898 72.7876C199.271 69.8533 205.236 72.108 206.571 77.1932L208.786 85.5885L206.188 87.5394C204.764 88.6028 202.718 87.9712 202.158 86.2841L201.086 83.0779C200.535 81.4308 198.56 80.7752 197.137 81.7586L174.613 97.3659V97.3739Z" fill="black"/>
<path d="M198.248 50.8558H178.147C177.162 50.8558 176.364 51.6541 176.364 52.6388V79.0881C176.364 80.0728 177.162 80.8711 178.147 80.8711H198.248C199.233 80.8711 200.031 80.0728 200.031 79.0881V52.6388C200.031 51.6541 199.233 50.8558 198.248 50.8558Z" fill="url(#paint12_linear_5313_158)"/>
<path d="M190.276 46.1064C190.276 44.9583 189.346 44.0276 188.198 44.0276C187.05 44.0276 186.119 44.9583 186.119 46.1064V51.0317C186.119 52.1798 187.05 53.1105 188.198 53.1105C189.346 53.1105 190.276 52.1798 190.276 51.0317V46.1064Z" fill="black"/>
<path d="M188.198 52.0791C188.873 52.0791 189.421 51.5314 189.421 50.8558C189.421 50.1801 188.873 49.6324 188.198 49.6324C187.522 49.6324 186.974 50.1801 186.974 50.8558C186.974 51.5314 187.522 52.0791 188.198 52.0791Z" fill="#F6EAFF"/>
<path d="M188.198 54.078H177.771V65.3597H188.198V54.078Z" fill="#DEB4FF"/>
<path d="M187.806 62.985C187.702 62.921 187.59 62.873 187.47 62.8331V62.7371C187.47 62.6412 187.406 62.5612 187.31 62.5612H187.278C187.278 62.4653 187.27 62.3693 187.262 62.2974C187.246 62.0655 187.07 61.8896 186.854 61.8496L186.79 61.5298C187.07 61.3539 187.246 61.0261 187.198 60.6663C187.142 60.2745 187.086 59.8267 187.03 59.419C186.878 58.3076 186.599 57.1802 186.599 57.1802C186.543 56.8284 186.247 56.5726 185.895 56.5726C185.895 56.5726 184.224 56.4766 183.16 56.4526V56.1488C183.36 56.0768 183.496 55.8849 183.496 55.6611C183.496 55.3732 183.264 55.1414 182.977 55.1414C182.689 55.1414 182.457 55.3732 182.457 55.6611C182.457 55.8849 182.601 56.0768 182.801 56.1488V56.4526C181.745 56.4526 180.138 56.5885 180.138 56.5885C179.786 56.5885 179.482 56.8444 179.434 57.1962C179.434 57.1962 179.155 57.9478 178.923 59.5629C178.859 60.0346 178.811 60.4104 178.779 60.7143C178.739 61.0741 178.931 61.3939 179.219 61.5618L179.163 61.8496C178.931 61.8816 178.747 62.0575 178.731 62.2974C178.731 62.3773 178.723 62.4653 178.715 62.5612H178.683C178.587 62.5612 178.515 62.6412 178.515 62.7371V62.8331C178.395 62.873 178.283 62.921 178.179 62.985C178.147 62.921 178.107 62.889 178.067 62.889C177.971 62.889 177.875 62.905 177.787 62.921V65.3597H188.214V62.921C188.126 62.905 188.03 62.889 187.934 62.889C187.894 62.889 187.854 62.929 187.822 62.985H187.806Z" fill="#6A3C98"/>
<path d="M190.892 54.046H194.866C197.073 54.046 198.304 55.2134 198.304 57.0683C198.304 58.3476 197.64 59.1152 196.457 59.451V59.547C197.856 59.8908 198.664 60.7303 198.664 62.2574C198.664 64.1604 197.384 65.3757 195.242 65.3757H190.892V54.046ZM194.194 58.8593C195.33 58.8593 195.833 58.5315 195.833 57.5481V57.0603C195.833 56.0689 195.33 55.7651 194.194 55.7651H193.267V58.8673H194.194V58.8593ZM194.498 63.6807C195.649 63.6807 196.185 63.3528 196.185 62.3134V61.8417C196.185 60.8182 195.649 60.4744 194.498 60.4744H193.267V63.6727H194.498V63.6807Z" fill="black"/>
<path d="M198.392 67.2227H177.771V69.3015H198.392V67.2227Z" fill="#6A3C98"/>
<path d="M179.85 70.6687H177.771V72.7475H179.85V70.6687Z" fill="#6A3C98"/>
<path d="M179.85 73.875H177.771V75.9538H179.85V73.875Z" fill="#6A3C98"/>
<path d="M179.85 77.0732H177.771V79.1521H179.85V77.0732Z" fill="#6A3C98"/>
<path d="M194.258 70.6687H181.265V72.7475H194.258V70.6687Z" fill="#6A3C98"/>
<path d="M196.801 73.875H181.265V75.9538H196.801V73.875Z" fill="#6A3C98"/>
<path d="M188.086 77.0732H181.265V79.1521H188.086V77.0732Z" fill="#6A3C98"/>
<path d="M198.608 61.5356C199.575 61.1758 200.615 61.3917 201.366 61.9993C201.742 62.3031 202.046 62.7189 202.23 63.2066L207.651 77.9104C208.186 79.3656 207.443 80.9887 205.98 81.5244L203.341 82.4999L197.848 67.5962L196.945 65.1576C196.409 63.7024 197.153 62.0793 198.616 61.5436L198.608 61.5356Z" fill="#7C7C7C"/>
<mask id="mask3_5313_158" style="mask-type:luminance" maskUnits="userSpaceOnUse" x="197" y="62" width="12" height="22">
<path d="M198.837 62.1747C199.804 61.8149 200.844 62.0308 201.595 62.6385C201.971 62.9423 202.275 63.3581 202.459 63.8458L207.88 78.5496C208.416 80.0048 207.672 81.6279 206.209 82.1636L203.57 83.1391L198.077 68.2354L197.174 65.7967C196.638 64.3415 197.382 62.7184 198.845 62.1827L198.837 62.1747Z" fill="white"/>
</mask>
<g mask="url(#mask3_5313_158)">
<path opacity="0.5" d="M193.481 70.3923L207.983 65.0454L206.923 62.1722L192.422 67.5191L193.481 70.3923Z" fill="black"/>
<path opacity="0.5" d="M195.633 76.2299L210.134 70.8831L209.074 68.0099L194.573 73.3567L195.633 76.2299Z" fill="black"/>
<path opacity="0.5" d="M197.784 82.0678L212.285 76.7209L211.226 73.8477L196.725 79.1946L197.784 82.0678Z" fill="black"/>
<path d="M199.938 87.9052L214.439 82.5583L213.38 79.6851L198.879 85.032L199.938 87.9052Z" fill="#7C7C7C"/>
</g>
<path fill-rule="evenodd" clip-rule="evenodd" d="M266.194 3.30626C264.171 2.56267 262.724 0.61176 262.716 -1.66697C262.708 -4.60933 265.083 -7 268.017 -7C270.952 -7 273.334 -4.63332 273.342 -1.69895C273.342 0.587773 271.911 2.53869 269.888 3.29027V6.40853C280.698 6.6484 297.801 7.64784 297.801 7.64784C301.407 7.64784 304.469 10.2624 305.021 13.8284C305.021 13.8284 307.899 25.278 309.45 36.6637C310.018 40.8613 310.641 45.4668 311.169 49.4406C311.897 54.8375 307.707 59.6349 302.262 59.6509C302.262 59.6509 278.371 61.226 267.745 61.242C250.275 61.282 234.068 59.7948 234.068 59.7948C228.719 59.8028 224.537 55.1894 225.081 49.8723C225.393 46.826 225.865 42.9642 226.56 38.1349C228.927 21.648 231.773 13.9803 231.773 13.9803C232.309 10.4143 235.363 7.77577 238.961 7.76777C238.961 7.76777 255.376 6.40853 266.202 6.36056V3.29027L266.194 3.30626Z" fill="url(#paint13_linear_5313_158)"/>
<path d="M300.143 16.0592C299.815 14.0443 298.12 12.5332 296.081 12.4292C287.534 11.8695 278.227 11.6057 268.177 11.6297C258.119 11.6537 248.948 11.9495 240.656 12.5252C238.657 12.6531 237.002 14.1323 236.659 16.1152C234.908 22.8794 233.628 28.6122 232.813 33.2976C232.005 37.983 231.509 42.5165 231.334 46.89C230.99 48.8969 231.541 50.9598 232.861 52.5189C234.172 54.078 236.107 54.9735 238.146 54.9655C246.485 55.3813 256.528 55.5812 268.273 55.5572C280.018 55.5332 290.061 55.2933 298.392 54.8376C300.415 54.8376 302.334 53.9421 303.645 52.399C304.957 50.8558 305.516 48.817 305.188 46.8181C304.693 41.485 304.037 36.2959 303.214 31.2747C302.39 26.2455 301.367 21.1764 300.143 16.0672" fill="black"/>
<path d="M259.362 40.955L245.16 38.6369C243.979 38.4415 242.984 37.6332 242.557 36.5141L240.186 30.3058C239.342 28.0942 240.976 25.7317 243.339 25.7317H260.925C262.941 25.7317 264.513 27.4992 264.273 29.4976L263.261 38.024C263.039 39.9336 261.262 41.2659 259.371 40.955H259.362Z" fill="#95FFEC"/>
<path d="M278.839 40.955L293.041 38.6369C294.223 38.4415 295.217 37.6332 295.644 36.5141L298.015 30.3058C298.859 28.0942 297.225 25.7317 294.862 25.7317H277.276C275.26 25.7317 273.688 27.4992 273.928 29.4976L274.94 38.024C275.162 39.9336 276.939 41.2659 278.831 40.955H278.839Z" fill="#95FFEC"/>
<path d="M277.338 29.1422H262.257V33.361H277.338V29.1422Z" fill="#95FFEC"/>
<path d="M274.733 42.3245C274.965 46.1143 269.72 45.7146 269.72 45.7146H265.467L274.741 42.3245H274.733Z" fill="#95FFEC"/>
</g>
<defs>
<linearGradient id="paint0_linear_5313_158" x1="336.187" y1="76.1478" x2="315.633" y2="155.854" gradientUnits="userSpaceOnUse">
<stop stop-color="#7C7C7C"/>
<stop offset="0.08" stop-color="#656565"/>
<stop offset="0.24" stop-color="#414141"/>
<stop offset="0.4" stop-color="#242424"/>
<stop offset="0.56" stop-color="#101010"/>
<stop offset="0.72" stop-color="#040404"/>
<stop offset="0.88"/>
</linearGradient>
<linearGradient id="paint1_linear_5313_158" x1="200.09" y1="76.2504" x2="220.644" y2="155.957" gradientUnits="userSpaceOnUse">
<stop stop-color="#7C7C7C"/>
<stop offset="0.08" stop-color="#656565"/>
<stop offset="0.24" stop-color="#414141"/>
<stop offset="0.4" stop-color="#242424"/>
<stop offset="0.56" stop-color="#101010"/>
<stop offset="0.72" stop-color="#040404"/>
<stop offset="0.88"/>
</linearGradient>
<linearGradient id="paint2_linear_5313_158" x1="268.193" y1="47.6335" x2="268.193" y2="163.785" gradientUnits="userSpaceOnUse">
<stop stop-color="#DEB4FF"/>
<stop offset="0.13" stop-color="#E7C9FF"/>
<stop offset="0.32" stop-color="#F1E0FF"/>
<stop offset="0.51" stop-color="#F9F1FF"/>
<stop offset="0.73" stop-color="#FDFBFF"/>
<stop offset="1" stop-color="white"/>
</linearGradient>
<linearGradient id="paint3_linear_5313_158" x1="268.193" y1="47.6336" x2="268.193" y2="163.785" gradientUnits="userSpaceOnUse">
<stop stop-color="#7C7C7C"/>
<stop offset="0.08" stop-color="#656565"/>
<stop offset="0.24" stop-color="#414141"/>
<stop offset="0.4" stop-color="#242424"/>
<stop offset="0.56" stop-color="#101010"/>
<stop offset="0.72" stop-color="#040404"/>
<stop offset="0.88"/>
</linearGradient>
<linearGradient id="paint4_linear_5313_158" x1="267.306" y1="60.0826" x2="267.306" y2="111.87" gradientUnits="userSpaceOnUse">
<stop offset="0.24" stop-color="#DBDBDB"/>
<stop offset="0.45" stop-color="#EEEEEE"/>
<stop offset="0.67" stop-color="#FAFAFA"/>
<stop offset="0.88" stop-color="white"/>
</linearGradient>
<linearGradient id="paint5_linear_5313_158" x1="258.526" y1="59.7548" x2="258.526" y2="79.136" gradientUnits="userSpaceOnUse">
<stop offset="0.24" stop-color="#DBDBDB"/>
<stop offset="0.45" stop-color="#EEEEEE"/>
<stop offset="0.67" stop-color="#FAFAFA"/>
<stop offset="0.88" stop-color="white"/>
</linearGradient>
<linearGradient id="paint6_linear_5313_158" x1="276.045" y1="59.7548" x2="276.045" y2="79.136" gradientUnits="userSpaceOnUse">
<stop offset="0.24" stop-color="#DBDBDB"/>
<stop offset="0.45" stop-color="#EEEEEE"/>
<stop offset="0.67" stop-color="#FAFAFA"/>
<stop offset="0.88" stop-color="white"/>
</linearGradient>
<linearGradient id="paint7_linear_5313_158" x1="267.29" y1="64.3682" x2="267.29" y2="79.7916" gradientUnits="userSpaceOnUse">
<stop stop-color="#7C7C7C"/>
<stop offset="0.08" stop-color="#656565"/>
<stop offset="0.24" stop-color="#414141"/>
<stop offset="0.4" stop-color="#242424"/>
<stop offset="0.56" stop-color="#101010"/>
<stop offset="0.72" stop-color="#040404"/>
<stop offset="0.88"/>
</linearGradient>
<linearGradient id="paint8_linear_5313_158" x1="267.29" y1="73.803" x2="267.29" y2="110.167" gradientUnits="userSpaceOnUse">
<stop stop-color="#7C7C7C"/>
<stop offset="0.08" stop-color="#656565"/>
<stop offset="0.24" stop-color="#414141"/>
<stop offset="0.4" stop-color="#242424"/>
<stop offset="0.56" stop-color="#101010"/>
<stop offset="0.72" stop-color="#040404"/>
<stop offset="0.88"/>
</linearGradient>
<linearGradient id="paint9_linear_5313_158" x1="253.497" y1="55.1015" x2="253.497" y2="112.486" gradientUnits="userSpaceOnUse">
<stop stop-color="#7C7C7C"/>
<stop offset="0.08" stop-color="#656565"/>
<stop offset="0.24" stop-color="#414141"/>
<stop offset="0.4" stop-color="#242424"/>
<stop offset="0.56" stop-color="#101010"/>
<stop offset="0.72" stop-color="#040404"/>
<stop offset="0.88"/>
</linearGradient>
<linearGradient id="paint10_linear_5313_158" x1="281.114" y1="55.1015" x2="281.114" y2="112.486" gradientUnits="userSpaceOnUse">
<stop stop-color="#7C7C7C"/>
<stop offset="0.08" stop-color="#656565"/>
<stop offset="0.24" stop-color="#414141"/>
<stop offset="0.4" stop-color="#242424"/>
<stop offset="0.56" stop-color="#101010"/>
<stop offset="0.72" stop-color="#040404"/>
<stop offset="0.88"/>
</linearGradient>
<linearGradient id="paint11_linear_5313_158" x1="209.634" y1="143.107" x2="185.887" y2="75.7533" gradientUnits="userSpaceOnUse">
<stop offset="0.461538" stop-color="#7C7C7C"/>
<stop offset="0.88"/>
</linearGradient>
<linearGradient id="paint12_linear_5313_158" x1="188.198" y1="80.8711" x2="188.198" y2="50.8558" gradientUnits="userSpaceOnUse">
<stop offset="0.24" stop-color="#F6EAFF"/>
<stop offset="0.32" stop-color="#F8EEFF"/>
<stop offset="0.6" stop-color="#FDFAFF"/>
<stop offset="0.88" stop-color="white"/>
</linearGradient>
<linearGradient id="paint13_linear_5313_158" x1="268.145" y1="-14.4039" x2="268.145" y2="73.3312" gradientUnits="userSpaceOnUse">
<stop stop-color="#F6EAFF"/>
<stop offset="0.28" stop-color="#F4E6FF"/>
<stop offset="0.55" stop-color="#EFDAFF"/>
<stop offset="0.81" stop-color="#E6C7FF"/>
<stop offset="1" stop-color="#DEB4FF"/>
</linearGradient>
<clipPath id="clip0_5313_158">
<rect width="374" height="96" fill="white"/>
</clipPath>
</defs>
</svg>
