<svg width="374" height="96" viewBox="0 0 374 96" fill="none" xmlns="http://www.w3.org/2000/svg">
<g clip-path="url(#clip0_5313_76)">
<path d="M191.358 31.5921V18.9197C191.358 13.2238 195.972 8.60962 201.668 8.60962H278.177C283.873 8.60962 288.487 13.2238 288.487 18.9197V33.3472" stroke="black" stroke-width="4.44121" stroke-miterlimit="10"/>
<path d="M189.371 18.0034H192.859C193.532 18.0034 194.084 18.5553 194.084 19.2287V35.1464H185V22.3747C185 19.9573 186.965 18.0034 189.371 18.0034Z" fill="url(#paint0_linear_5313_76)"/>
<path fill-rule="evenodd" clip-rule="evenodd" d="M207.85 47.3773L206.68 47.1234C205.112 46.7922 204.262 45.0702 204.946 43.6241L209.351 34.3406C209.439 34.1199 209.561 33.9101 209.66 33.7004L209.726 33.5569C210.19 32.5855 210.742 31.6693 211.382 30.8193L211.095 17.7054C211.04 15.1886 213.987 13.7756 215.908 15.4204L225.787 23.8318H253.505L263.385 15.4204C265.306 13.7867 268.253 15.1886 268.198 17.7054L267.911 30.8193C268.551 31.6803 269.103 32.6076 269.578 33.59V33.5679L274.368 43.6462C275.053 45.1033 274.214 46.8143 272.635 47.1454L271.465 47.3993L272.746 50.1038C273.121 50.8986 272.657 51.8369 271.807 52.0135L271.278 52.1239V52.2784C271.278 62.9859 262.59 71.6733 251.883 71.6733H227.41C216.703 71.6733 208.015 62.9859 208.015 52.2784V52.1128L207.507 52.0024C206.646 51.8148 206.183 50.8875 206.569 50.0928L207.85 47.3883V47.3773Z" fill="url(#paint1_linear_5313_76)"/>
<path d="M241.021 51.8257C241.021 51.2186 240.546 50.7329 239.939 50.7219C239.332 50.7219 238.835 51.1965 238.835 51.8037C238.824 53.0069 238.316 54.0997 237.51 54.8834C236.705 55.6672 235.612 56.1418 234.398 56.1198C233.194 56.1087 232.101 55.6009 231.318 54.7951C230.534 54.0003 230.07 52.8965 230.081 51.6822C230.081 51.0751 229.607 50.5784 229 50.5784C228.393 50.5784 227.896 51.053 227.896 51.6602C227.874 53.4705 228.591 55.1152 229.761 56.3185C230.931 57.5217 232.565 58.2833 234.375 58.3054C236.186 58.3275 237.831 57.61 239.034 56.4399C239.343 56.1308 239.63 55.7996 239.873 55.4354C240.105 55.7996 240.38 56.1418 240.69 56.462C241.86 57.6652 243.493 58.4158 245.293 58.4379C247.103 58.46 248.748 57.7535 249.951 56.5723C251.154 55.4023 251.905 53.7685 251.927 51.9582C251.927 51.3511 251.452 50.8543 250.845 50.8543C250.238 50.8543 249.741 51.329 249.741 51.9361C249.73 53.1393 249.222 54.2322 248.417 55.0159C247.611 55.7996 246.518 56.2743 245.304 56.2522C244.089 56.2412 243.008 55.7334 242.224 54.9386C241.44 54.1328 240.966 53.04 240.988 51.8257" fill="black"/>
<path d="M230.192 43.5026C230.159 45.611 229.165 47.3109 227.962 47.2999C226.759 47.2888 225.798 45.5558 225.821 43.4474C225.843 41.339 226.847 39.628 228.061 39.6501C229.265 39.6612 230.225 41.3942 230.203 43.5026" fill="black"/>
<path d="M254.245 43.8118C254.223 45.9201 253.218 47.6201 252.004 47.6091C250.801 47.598 249.841 45.865 249.863 43.7566C249.885 41.6482 250.889 39.9482 252.092 39.9593C253.296 39.9703 254.256 41.7034 254.234 43.8118" fill="black"/>
<path d="M239.663 80.2173C264.091 80.2173 283.895 60.414 283.895 35.9855C283.895 11.5569 264.091 -8.24634 239.663 -8.24634C215.234 -8.24634 195.431 11.5569 195.431 35.9855C195.431 60.414 215.234 80.2173 239.663 80.2173Z" fill="url(#paint2_linear_5313_76)"/>
<path d="M268.385 69.5095L210.951 69.5095C208.225 69.5095 206.017 67.3018 206.017 64.5753L273.32 64.5753C273.32 67.3018 271.112 69.5095 268.385 69.5095Z" fill="black"/>
<path d="M273.32 74.1128L206.017 74.1128C206.017 71.3863 208.225 69.1785 210.951 69.1785L268.385 69.1785C271.112 69.1785 273.32 71.3863 273.32 74.1128Z" fill="black"/>
<path fill-rule="evenodd" clip-rule="evenodd" d="M233.603 134.969C205.995 134.969 205.995 112.726 205.995 86.686V74.124H273.309C273.309 74.124 295.099 91.8741 302.914 119.537C305.718 140.985 261.199 134.98 233.592 134.98L233.603 134.969Z" fill="black"/>
<path d="M194.636 23.1365V48.6247C189.316 48.6247 185 44.3086 185 38.988V32.7842C185 27.4526 189.316 23.1365 194.636 23.1365Z" fill="url(#paint3_linear_5313_76)"/>
<path d="M199.438 24.1631C199.438 22.6817 198.24 21.4807 196.761 21.4807C195.283 21.4807 194.084 22.6817 194.084 24.1631V47.7968C194.084 49.2783 195.283 50.4792 196.761 50.4792C198.24 50.4792 199.438 49.2783 199.438 47.7968V24.1631Z" fill="url(#paint4_linear_5313_76)"/>
<path d="M294.426 35.1465H285.341V19.2288C285.341 18.5554 285.893 18.0035 286.566 18.0035H290.054C292.472 18.0035 294.426 19.9684 294.426 22.3748V35.1465Z" fill="url(#paint5_linear_5313_76)"/>
<path d="M261.332 55.7224H256.883C254.993 55.7224 253.461 57.2545 253.461 59.1444C253.461 61.0343 254.993 62.5664 256.883 62.5664H261.332C263.222 62.5664 264.754 61.0343 264.754 59.1444C264.754 57.2545 263.222 55.7224 261.332 55.7224Z" fill="black"/>
<path d="M260.305 59.1555H282.095C285.219 59.1555 287.747 56.6277 287.747 53.5038V40.5002" stroke="black" stroke-width="2.20773" stroke-miterlimit="10"/>
<path d="M285.341 45.1475H290.165V50.8324C290.165 51.5719 289.569 52.157 288.84 52.157H286.676C285.937 52.157 285.352 51.5609 285.352 50.8324V45.1475H285.341Z" fill="url(#paint6_linear_5313_76)"/>
<path d="M284.789 48.6248V23.1365C290.11 23.1365 294.426 27.4527 294.426 32.7733V38.977C294.426 44.2976 290.11 48.6137 284.789 48.6137V48.6248Z" fill="url(#paint7_linear_5313_76)"/>
<path d="M279.987 47.8078C279.987 49.2893 281.186 50.4902 282.664 50.4902C284.142 50.4902 285.341 49.2893 285.341 47.8078V24.1741C285.341 22.6927 284.142 21.4917 282.664 21.4917C281.186 21.4917 279.987 22.6927 279.987 24.1741V47.8078Z" fill="url(#paint8_linear_5313_76)"/>
<path fill-rule="evenodd" clip-rule="evenodd" d="M256.066 58.1619C256.42 58.1619 256.718 57.8749 256.718 57.5107C256.718 57.1464 256.431 56.8594 256.066 56.8594C255.702 56.8594 255.415 57.1464 255.415 57.5107C255.415 57.8749 255.702 58.1619 256.066 58.1619ZM258.109 58.1619C258.462 58.1619 258.76 57.8749 258.76 57.5107C258.76 57.1464 258.473 56.8594 258.109 56.8594C257.744 56.8594 257.457 57.1464 257.457 57.5107C257.457 57.8749 257.744 58.1619 258.109 58.1619ZM260.151 58.1619C260.504 58.1619 260.802 57.8749 260.802 57.5107C260.802 57.1464 260.515 56.8594 260.151 56.8594C259.786 56.8594 259.499 57.1464 259.499 57.5107C259.499 57.8749 259.786 58.1619 260.151 58.1619ZM262.193 58.1619C262.546 58.1619 262.844 57.8749 262.844 57.5107C262.844 57.1464 262.557 56.8594 262.193 56.8594C261.829 56.8594 261.542 57.1464 261.542 57.5107C261.542 57.8749 261.829 58.1619 262.193 58.1619ZM255.724 59.1444C255.724 58.7911 255.437 58.4931 255.073 58.4931C254.709 58.4931 254.422 58.7801 254.422 59.1444C254.422 59.5086 254.709 59.7957 255.073 59.7957C255.437 59.7957 255.724 59.5086 255.724 59.1444ZM257.766 59.1444C257.766 58.7911 257.479 58.4931 257.115 58.4931C256.751 58.4931 256.464 58.7801 256.464 59.1444C256.464 59.5086 256.751 59.7957 257.115 59.7957C257.479 59.7957 257.766 59.5086 257.766 59.1444ZM259.808 59.1444C259.808 58.7911 259.521 58.4931 259.157 58.4931C258.793 58.4931 258.506 58.7801 258.506 59.1444C258.506 59.5086 258.793 59.7957 259.157 59.7957C259.521 59.7957 259.808 59.5086 259.808 59.1444ZM261.851 59.1444C261.851 58.7911 261.564 58.4931 261.199 58.4931C260.835 58.4931 260.548 58.7801 260.548 59.1444C260.548 59.5086 260.835 59.7957 261.199 59.7957C261.564 59.7957 261.851 59.5086 261.851 59.1444ZM263.241 58.4931C262.888 58.4931 262.59 58.7801 262.59 59.1444C262.59 59.5086 262.877 59.7957 263.241 59.7957C263.606 59.7957 263.893 59.5086 263.893 59.1444C263.893 58.7801 263.606 58.4931 263.241 58.4931ZM256.066 60.1268C255.713 60.1268 255.415 60.4138 255.415 60.7781C255.415 61.1424 255.702 61.4294 256.066 61.4294C256.431 61.4294 256.718 61.1424 256.718 60.7781C256.718 60.4138 256.431 60.1268 256.066 60.1268ZM258.109 60.1268C257.755 60.1268 257.457 60.4138 257.457 60.7781C257.457 61.1424 257.744 61.4294 258.109 61.4294C258.473 61.4294 258.76 61.1424 258.76 60.7781C258.76 60.4138 258.473 60.1268 258.109 60.1268ZM260.151 60.1268C259.797 60.1268 259.499 60.4138 259.499 60.7781C259.499 61.1424 259.786 61.4294 260.151 61.4294C260.515 61.4294 260.802 61.1424 260.802 60.7781C260.802 60.4138 260.515 60.1268 260.151 60.1268ZM262.193 60.1268C261.84 60.1268 261.542 60.4138 261.542 60.7781C261.542 61.1424 261.829 61.4294 262.193 61.4294C262.557 61.4294 262.844 61.1424 262.844 60.7781C262.844 60.4138 262.557 60.1268 262.193 60.1268Z" fill="url(#paint9_linear_5313_76)"/>
<path d="M206 100.254V74.7537L273.5 74.2537C276.7 75.0537 283.166 83.587 286 87.7537H256.258C254.153 87.7537 252.114 88.4918 250.496 89.8397L238 100.254H206Z" fill="url(#paint10_linear_5313_76)"/>
<path d="M253.008 90.4523C253.131 85.8137 254.621 79.7121 257.355 76.6914C257.754 76.2505 258.427 76.2454 258.861 76.6524C263.307 80.825 264.678 87.8675 264.946 92.1509C265.012 93.1986 263.82 93.7069 263.044 93.0008L259.741 89.9983C258.8 89.1427 257.366 89.1291 256.409 89.9667L254.911 91.2775C254.145 91.9473 252.981 91.4692 253.008 90.4523Z" fill="url(#paint11_linear_5313_76)"/>
<path fill-rule="evenodd" clip-rule="evenodd" d="M298.63 155.937C298.63 155.937 294.878 146.84 293.428 138.271C292.681 133.869 292.598 129.577 293.448 126.311C296.405 114.962 303.115 108.669 310.182 103.118C315.29 99.0916 320.773 95.7312 323.424 89.2172C330.491 71.8633 322.734 60.9126 322.734 60.9126C320.499 57.9806 321.064 53.7796 323.994 51.534C326.926 49.2996 331.127 49.8649 333.372 52.7942C333.372 52.7942 335.528 55.4972 337.366 60.4509L338.965 58.8112C339.335 58.4379 339.966 58.6987 339.962 59.2194L339.857 74.0006C339.957 79.7772 338.95 86.5899 335.825 94.2701C332.853 101.559 327.719 106.359 322.078 110.821C315.989 115.628 308.991 119.804 306.415 129.702C305.765 132.187 306.461 135.693 307.233 139.026C308.667 145.188 311.001 150.825 311.001 150.825" fill="url(#paint12_linear_5313_76)"/>
</g>
<defs>
<linearGradient id="paint0_linear_5313_76" x1="189.548" y1="35.1464" x2="189.548" y2="18.0034" gradientUnits="userSpaceOnUse">
<stop/>
<stop offset="0.19" stop-color="#030303"/>
<stop offset="0.37" stop-color="#0F0F0F"/>
<stop offset="0.54" stop-color="#222222"/>
<stop offset="0.71" stop-color="#3D3D3D"/>
<stop offset="0.88" stop-color="#5F5F5F"/>
<stop offset="1" stop-color="#7C7C7C"/>
</linearGradient>
<linearGradient id="paint1_linear_5313_76" x1="239.652" y1="14.6919" x2="239.652" y2="71.6512" gradientUnits="userSpaceOnUse">
<stop offset="0.16" stop-color="#FFA933"/>
<stop offset="0.42" stop-color="#FFA531"/>
<stop offset="0.64" stop-color="#FF9A2C"/>
<stop offset="0.86" stop-color="#FF8724"/>
<stop offset="1" stop-color="#FF781D"/>
</linearGradient>
<linearGradient id="paint2_linear_5313_76" x1="239.652" y1="-21.6472" x2="239.652" y2="76.9719" gradientUnits="userSpaceOnUse">
<stop stop-color="#95FFEC" stop-opacity="0.5"/>
<stop offset="0.14" stop-color="#95FFEC" stop-opacity="0.47"/>
<stop offset="0.35" stop-color="#95FFEC" stop-opacity="0.39"/>
<stop offset="0.61" stop-color="#95FFEC" stop-opacity="0.26"/>
<stop offset="0.9" stop-color="#95FFEC" stop-opacity="0.07"/>
<stop offset="1" stop-color="#95FFEC" stop-opacity="0"/>
</linearGradient>
<linearGradient id="paint3_linear_5313_76" x1="189.824" y1="48.6247" x2="189.824" y2="23.1365" gradientUnits="userSpaceOnUse">
<stop/>
<stop offset="1" stop-color="#7C7C7C"/>
</linearGradient>
<linearGradient id="paint4_linear_5313_76" x1="196.767" y1="50.4792" x2="196.767" y2="21.4807" gradientUnits="userSpaceOnUse">
<stop/>
<stop offset="0.19" stop-color="#030303"/>
<stop offset="0.37" stop-color="#0F0F0F"/>
<stop offset="0.54" stop-color="#222222"/>
<stop offset="0.71" stop-color="#3D3D3D"/>
<stop offset="0.88" stop-color="#5F5F5F"/>
<stop offset="1" stop-color="#7C7C7C"/>
</linearGradient>
<linearGradient id="paint5_linear_5313_76" x1="289.889" y1="35.1465" x2="289.889" y2="18.0035" gradientUnits="userSpaceOnUse">
<stop/>
<stop offset="0.19" stop-color="#030303"/>
<stop offset="0.37" stop-color="#0F0F0F"/>
<stop offset="0.54" stop-color="#222222"/>
<stop offset="0.71" stop-color="#3D3D3D"/>
<stop offset="0.88" stop-color="#5F5F5F"/>
<stop offset="1" stop-color="#7C7C7C"/>
</linearGradient>
<linearGradient id="paint6_linear_5313_76" x1="285.341" y1="48.6577" x2="285.371" y2="55.2629" gradientUnits="userSpaceOnUse">
<stop/>
<stop offset="1" stop-color="#7C7C7C"/>
</linearGradient>
<linearGradient id="paint7_linear_5313_76" x1="289.613" y1="48.6248" x2="289.613" y2="23.1365" gradientUnits="userSpaceOnUse">
<stop/>
<stop offset="1" stop-color="#7C7C7C"/>
</linearGradient>
<linearGradient id="paint8_linear_5313_76" x1="282.658" y1="50.4792" x2="282.658" y2="21.4807" gradientUnits="userSpaceOnUse">
<stop/>
<stop offset="0.19" stop-color="#030303"/>
<stop offset="0.37" stop-color="#0F0F0F"/>
<stop offset="0.54" stop-color="#222222"/>
<stop offset="0.71" stop-color="#3D3D3D"/>
<stop offset="0.88" stop-color="#5F5F5F"/>
<stop offset="1" stop-color="#7C7C7C"/>
</linearGradient>
<linearGradient id="paint9_linear_5313_76" x1="254.289" y1="54.2984" x2="262.38" y2="62.3897" gradientUnits="userSpaceOnUse">
<stop stop-color="#7C7C7C"/>
<stop offset="0.88" stop-color="#7C7C7C" stop-opacity="0"/>
</linearGradient>
<linearGradient id="paint10_linear_5313_76" x1="202" y1="65.2537" x2="282" y2="108.254" gradientUnits="userSpaceOnUse">
<stop stop-color="#88E3FF"/>
<stop offset="1" stop-color="#005FBE"/>
</linearGradient>
<linearGradient id="paint11_linear_5313_76" x1="259.257" y1="77.8598" x2="259" y2="94.7538" gradientUnits="userSpaceOnUse">
<stop stop-color="white"/>
<stop offset="1" stop-color="#DBDBDB"/>
</linearGradient>
<linearGradient id="paint12_linear_5313_76" x1="338.996" y1="54.6243" x2="292.61" y2="153.107" gradientUnits="userSpaceOnUse">
<stop offset="0.27" stop-color="#FFA933"/>
<stop offset="0.73" stop-color="#FF8623"/>
<stop offset="1" stop-color="#FF781D"/>
</linearGradient>
<clipPath id="clip0_5313_76">
<rect width="374" height="96" fill="white"/>
</clipPath>
</defs>
</svg>
