<svg width="519" height="543" viewBox="0 0 519 543" fill="none" xmlns="http://www.w3.org/2000/svg">
<g opacity="0.2">
<path d="M405.085 452.131L403.754 454.585C402.232 450.44 399.42 446.672 395.37 443.835L335.331 401.765C324.28 394.021 308.263 396.16 299.553 406.544L252.267 462.945C250.181 465.434 248.705 468.172 247.822 470.998L246.794 467.626L246.805 477.475V477.486C246.788 484.451 250.111 491.277 256.519 495.765L316.559 537.835C327.61 545.58 343.627 543.44 352.336 533.056L399.629 476.655C403.179 472.416 404.968 467.463 405.085 462.562H405.09V452.131H405.085Z" fill="#500E82"/>
<path d="M316.553 528.056L256.514 485.986C245.463 478.242 243.558 463.544 252.267 453.166L299.559 396.765C308.263 386.381 324.281 384.242 335.337 391.986L395.376 434.056C406.427 441.8 408.333 456.498 399.623 466.876L352.331 523.277C343.628 533.661 327.61 535.801 316.553 528.056Z" fill="url(#paint0_linear_9457_1095)"/>
</g>
<g opacity="0.1">
<path d="M518.085 99.0229L516.754 101.476C515.232 97.3311 512.42 93.5636 508.37 90.7264L448.331 48.6564C437.28 40.9121 421.262 43.0517 412.553 53.4355L365.267 109.837C363.181 112.325 361.705 115.064 360.822 117.889L359.794 114.517L359.805 124.366V124.378C359.788 131.343 363.111 138.168 369.519 142.657L429.559 184.727C440.609 192.471 456.627 190.332 465.336 179.948L512.629 123.546C516.179 119.308 517.968 114.354 518.085 109.453H518.09V99.0229H518.085Z" fill="#500E82"/>
<path d="M429.553 174.948L369.514 132.878C358.463 125.134 356.558 110.436 365.267 100.058L412.559 43.6563C421.263 33.2725 437.281 31.133 448.337 38.8772L508.376 80.9472C519.427 88.6914 521.332 103.389 512.623 113.767L465.331 170.169C456.628 180.552 440.61 182.692 429.553 174.948Z" fill="url(#paint1_linear_9457_1095)"/>
</g>
<g opacity="0.1">
<path d="M235.602 394.62L234.873 395.964C234.039 393.693 232.499 391.629 230.281 390.075L197.389 367.028C191.336 362.786 182.561 363.958 177.79 369.646L151.885 400.544C150.742 401.907 149.934 403.408 149.45 404.956L148.887 403.108L148.893 408.504V408.51C148.883 412.326 150.704 416.065 154.215 418.524L187.106 441.571C193.159 445.813 201.934 444.641 206.705 438.953L232.613 408.055C234.558 405.733 235.538 403.019 235.602 400.334H235.605V394.62H235.602Z" fill="#500E82"/>
<path d="M187.103 436.213L154.212 413.167C148.158 408.924 147.114 400.872 151.885 395.187L177.793 364.289C182.561 358.6 191.336 357.428 197.393 361.671L230.284 384.718C236.337 388.96 237.381 397.012 232.61 402.697L206.702 433.595C201.935 439.284 193.16 440.456 187.103 436.213Z" fill="url(#paint2_linear_9457_1095)"/>
</g>
<g opacity="0.2">
<path d="M495.356 246.175L494.882 247.05C494.34 245.572 493.337 244.23 491.894 243.219L470.498 228.226C466.56 225.466 460.851 226.228 457.747 229.929L440.895 250.029C440.152 250.916 439.626 251.892 439.312 252.899L438.945 251.697L438.949 255.207V255.211C438.943 257.693 440.127 260.126 442.411 261.725L463.808 276.718C467.746 279.478 473.454 278.715 476.558 275.015L493.412 254.915C494.677 253.404 495.315 251.639 495.356 249.892H495.358V246.175H495.356Z" fill="#500E82"/>
<path d="M463.806 273.233L442.41 258.24C438.471 255.48 437.792 250.242 440.896 246.544L457.75 226.444C460.852 222.743 466.56 221.981 470.5 224.741L491.897 239.733C495.835 242.493 496.514 247.731 493.41 251.43L476.556 271.53C473.455 275.23 467.746 275.993 463.806 273.233Z" fill="url(#paint3_linear_9457_1095)"/>
</g>
<g opacity="0.2">
<path d="M56.4112 188.434L55.937 189.309C55.3945 187.831 54.3924 186.489 52.9493 185.478L31.5526 170.485C27.6144 167.725 21.906 168.487 18.8023 172.188L1.95042 192.288C1.20711 193.175 0.681199 194.151 0.366481 195.158L0 193.956L0.00414103 197.466V197.47C-0.00207051 199.952 1.18226 202.385 3.46604 203.984L24.8627 218.977C28.8008 221.737 34.5093 220.974 37.613 217.274L54.4669 197.174C55.732 195.663 56.3697 193.898 56.4112 192.151H56.4132V188.434H56.4112Z" fill="#500E82"/>
<path d="M24.861 215.492L3.46427 200.499C-0.473848 197.739 -1.15298 192.501 1.95072 188.803L18.8047 168.703C21.9063 165.002 27.6147 164.24 31.5549 166.999L52.9516 181.992C56.8897 184.752 57.5689 189.99 54.4652 193.688L37.6112 213.789C34.5096 217.489 28.8011 218.252 24.861 215.492Z" fill="url(#paint4_linear_9457_1095)"/>
</g>
<g opacity="0.1">
<path d="M116.57 414.884L115.841 416.228C115.007 413.957 113.467 411.893 111.248 410.339L78.3571 387.292C72.3034 383.05 63.5284 384.222 58.7574 389.91L32.8525 420.808C31.7099 422.171 30.9015 423.672 30.4177 425.22L29.8543 423.372L29.8607 428.768V428.774C29.8511 432.59 31.6717 436.329 35.1823 438.788L68.0734 461.835C74.1271 466.077 82.9021 464.905 87.6731 459.217L113.581 428.319C115.526 425.997 116.506 423.283 116.57 420.598H116.573V414.884H116.57Z" fill="#500E82"/>
<path d="M68.0703 456.478L35.1792 433.431C29.1255 429.188 28.0815 421.136 32.8526 415.451L58.7606 384.553C63.5284 378.865 72.3034 377.692 78.3603 381.935L111.251 404.982C117.305 409.224 118.349 417.276 113.578 422.961L87.67 453.859C82.9021 459.548 74.1272 460.72 68.0703 456.478Z" fill="url(#paint5_linear_9457_1095)"/>
</g>
<path d="M477.57 348.302L476.523 350.231C475.32 346.965 473.111 343.999 469.918 341.77L422.614 308.651C413.904 302.554 401.285 304.234 394.421 312.415L357.155 356.826C355.506 358.785 354.355 360.942 353.65 363.161L352.841 360.507V439.477H352.851C352.831 444.962 355.454 450.333 360.504 453.869L407.807 486.988C416.517 493.085 429.136 491.405 436.001 483.224L473.267 438.813C476.067 435.475 477.477 431.576 477.57 427.719V348.292V348.302Z" fill="url(#paint6_linear_9457_1095)"/>
<path d="M407.818 408.09L360.514 374.971C351.804 368.874 350.311 357.303 357.165 349.132L394.431 304.721C401.296 296.55 413.915 294.86 422.625 300.957L469.928 334.076C478.638 340.173 480.131 351.745 473.277 359.916L436.011 404.326C429.147 412.497 416.528 414.187 407.818 408.09Z" fill="url(#paint7_linear_9457_1095)"/>
<path d="M419.566 397.441L411.239 391.614C408.979 390.027 408.585 387.02 410.368 384.895L449.076 338.763C450.859 336.637 454.136 336.202 456.396 337.788L464.723 343.615C466.983 345.202 467.377 348.209 465.594 350.335L426.886 396.466C425.103 398.592 421.826 399.027 419.566 397.441Z" fill="black"/>
<path d="M430.712 343.833C422.998 353.03 408.803 354.918 399.004 348.064C389.205 341.21 387.525 328.186 395.24 318.999C402.955 309.802 417.15 307.915 426.949 314.769C436.747 321.623 438.427 334.646 430.712 343.833Z" fill="#10C0C0"/>
<path d="M425.517 340.194C420.063 346.695 410.026 348.033 403.099 343.19C396.173 338.338 394.981 329.14 400.435 322.639C405.889 316.138 415.926 314.8 422.852 319.642C429.779 324.495 430.971 333.692 425.517 340.194Z" fill="black"/>
<path d="M420.997 394.797L413.666 389.664C412.193 388.638 411.944 386.678 413.095 385.299C414.257 383.92 416.393 383.63 417.865 384.666L425.196 389.799C426.668 390.826 426.917 392.785 425.766 394.165C424.605 395.544 422.469 395.834 420.997 394.797Z" fill="#DEB4FF"/>
<path d="M427.218 387.373L419.887 382.24C418.415 381.214 418.166 379.254 419.317 377.875C420.478 376.496 422.614 376.205 424.086 377.242L431.417 382.375C432.89 383.401 433.139 385.361 431.988 386.74C430.826 388.119 428.69 388.41 427.218 387.373Z" fill="#DEB4FF"/>
<path d="M433.45 379.948L426.119 374.816C424.646 373.789 424.398 371.83 425.549 370.45C426.71 369.071 428.846 368.781 430.318 369.818L437.649 374.951C439.122 375.977 439.37 377.937 438.22 379.316C437.058 380.695 434.922 380.985 433.45 379.948Z" fill="#DEB4FF"/>
<path d="M439.682 372.535L432.351 367.402C430.878 366.375 430.629 364.416 431.78 363.037C432.942 361.657 435.078 361.367 436.55 362.404L443.881 367.537C445.353 368.563 445.602 370.523 444.451 371.902C443.29 373.281 441.154 373.572 439.682 372.535Z" fill="#DEB4FF"/>
<path opacity="0.5" d="M445.903 365.11L438.572 359.978C437.099 358.951 436.851 356.991 438.002 355.612C439.163 354.233 441.299 353.943 442.771 354.98L450.102 360.112C451.575 361.139 451.823 363.099 450.673 364.478C449.511 365.857 447.375 366.147 445.903 365.11Z" fill="#DEB4FF"/>
<path opacity="0.5" d="M452.135 357.686L444.804 352.554C443.331 351.527 443.083 349.567 444.234 348.188C445.395 346.809 447.531 346.519 449.003 347.556L456.334 352.688C457.807 353.715 458.055 355.675 456.904 357.054C455.743 358.433 453.607 358.723 452.135 357.686Z" fill="#DEB4FF"/>
<path opacity="0.5" d="M458.356 350.262L451.025 345.129C449.553 344.103 449.304 342.143 450.455 340.764C451.616 339.385 453.752 339.094 455.225 340.131L462.556 345.264C464.028 346.291 464.277 348.25 463.126 349.629C461.965 351.008 459.829 351.299 458.356 350.262Z" fill="#DEB4FF"/>
<path d="M380.226 347.058C379.344 348.105 377.727 348.323 376.607 347.545C375.487 346.768 375.3 345.274 376.182 344.227C377.063 343.18 378.681 342.962 379.8 343.74C380.92 344.518 381.107 346.011 380.226 347.058Z" fill="#106375"/>
<path d="M386.955 351.765C386.074 352.813 384.456 353.03 383.336 352.253C382.216 351.475 382.03 349.982 382.911 348.935C383.793 347.887 385.41 347.67 386.53 348.447C387.65 349.225 387.836 350.718 386.955 351.765Z" fill="#106375"/>
<path d="M393.674 356.463C392.793 357.51 391.175 357.728 390.055 356.95C388.936 356.172 388.749 354.679 389.63 353.632C390.512 352.585 392.129 352.367 393.249 353.145C394.369 353.922 394.556 355.415 393.674 356.463Z" fill="#106375"/>
<path d="M400.393 361.17C399.512 362.217 397.894 362.435 396.774 361.658C395.655 360.88 395.468 359.387 396.349 358.339C397.231 357.292 398.848 357.074 399.968 357.852C401.088 358.63 401.275 360.123 400.393 361.17Z" fill="#106375"/>
<path d="M407.112 365.878C406.231 366.925 404.613 367.143 403.494 366.365C402.374 365.587 402.187 364.094 403.068 363.047C403.95 362 405.567 361.782 406.687 362.56C407.807 363.337 407.994 364.83 407.112 365.878Z" fill="#106375"/>
<path d="M371.682 357.251C370.8 358.298 369.183 358.516 368.063 357.738C366.943 356.96 366.756 355.467 367.638 354.42C368.519 353.373 370.137 353.155 371.256 353.933C372.376 354.71 372.563 356.203 371.682 357.251Z" fill="#106375"/>
<path d="M378.401 361.948C377.519 362.995 375.902 363.213 374.782 362.435C373.662 361.658 373.475 360.164 374.357 359.117C375.238 358.07 376.856 357.852 377.975 358.63C379.095 359.407 379.282 360.901 378.401 361.948Z" fill="#106375"/>
<path d="M385.12 366.655C384.238 367.703 382.621 367.92 381.501 367.143C380.381 366.365 380.194 364.872 381.076 363.825C381.957 362.777 383.575 362.559 384.695 363.337C385.814 364.115 386.001 365.608 385.12 366.655Z" fill="#106375"/>
<path d="M391.839 371.363C390.957 372.41 389.34 372.628 388.22 371.85C387.1 371.073 386.913 369.579 387.795 368.532C388.676 367.485 390.294 367.267 391.414 368.045C392.534 368.822 392.72 370.316 391.839 371.363Z" fill="#106375"/>
<path d="M398.558 376.071C397.677 377.118 396.059 377.336 394.939 376.558C393.819 375.78 393.633 374.287 394.514 373.24C395.395 372.193 397.013 371.975 398.133 372.752C399.253 373.53 399.439 375.023 398.558 376.071Z" fill="#106375"/>
<path d="M379.168 354.399C378.287 355.447 376.669 355.664 375.549 354.887C374.429 354.109 374.243 352.616 375.124 351.569C376.005 350.521 377.623 350.304 378.743 351.081C379.863 351.859 380.049 353.352 379.168 354.399Z" fill="#106375"/>
<path d="M385.887 359.107C385.006 360.154 383.388 360.372 382.268 359.594C381.148 358.816 380.962 357.323 381.843 356.276C382.725 355.229 384.342 355.011 385.462 355.789C386.582 356.566 386.768 358.06 385.887 359.107Z" fill="#106375"/>
<path d="M392.606 363.814C391.725 364.861 390.107 365.079 388.987 364.302C387.867 363.524 387.681 362.031 388.562 360.983C389.444 359.936 391.061 359.718 392.181 360.496C393.301 361.274 393.487 362.767 392.606 363.814Z" fill="#106375"/>
<path d="M399.325 368.522C398.444 369.569 396.826 369.787 395.706 369.009C394.587 368.232 394.4 366.738 395.281 365.691C396.163 364.644 397.78 364.426 398.9 365.204C400.02 365.981 400.207 367.475 399.325 368.522Z" fill="#106375"/>
<path d="M406.055 373.219C405.173 374.266 403.556 374.484 402.436 373.706C401.316 372.929 401.129 371.436 402.011 370.388C402.892 369.341 404.51 369.123 405.63 369.901C406.749 370.679 406.936 372.172 406.055 373.219Z" fill="#106375"/>
<path d="M412.981 331.411V321.864C412.981 305.355 405.619 289.802 393.073 279.809L375.539 265.842C357.248 251.266 343.737 231.097 336.883 208.125L319.059 148.421C313.283 129.066 289.828 123.256 276.38 137.842L214.808 204.66" stroke="#DBFFFD" stroke-width="17.6273" stroke-miterlimit="10" stroke-linecap="round"/>
<path d="M132.458 299.226C129.471 299.692 126.765 297.784 126.412 294.964L121.145 253.457C120.782 250.636 122.918 247.971 125.894 247.505C128.88 247.038 131.587 248.946 131.939 251.767L137.207 293.274C137.57 296.094 135.434 298.759 132.458 299.226Z" fill="#7C7C7C"/>
<mask id="mask0_9457_1095" style="mask-type:luminance" maskUnits="userSpaceOnUse" x="121" y="247" width="17" height="53">
<path d="M132.458 299.226C129.471 299.692 126.765 297.784 126.412 294.964L121.145 253.457C120.782 250.636 122.918 247.971 125.894 247.505C128.88 247.038 131.587 248.946 131.939 251.767L137.207 293.274C137.57 296.094 135.434 298.759 132.458 299.226Z" fill="white"/>
</mask>
<g mask="url(#mask0_9457_1095)">
<path opacity="0.5" d="M138.648 282.428C140.245 286.534 137.984 291.241 133.598 292.952C129.212 294.663 124.359 292.714 122.763 288.608" stroke="black" stroke-width="4.86307" stroke-miterlimit="10"/>
<path opacity="0.5" d="M137.321 272.774C138.917 276.88 136.657 281.588 132.271 283.299C127.885 285.01 123.032 283.06 121.435 278.954" stroke="black" stroke-width="4.86307" stroke-miterlimit="10"/>
<path opacity="0.5" d="M135.879 262.177C137.476 266.283 135.216 270.991 130.83 272.702C126.444 274.402 121.591 272.463 119.994 268.357" stroke="black" stroke-width="4.86307" stroke-miterlimit="10"/>
</g>
<path d="M146.02 288.991C143.065 289.582 140.276 287.789 139.799 284.989L132.8 243.731C132.323 240.931 134.334 238.173 137.3 237.582C140.255 236.991 143.044 238.784 143.521 241.584L150.521 282.842C150.997 285.642 148.986 288.4 146.02 288.991Z" fill="#7C7C7C"/>
<mask id="mask1_9457_1095" style="mask-type:luminance" maskUnits="userSpaceOnUse" x="132" y="237" width="19" height="53">
<path d="M146.02 288.991C143.065 289.582 140.276 287.789 139.799 284.989L132.8 243.731C132.323 240.931 134.334 238.173 137.3 237.582C140.255 236.991 143.044 238.784 143.521 241.584L150.521 282.842C150.997 285.642 148.986 288.4 146.02 288.991Z" fill="white"/>
</mask>
<g mask="url(#mask1_9457_1095)">
<path opacity="0.5" d="M151.495 271.955C153.258 275.989 151.195 280.789 146.891 282.687C142.588 284.584 137.653 282.832 135.879 278.799" stroke="black" stroke-width="4.86307" stroke-miterlimit="10"/>
<path opacity="0.5" d="M149.774 262.364C151.537 266.397 149.473 271.198 145.17 273.096C140.857 274.983 135.931 273.241 134.158 269.207" stroke="black" stroke-width="4.86307" stroke-miterlimit="10"/>
<path opacity="0.5" d="M147.876 251.839C149.639 255.873 147.576 260.673 143.273 262.571C138.959 264.458 134.034 262.716 132.261 258.683" stroke="black" stroke-width="4.86307" stroke-miterlimit="10"/>
</g>
<path d="M157.25 276.963C154.295 277.554 151.505 275.76 151.028 272.961L144.029 231.702C143.552 228.903 145.564 226.145 148.53 225.554C151.485 224.963 154.274 226.756 154.751 229.556L161.75 270.814C162.227 273.614 160.215 276.372 157.25 276.963Z" fill="#7C7C7C"/>
<mask id="mask2_9457_1095" style="mask-type:luminance" maskUnits="userSpaceOnUse" x="143" y="225" width="19" height="53">
<path d="M157.25 276.963C154.295 277.554 151.505 275.76 151.028 272.961L144.029 231.702C143.552 228.903 145.564 226.145 148.53 225.554C151.485 224.963 154.274 226.756 154.751 229.556L161.75 270.814C162.227 273.614 160.215 276.372 157.25 276.963Z" fill="white"/>
</mask>
<g mask="url(#mask2_9457_1095)">
<path opacity="0.5" d="M162.735 259.927C164.498 263.961 162.434 268.761 158.131 270.659C153.828 272.556 148.892 270.804 147.119 266.771" stroke="black" stroke-width="4.86307" stroke-miterlimit="10"/>
<path opacity="0.5" d="M161.003 250.336C162.766 254.369 160.703 259.17 156.4 261.068C152.086 262.955 147.161 261.213 145.388 257.179" stroke="black" stroke-width="4.86307" stroke-miterlimit="10"/>
<path opacity="0.5" d="M159.116 239.811C160.879 243.845 158.816 248.645 154.512 250.543C150.199 252.43 145.274 250.688 143.501 246.655" stroke="black" stroke-width="4.86307" stroke-miterlimit="10"/>
</g>
<path d="M148.965 205.583C165.286 205.583 178.517 193.202 178.517 177.929C178.517 162.656 165.286 150.274 148.965 150.274C132.644 150.274 119.413 162.656 119.413 177.929C119.413 193.202 132.644 205.583 148.965 205.583Z" fill="black"/>
<path fill-rule="evenodd" clip-rule="evenodd" d="M150.759 93.5456C150.759 93.5456 134.117 110.219 126.973 142.311L123.872 156.237C122.846 160.861 123.696 165.704 126.247 169.696L143.366 196.51L170.377 133.85L150.769 93.5456H150.759Z" fill="url(#paint8_linear_9457_1095)"/>
<path fill-rule="evenodd" clip-rule="evenodd" d="M122.659 165.341L120.17 167.166C117.464 169.146 115.774 172.205 115.535 175.544L109.542 261.14C109.252 265.319 110.952 269.394 114.146 272.121L121.798 278.664C124.919 281.329 129.357 281.795 132.955 279.835L163.316 263.287L150.946 212.966L123.685 174.341C122.338 172.423 121.809 170.048 122.234 167.736L122.669 165.351L122.659 165.341Z" fill="url(#paint9_linear_9457_1095)"/>
<path fill-rule="evenodd" clip-rule="evenodd" d="M163.306 263.286L132.945 279.835C129.347 281.795 124.909 281.329 121.788 278.664L114.136 272.121C110.952 269.394 109.241 265.319 109.532 261.14L110.32 242.704L123.8 251.798C126.298 253.488 127.771 256.329 127.698 259.336L127.563 265.008C127.481 268.512 131.12 270.866 134.283 269.352L161.823 256.163L163.316 263.286H163.306Z" fill="black"/>
<path d="M213.222 282.283C223.095 282.283 231.098 274.279 231.098 264.406C231.098 254.534 223.095 246.53 213.222 246.53C203.349 246.53 195.346 254.534 195.346 264.406C195.346 274.279 203.349 282.283 213.222 282.283Z" fill="black"/>
<path d="M213.44 338.026C213.44 337.612 213.429 337.176 213.419 336.751C213.419 336.502 213.419 336.253 213.419 336.004C212.983 311.264 207.954 270.441 185.941 264.313C163.316 258.019 155.238 282.376 155.238 282.376L157.706 322.732L153.32 328.031C139.623 345.482 142.661 357.634 142.661 357.634H142.681C143.065 363.306 145.958 368.75 151.205 372.421L156.814 376.35C166.748 383.308 181.14 381.379 188.969 372.058L209.302 347.825C211.781 344.87 213.129 341.448 213.409 338.026H213.46H213.44Z" fill="url(#paint10_linear_9457_1095)"/>
<path d="M161.812 286.15C161.812 295.099 169.112 302.015 177.718 299.568C187.476 296.789 194.216 295.099 194.216 286.15C194.216 277.202 186.968 269.954 178.019 269.954C169.071 269.954 161.823 277.202 161.823 286.15H161.812Z" fill="black"/>
<path d="M176.381 293.554L189.031 290.733C193.801 289.676 197.782 286.42 199.773 281.961L204.377 271.675C204.896 270.514 205.269 269.301 205.487 268.046L203.755 239.147C203.34 232.065 202.189 226.943 197.036 223.542L178.703 211.472C171.663 206.838 162.196 208.694 157.437 215.651L148.104 229.286C146.062 232.262 145.139 235.86 145.471 239.458L154.709 276.911C155.041 280.447 156.576 283.755 159.054 286.285L161.968 289.261C165.711 293.087 168.127 294.725 176.381 293.533V293.554Z" fill="url(#paint11_linear_9457_1095)"/>
<path d="M142.702 350.158C141.956 354.907 142.64 357.655 142.64 357.655H142.661C143.044 363.327 145.937 368.771 151.184 372.441L156.794 376.371C166.727 383.329 181.119 381.4 188.948 372.078L206.015 351.745L202.967 351.848C202.189 351.869 201.463 352.211 200.935 352.782L194.921 359.356C194.122 360.227 192.93 360.6 191.779 360.341L190.037 359.947C188.357 359.573 186.615 360.133 185.474 361.409L182.799 364.385C180.601 366.842 177.625 368.48 174.369 369.019L171.715 369.465C169.257 369.88 166.727 369.382 164.612 368.066L145.232 356.058C143.718 355.115 142.775 353.466 142.744 351.682L142.713 350.148L142.702 350.158Z" fill="black"/>
<mask id="mask3_9457_1095" style="mask-type:luminance" maskUnits="userSpaceOnUse" x="142" y="350" width="65" height="31">
<path d="M142.702 350.158C141.956 354.907 142.64 357.655 142.64 357.655H142.661C143.044 363.327 145.937 368.771 151.184 372.441L156.794 376.371C166.727 383.329 181.119 381.4 188.948 372.078L206.015 351.745L202.967 351.848C202.189 351.869 201.463 352.211 200.935 352.782L194.921 359.356C194.122 360.227 192.93 360.6 191.779 360.341L190.037 359.947C188.357 359.573 186.615 360.133 185.474 361.409L182.799 364.385C180.601 366.842 177.625 368.48 174.369 369.019L171.715 369.465C169.257 369.88 166.727 369.382 164.612 368.066L145.232 356.058C143.718 355.115 142.775 353.466 142.744 351.682L142.713 350.148L142.702 350.158Z" fill="white"/>
</mask>
<g mask="url(#mask3_9457_1095)">
<path opacity="0.5" d="M148.685 356.162V375.075L144.818 372.358V353.456L148.685 356.162Z" fill="#7C7C7C"/>
<path opacity="0.5" d="M156.804 361.637V380.55L152.936 377.844V358.93L156.804 361.637Z" fill="#7C7C7C"/>
<path opacity="0.5" d="M164.923 367.112V386.025L161.045 383.318V364.405L164.923 367.112Z" fill="#7C7C7C"/>
<path opacity="0.5" d="M173.032 367.267V386.17L169.164 383.464V364.55L173.032 367.267Z" fill="#7C7C7C"/>
<path opacity="0.5" d="M180.383 365.691V384.594L176.505 381.887V362.974L180.383 365.691Z" fill="#7C7C7C"/>
<path opacity="0.5" d="M187.725 359.594V381.006L183.857 378.289V356.888L187.725 359.594Z" fill="#7C7C7C"/>
<path opacity="0.5" d="M195.066 358.754V377.667L191.198 374.951V356.048L195.066 358.754Z" fill="#7C7C7C"/>
<path opacity="0.5" d="M202.407 351.724V370.637L198.539 367.931V349.018L202.407 351.724Z" fill="#7C7C7C"/>
</g>
<path fill-rule="evenodd" clip-rule="evenodd" d="M180.414 340.764C180.912 341.127 181.607 340.764 181.607 340.152C181.607 338.939 181.607 337.311 181.607 336.637C181.586 323.738 176.599 309.792 170.47 305.519C164.342 301.247 159.386 308.257 159.407 321.156C159.407 323.219 159.542 325.314 159.78 327.388C159.832 327.844 160.143 328.228 160.578 328.383C165.753 330.177 176.775 338.089 180.414 340.753V340.764Z" fill="#500E82"/>
<path d="M211.179 345.16L209.116 347.846V326.662C209.116 325.324 209.603 324.039 210.495 323.033L212.589 320.679L212.828 323.52L212.04 324.412C211.49 325.034 211.179 325.832 211.179 326.672V345.16Z" fill="#DEB4FF"/>
<path d="M264.538 375.21C264.538 374.795 264.528 374.359 264.518 373.934C264.518 373.685 264.518 373.437 264.518 373.188C264.082 348.447 259.053 307.624 237.04 301.496C214.414 295.202 206.337 319.559 206.337 319.559L208.805 359.915L204.419 365.214C190.721 382.665 193.759 394.818 193.759 394.818H193.78C194.164 400.489 197.057 405.933 202.303 409.604L207.913 413.534C217.847 420.491 232.239 418.563 240.067 409.241L260.401 385.008C262.879 382.053 264.227 378.632 264.507 375.21H264.559H264.538Z" fill="url(#paint12_linear_9457_1095)"/>
<path d="M212.921 323.323C212.921 332.272 220.221 339.188 228.827 336.741C238.585 333.962 245.324 332.272 245.324 323.323C245.324 314.375 238.076 307.127 229.128 307.127C220.18 307.127 212.932 314.375 212.932 323.323H212.921Z" fill="black"/>
<path d="M227.479 330.737L240.13 327.917C244.899 326.859 248.881 323.603 250.872 319.144L255.476 308.858C255.994 307.697 256.367 306.484 256.585 305.229L254.854 276.331C254.439 269.249 253.288 264.126 248.134 260.725L229.802 248.656C222.761 244.021 213.294 245.877 208.535 252.835L199.203 266.47C197.16 269.446 196.237 273.044 196.569 276.642L205.808 314.095C206.14 317.631 207.674 320.938 210.153 323.468L213.066 326.444C216.81 330.27 219.226 331.909 227.479 330.716V330.737Z" fill="url(#paint13_linear_9457_1095)"/>
<path d="M193.801 387.341C193.054 392.09 193.739 394.838 193.739 394.838H193.759C194.143 400.51 197.036 405.954 202.283 409.624L207.892 413.554C217.826 420.512 232.218 418.583 240.047 409.262L257.114 388.928L254.066 389.032C253.288 389.052 252.562 389.394 252.033 389.965L246.019 396.539C245.221 397.41 244.028 397.783 242.877 397.524L241.135 397.13C239.456 396.757 237.714 397.316 236.573 398.592L233.898 401.568C231.7 404.025 228.724 405.664 225.468 406.203L222.813 406.649C220.356 407.063 217.826 406.566 215.711 405.249L196.331 393.241C194.817 392.298 193.873 390.649 193.842 388.866L193.811 387.331L193.801 387.341Z" fill="black"/>
<mask id="mask4_9457_1095" style="mask-type:luminance" maskUnits="userSpaceOnUse" x="193" y="387" width="65" height="31">
<path d="M193.801 387.341C193.054 392.09 193.739 394.838 193.739 394.838H193.759C194.143 400.51 197.036 405.954 202.283 409.624L207.892 413.554C217.826 420.512 232.218 418.583 240.047 409.262L257.114 388.928L254.066 389.032C253.288 389.052 252.562 389.394 252.033 389.965L246.019 396.539C245.221 397.41 244.028 397.783 242.877 397.524L241.135 397.13C239.456 396.757 237.714 397.316 236.573 398.592L233.898 401.568C231.7 404.025 228.724 405.664 225.468 406.203L222.813 406.649C220.356 407.063 217.826 406.566 215.711 405.249L196.331 393.241C194.817 392.298 193.873 390.649 193.842 388.866L193.811 387.331L193.801 387.341Z" fill="white"/>
</mask>
<g mask="url(#mask4_9457_1095)">
<path opacity="0.5" d="M199.794 393.345V412.248L195.916 409.542V390.628L199.794 393.345Z" fill="#7C7C7C"/>
<path opacity="0.5" d="M207.903 398.82V417.723L204.035 415.016V396.114L207.903 398.82Z" fill="#7C7C7C"/>
<path opacity="0.5" d="M216.022 404.295V423.208L212.154 420.491V401.589L216.022 404.295Z" fill="#7C7C7C"/>
<path opacity="0.5" d="M224.141 404.44V423.353L220.263 420.636V401.734L224.141 404.44Z" fill="#7C7C7C"/>
<path opacity="0.5" d="M231.482 402.864V421.777L227.614 419.06V400.158L231.482 402.864Z" fill="#7C7C7C"/>
<path opacity="0.5" d="M238.823 396.777V418.179L234.956 415.473V394.061L238.823 396.777Z" fill="#7C7C7C"/>
<path opacity="0.5" d="M246.164 395.937V414.84L242.297 412.134V393.221L246.164 395.937Z" fill="#7C7C7C"/>
<path opacity="0.5" d="M253.516 388.907V407.82L249.638 405.104V386.201L253.516 388.907Z" fill="#7C7C7C"/>
</g>
<path fill-rule="evenodd" clip-rule="evenodd" d="M231.523 377.937C232.021 378.3 232.716 377.937 232.716 377.325C232.716 376.112 232.716 374.484 232.716 373.81C232.695 360.911 227.707 346.964 221.579 342.692C215.451 338.42 210.495 345.43 210.516 358.329C210.516 360.392 210.65 362.487 210.889 364.561C210.941 365.017 211.252 365.401 211.687 365.556C216.861 367.35 227.884 375.262 231.523 377.926V377.937Z" fill="#500E82"/>
<path d="M262.278 382.333L260.214 385.019V363.835C260.214 362.497 260.702 361.212 261.593 360.206L263.688 357.852L263.927 360.693L263.138 361.585C262.589 362.207 262.278 363.005 262.278 363.845V382.333Z" fill="#DEB4FF"/>
<path fill-rule="evenodd" clip-rule="evenodd" d="M224.307 298.541L263.647 253.851C272.253 243.15 277.126 229.94 277.531 216.211C278.516 182.75 283.203 135.613 282.176 115.86C281.927 111.038 279.211 105.688 276.089 103.842C260.225 94.4788 208.452 58.2183 192.546 45.3503C190.369 43.5876 188.399 43.8157 187.32 45.6303L133.712 108.342L167.298 132.16C167.681 160.042 168.469 188.837 169.288 201.871C169.61 207.024 172.389 212.727 175.717 215.06L221.051 246.8L224.307 298.531" fill="url(#paint14_linear_9457_1095)"/>
<path fill-rule="evenodd" clip-rule="evenodd" d="M219.92 298.023L147.638 247.66C144.309 245.327 141.531 239.635 141.209 234.471C139.643 209.482 131.587 134.908 132.862 111.588C133.111 107.108 135.828 105.553 138.949 108.073C154.844 120.941 206.627 157.201 222.492 166.564C225.613 168.4 228.319 173.76 228.579 178.582C229.885 203.696 227.946 271.053 226.37 293.844C226.048 298.541 223.259 300.345 219.941 298.023H219.92Z" fill="url(#paint15_linear_9457_1095)"/>
<path fill-rule="evenodd" clip-rule="evenodd" d="M160.941 145.028L160.962 156.465L162.186 157.315L162.175 145.888L160.941 145.028Z" fill="black"/>
<path fill-rule="evenodd" clip-rule="evenodd" d="M155.363 141.139L155.373 152.566L156.607 153.427L156.586 141.99L155.363 141.139Z" fill="black"/>
<path fill-rule="evenodd" clip-rule="evenodd" d="M166.385 148.854L166.406 160.281L167.629 161.141L167.619 149.704L166.385 148.854Z" fill="black"/>
<path fill-rule="evenodd" clip-rule="evenodd" d="M171.829 152.67L171.849 164.107L173.073 164.957L173.052 153.53L171.829 152.67Z" fill="black"/>
<path fill-rule="evenodd" clip-rule="evenodd" d="M177.273 156.496L177.293 167.923L178.517 168.783L178.496 157.346L177.273 156.496Z" fill="black"/>
<path fill-rule="evenodd" clip-rule="evenodd" d="M182.716 160.312L182.727 171.749L183.961 172.609L183.94 161.172L182.716 160.312Z" fill="black"/>
<path fill-rule="evenodd" clip-rule="evenodd" d="M188.16 164.138L188.17 175.575L189.404 176.425L189.384 164.999L188.16 164.138Z" fill="black"/>
<path fill-rule="evenodd" clip-rule="evenodd" d="M193.593 167.954L193.614 179.391L194.848 180.251L194.827 168.814L193.593 167.954Z" fill="black"/>
<path fill-rule="evenodd" clip-rule="evenodd" d="M199.037 171.78L199.058 183.217L200.292 184.078L200.271 172.64L199.037 171.78Z" fill="black"/>
<path fill-rule="evenodd" clip-rule="evenodd" d="M204.481 175.606L204.502 187.033L205.725 187.893L205.715 176.456L204.481 175.606Z" fill="black"/>
<path d="M211.169 273.355C210.132 273.355 209.012 272.961 207.892 272.173L152.594 233.455C148.768 230.78 145.657 223.998 145.657 218.347V114.792C145.657 114.045 145.927 113.33 146.414 112.759L198.985 50.3689L200.292 51.354L148.001 113.392C147.544 113.921 147.296 114.605 147.296 115.3V218.337C147.296 223.521 150.095 229.701 153.538 232.107L208.836 270.825C209.727 271.447 211.024 272.069 212.164 271.468C213.398 270.825 214.145 268.886 214.145 266.283V162.956C214.145 162.064 214.456 161.203 215.026 160.519L266.363 97.7035L267.742 98.5952L216.478 161.297C216.021 161.846 215.773 162.531 215.773 163.236V266.273C215.773 269.549 214.736 271.965 212.911 272.909C212.372 273.189 211.781 273.334 211.169 273.334V273.355Z" fill="#DEB4FF"/>
<path d="M202.718 256.951L158.712 226.145C156.348 224.496 154.44 220.296 154.44 216.781V175.927C154.44 172.412 156.358 170.898 158.712 172.547L202.718 203.353C205.082 205.002 206.99 209.202 206.99 212.717V253.571C206.99 257.086 205.072 258.6 202.718 256.951Z" fill="black"/>
<path d="M146.946 154.928L146.006 156.27L214.492 204.224L215.432 202.882L146.946 154.928Z" fill="#DEB4FF"/>
<path fill-rule="evenodd" clip-rule="evenodd" d="M224.068 161.328L152.968 111.546C147.596 107.793 147.306 99.2485 152.325 93.0686L180.767 57.3991C185.205 51.945 192.245 50.3067 196.994 53.6248L268.095 103.406C273.466 107.16 273.756 115.704 268.738 121.884L240.296 157.554C235.858 163.008 228.817 164.646 224.068 161.328Z" fill="black"/>
<path fill-rule="evenodd" clip-rule="evenodd" d="M279.065 96.3659C278.568 90.4452 277.977 83.5809 277.448 77.3284C275.996 60.3647 274.005 53.013 274.005 53.013C273.487 47.6626 270.604 41.97 267.224 39.6059C267.224 39.6059 251.142 26.9453 240.99 19.5003L237.517 17.0118C227.345 9.94008 211.916 1.05382 211.916 1.05382C210.505 0.0687666 209.199 -0.200828 208.1 0.14135C207.851 0.213933 207.602 0.327992 207.384 0.46279L146.933 29.9212L157.374 59.7425L182.944 59.4833C182.924 59.7425 182.903 60.0017 182.882 60.2506C182.364 67.343 186.304 73.4504 191.333 76.9551C191.333 76.9551 206.565 89.6986 222.99 101.146C223.653 101.602 224.369 102.1 225.126 102.608L229.18 160.177L277.137 104.858C278.63 103.292 279.418 100.317 279.076 96.3659H279.065Z" fill="url(#paint16_linear_9457_1095)"/>
<path fill-rule="evenodd" clip-rule="evenodd" d="M185.941 52.1109C197.751 60.7691 216.457 75.4931 216.457 75.4931C220.397 78.2409 223.747 84.8667 224.348 91.0881C224.348 91.0881 227.5 108.84 229.19 128.572C229.812 135.841 230.486 143.825 231.077 150.71C231.865 160.063 227.293 164.667 221.341 160.519C221.341 160.519 195.221 144.789 183.608 136.691C164.508 123.377 146.798 108.56 146.798 108.56C140.95 104.485 136.377 93.7529 136.979 85.5095C137.321 80.7916 137.839 74.8606 138.596 67.5193C141.188 42.4781 144.289 35.2716 144.289 35.2716C144.869 29.8797 148.208 27.92 152.148 30.6574C152.148 30.6574 170.087 41.0057 181.928 49.218L185.972 52.1109H185.941Z" fill="#F6EAFF"/>
<path d="M219.008 90.974C218.645 87.4382 216.799 83.6846 214.57 81.953C205.227 74.4976 195.055 66.9386 184.064 59.2863C173.073 51.6236 163.046 45.0911 153.973 39.6784C151.785 38.3512 150.427 39.5955 149.608 42.4677C147.565 49.5912 146.29 57.3887 145.409 64.3982C144.517 71.418 143.978 78.4171 143.791 85.4162C143.407 88.4232 144.019 92.2079 145.46 95.7541C146.902 99.3003 149.017 102.245 151.246 103.79C160.361 110.851 171.341 118.867 184.178 127.805C197.015 136.753 207.996 144.053 217.11 149.694C219.319 151.239 221.424 151.249 222.844 149.735C224.275 148.221 224.887 145.328 224.535 141.834C223.995 132.761 223.27 123.813 222.367 114.989C221.362 105.107 220.843 100.887 219.018 90.974" fill="black"/>
<path fill-rule="evenodd" clip-rule="evenodd" d="M215.959 20.7342H209.821V36.8373C209.862 37.615 210.256 38.3719 210.982 38.88C212.309 39.8132 214.238 39.554 215.296 38.3097C215.669 37.8639 215.876 37.3558 215.939 36.8477H215.959V20.7446V20.7342Z" fill="url(#paint17_linear_9457_1095)"/>
<path d="M213.025 30.1389C217.852 30.1389 221.766 26.2254 221.766 21.3979C221.766 16.5703 217.852 12.6568 213.025 12.6568C208.197 12.6568 204.284 16.5703 204.284 21.3979C204.284 26.2254 208.197 30.1389 213.025 30.1389Z" fill="url(#paint18_radial_9457_1095)"/>
<path fill-rule="evenodd" clip-rule="evenodd" d="M272.896 165.569C272.896 182.118 267.348 202.13 260.515 210.28C253.682 218.43 248.135 211.618 248.135 195.069C248.135 178.52 253.682 158.507 260.515 150.357C267.348 142.207 272.896 149.02 272.896 165.569Z" fill="black"/>
<path fill-rule="evenodd" clip-rule="evenodd" d="M262.268 150.16C278.858 152.193 290.658 167.3 288.615 183.891C286.583 200.481 271.475 212.281 254.885 210.239" fill="black"/>
<path d="M250.955 381.753C248.01 381.11 246.175 378.352 246.859 375.583L256.99 334.988C257.674 332.23 260.629 330.509 263.574 331.162C266.519 331.805 268.354 334.563 267.67 337.332L257.539 377.926C256.855 380.685 253.9 382.406 250.955 381.753Z" fill="#7C7C7C"/>
<mask id="mask5_9457_1095" style="mask-type:luminance" maskUnits="userSpaceOnUse" x="246" y="331" width="22" height="51">
<path d="M250.955 381.753C248.01 381.11 246.175 378.352 246.859 375.583L256.99 334.988C257.674 332.23 260.629 330.509 263.574 331.162C266.519 331.805 268.354 334.563 267.67 337.332L257.539 377.926C256.855 380.685 253.9 382.406 250.955 381.753Z" fill="white"/>
</mask>
<g mask="url(#mask5_9457_1095)">
<path opacity="0.5" d="M262.817 368.345C262.817 372.752 259.001 376.319 254.294 376.319C249.586 376.319 245.77 372.752 245.77 368.345" stroke="black" stroke-width="4.86307" stroke-miterlimit="10"/>
<path opacity="0.5" d="M265.078 358.858C265.078 363.265 261.262 366.832 256.554 366.832C251.847 366.832 248.031 363.265 248.031 358.858" stroke="black" stroke-width="4.86307" stroke-miterlimit="10"/>
<path opacity="0.5" d="M267.566 348.468C267.566 352.875 263.75 356.442 259.043 356.442C254.335 356.442 250.519 352.875 250.519 348.468" stroke="black" stroke-width="4.86307" stroke-miterlimit="10"/>
</g>
<path d="M235.142 363.348C232.197 362.705 230.362 359.947 231.046 357.178L237.683 329.057C238.367 326.299 241.322 324.578 244.267 325.231C247.212 325.874 249.047 328.632 248.363 331.401L241.726 359.521C241.042 362.28 238.087 364.001 235.142 363.348Z" fill="#7C7C7C"/>
<mask id="mask6_9457_1095" style="mask-type:luminance" maskUnits="userSpaceOnUse" x="230" y="325" width="19" height="39">
<path d="M235.142 363.348C232.197 362.705 230.362 359.947 231.046 357.178L237.683 329.057C238.367 326.299 241.322 324.578 244.267 325.231C247.212 325.874 249.047 328.632 248.363 331.401L241.726 359.521C241.042 362.28 238.087 364.001 235.142 363.348Z" fill="white"/>
</mask>
<g mask="url(#mask6_9457_1095)">
<path opacity="0.5" d="M247.004 349.94C247.004 354.347 243.188 357.914 238.481 357.914C233.773 357.914 229.958 354.347 229.958 349.94" stroke="black" stroke-width="4.86307" stroke-miterlimit="10"/>
<path opacity="0.5" d="M249.265 340.463C249.265 344.87 245.449 348.437 240.741 348.437C236.034 348.437 232.218 344.87 232.218 340.463" stroke="black" stroke-width="4.86307" stroke-miterlimit="10"/>
<path opacity="0.5" d="M251.753 330.063C251.753 334.47 247.937 338.037 243.23 338.037C238.522 338.037 234.706 334.47 234.706 330.063" stroke="black" stroke-width="4.86307" stroke-miterlimit="10"/>
</g>
<path d="M266.415 381.753C263.47 381.11 261.635 378.352 262.319 375.583L272.45 334.988C273.134 332.23 276.089 330.509 279.034 331.162C281.979 331.805 283.814 334.563 283.13 337.332L272.999 377.926C272.315 380.685 269.36 382.406 266.415 381.753Z" fill="#7C7C7C"/>
<mask id="mask7_9457_1095" style="mask-type:luminance" maskUnits="userSpaceOnUse" x="262" y="331" width="22" height="51">
<path d="M266.415 381.753C263.47 381.11 261.635 378.352 262.319 375.583L272.45 334.988C273.134 332.23 276.089 330.509 279.034 331.162C281.979 331.805 283.814 334.563 283.13 337.332L272.999 377.926C272.315 380.685 269.36 382.406 266.415 381.753Z" fill="white"/>
</mask>
<g mask="url(#mask7_9457_1095)">
<path opacity="0.5" d="M278.277 368.345C278.277 372.752 274.461 376.319 269.754 376.319C265.046 376.319 261.231 372.752 261.231 368.345" stroke="black" stroke-width="4.86307" stroke-miterlimit="10"/>
<path opacity="0.5" d="M280.538 358.858C280.538 363.265 276.722 366.832 272.014 366.832C267.307 366.832 263.491 363.265 263.491 358.858" stroke="black" stroke-width="4.86307" stroke-miterlimit="10"/>
<path opacity="0.5" d="M283.026 348.468C283.026 352.875 279.21 356.442 274.503 356.442C269.795 356.442 265.979 352.875 265.979 348.468" stroke="black" stroke-width="4.86307" stroke-miterlimit="10"/>
</g>
<path d="M282.207 379.503C279.262 378.86 277.427 376.101 278.111 373.333L288.242 332.738C288.926 329.98 291.881 328.259 294.826 328.912C297.771 329.555 299.606 332.313 298.922 335.082L288.791 375.676C288.107 378.435 285.152 380.156 282.207 379.503Z" fill="#7C7C7C"/>
<mask id="mask8_9457_1095" style="mask-type:luminance" maskUnits="userSpaceOnUse" x="277" y="328" width="23" height="52">
<path d="M282.207 379.503C279.262 378.86 277.427 376.101 278.111 373.333L288.242 332.738C288.926 329.98 291.881 328.259 294.826 328.912C297.771 329.555 299.606 332.313 298.922 335.082L288.791 375.676C288.107 378.435 285.152 380.156 282.207 379.503Z" fill="white"/>
</mask>
<g mask="url(#mask8_9457_1095)">
<path opacity="0.5" d="M294.069 366.095C294.069 370.502 290.253 374.069 285.546 374.069C280.838 374.069 277.023 370.502 277.023 366.095" stroke="black" stroke-width="4.86307" stroke-miterlimit="10"/>
<path opacity="0.5" d="M296.33 356.618C296.33 361.025 292.514 364.592 287.806 364.592C283.099 364.592 279.283 361.025 279.283 356.618" stroke="black" stroke-width="4.86307" stroke-miterlimit="10"/>
<path opacity="0.5" d="M298.818 346.218C298.818 350.625 295.003 354.192 290.295 354.192C285.587 354.192 281.772 350.625 281.772 346.218" stroke="black" stroke-width="4.86307" stroke-miterlimit="10"/>
</g>
<path d="M288.418 278.913C304.739 278.913 317.97 266.531 317.97 251.258C317.97 235.985 304.739 223.604 288.418 223.604C272.097 223.604 258.866 235.985 258.866 251.258C258.866 266.531 272.097 278.913 288.418 278.913Z" fill="black"/>
<path fill-rule="evenodd" clip-rule="evenodd" d="M258.929 249.454C256.305 250.491 254.48 252.783 254.169 255.437L239.881 344.673C238.75 350.926 243.406 356.805 250.125 357.603L294.017 358.702C298.393 359.221 302.738 357.541 305.423 354.264L309.208 349.671C310.546 348.053 311.396 346.125 311.686 344.092L320.002 260.155C320.013 260.062 320.023 259.968 320.023 259.865C320.251 251.746 320.583 242.331 316.072 241.512C316.684 243.305 315.73 246.281 314.641 249.008C313.231 252.555 309.644 254.939 305.6 255.043L265.689 256.329C261.697 256.453 258.503 253.249 258.918 249.537V249.465L258.929 249.454Z" fill="url(#paint19_linear_9457_1095)"/>
<path fill-rule="evenodd" clip-rule="evenodd" d="M243.168 324.122L239.881 344.673C238.75 350.926 243.406 356.805 250.125 357.603L294.017 358.702C298.393 359.221 302.738 357.541 305.423 354.264L309.208 349.671C310.546 348.053 311.396 346.125 311.686 344.092L312.858 332.313L304.407 341.448C301.825 343.522 298.486 344.559 295.096 344.362L250.364 343.688C248.705 343.584 247.492 342.174 247.751 340.629L248.217 337.85C248.974 333.34 247.554 329.026 244.453 325.501L243.178 324.111L243.168 324.122Z" fill="black"/>
<path fill-rule="evenodd" clip-rule="evenodd" d="M277.489 158.787C293.115 157.885 311.541 177.566 314.517 227.285C314.673 229.877 314.382 232.48 313.656 234.989L312.962 237.405L311.458 244.311C310.712 247.723 307.58 250.222 303.868 250.367L270.438 251.684C265.357 251.943 262.216 250.719 259.634 247.681C258.058 245.835 257.166 243.554 257.104 241.19L255.859 199.33C256.71 179.318 258.192 176.726 261.137 170.027C263.564 164.511 271.133 159.15 277.5 158.787H277.489Z" fill="url(#paint20_linear_9457_1095)"/>
<path d="M114.198 290.443C111.18 290.443 108.806 288.12 108.899 285.279L109.47 256.391C109.563 253.55 112.082 251.248 115.1 251.258C118.117 251.258 120.492 253.581 120.398 256.422L119.828 285.31C119.735 288.151 117.215 290.453 114.198 290.443Z" fill="#7C7C7C"/>
<mask id="mask9_9457_1095" style="mask-type:luminance" maskUnits="userSpaceOnUse" x="108" y="251" width="13" height="40">
<path d="M114.198 290.443C111.18 290.443 108.806 288.12 108.899 285.279L109.47 256.391C109.563 253.55 112.082 251.248 115.1 251.258C118.117 251.258 120.492 253.581 120.398 256.422L119.828 285.31C119.735 288.151 117.215 290.453 114.198 290.443Z" fill="white"/>
</mask>
<g mask="url(#mask9_9457_1095)">
<path opacity="0.5" d="M122.97 274.838C123.893 279.141 120.917 283.444 116.313 284.429C111.709 285.414 107.23 282.728 106.297 278.425" stroke="black" stroke-width="4.86307" stroke-miterlimit="10"/>
<path opacity="0.5" d="M123.177 265.101C124.1 269.404 121.124 273.707 116.52 274.692C111.916 275.677 107.437 272.992 106.504 268.689" stroke="black" stroke-width="4.86307" stroke-miterlimit="10"/>
<path opacity="0.5" d="M123.426 254.411C124.349 258.714 121.373 263.017 116.769 264.002C112.165 264.987 107.686 262.301 106.753 257.998" stroke="black" stroke-width="4.86307" stroke-miterlimit="10"/>
</g>
<g opacity="0.3">
<path d="M442.637 458.898C441.859 458.898 441.081 458.764 440.314 458.484C437.639 457.509 435.907 455.041 435.907 452.19V436.418C435.907 429.865 438.24 423.519 442.492 418.532L477.57 377.346V383.536L445.654 421.217C442.046 425.458 440.055 430.85 440.055 436.418V452.19C440.055 453.849 441.341 454.44 441.735 454.585C442.129 454.73 443.497 455.093 444.565 453.828L477.58 414.674V420.948L447.749 456.493C446.442 458.048 444.586 458.898 442.647 458.898H442.637Z" fill="#106375"/>
</g>
<g opacity="0.3">
<path d="M421.702 482.56C420.271 482.56 419.109 481.399 419.109 479.968V422.389C419.109 420.958 420.271 419.797 421.702 419.797C423.132 419.797 424.294 420.958 424.294 422.389V479.968C424.294 481.399 423.132 482.56 421.702 482.56Z" fill="#106375"/>
</g>
<g clip-path="url(#paint21_angular_9457_1095_clip_path)" data-figma-skip-parse="true"><g transform="matrix(0.0199841 0.0129091 -0.0150247 0.0232592 180.715 91.3421)"><foreignObject x="-1385.41" y="-1385.41" width="2770.83" height="2770.83"><div xmlns="http://www.w3.org/1999/xhtml" style="background:conic-gradient(from 90deg,rgba(146, 253, 233, 0) 0deg,rgba(148, 255, 235, 1) 360deg);height:100%;width:100%;opacity:1"></div></foreignObject></g></g><path d="M195.74 101.861H193.24C193.24 107.737 191.623 111.203 189.789 112.652C188.235 113.879 185.749 114.206 182.149 111.686L180.715 113.734L179.281 115.782C183.976 119.068 189.002 119.645 192.888 116.576C196.492 113.73 198.24 108.356 198.24 101.861H195.74ZM180.715 113.734L182.149 111.686C178.494 109.128 174.978 104.42 172.366 98.6977C169.769 93.007 168.19 86.5843 168.19 80.8227H165.69H163.19C163.19 87.4211 164.977 94.5507 167.818 100.774C170.644 106.966 174.641 112.534 179.281 115.782L180.715 113.734ZM165.69 80.8227H168.19C168.19 74.9468 169.807 71.4811 171.642 70.032C173.195 68.8053 175.681 68.4779 179.281 70.9983L180.715 68.9502L182.149 66.9021C177.454 63.6159 172.428 63.0396 168.543 66.1082C164.939 68.9546 163.19 74.3285 163.19 80.8227H165.69ZM180.715 68.9502L179.281 70.9983C182.936 73.5564 186.452 78.2646 189.064 83.9866C191.662 89.6773 193.24 96.1 193.24 101.861H195.74H198.24C198.24 95.2631 196.453 88.1335 193.612 81.9102C190.786 75.7182 186.789 70.1506 182.149 66.9021L180.715 68.9502Z" data-figma-gradient-fill="{&#34;type&#34;:&#34;GRADIENT_ANGULAR&#34;,&#34;stops&#34;:[{&#34;color&#34;:{&#34;r&#34;:0.57254904508590698,&#34;g&#34;:0.99215686321258545,&#34;b&#34;:0.91372549533843994,&#34;a&#34;:0.0},&#34;position&#34;:0.0},{&#34;color&#34;:{&#34;r&#34;:0.58333337306976318,&#34;g&#34;:1.0,&#34;b&#34;:0.92499995231628418,&#34;a&#34;:1.0},&#34;position&#34;:1.0}],&#34;stopsVar&#34;:[{&#34;color&#34;:{&#34;r&#34;:0.57254904508590698,&#34;g&#34;:0.99215686321258545,&#34;b&#34;:0.91372549533843994,&#34;a&#34;:0.0},&#34;position&#34;:0.0},{&#34;color&#34;:{&#34;r&#34;:0.58333337306976318,&#34;g&#34;:1.0,&#34;b&#34;:0.92499995231628418,&#34;a&#34;:1.0},&#34;position&#34;:1.0}],&#34;transform&#34;:{&#34;m00&#34;:39.968128204345703,&#34;m01&#34;:-30.049442291259766,&#34;m02&#34;:175.75575256347656,&#34;m10&#34;:25.818183898925781,&#34;m11&#34;:46.518383026123047,&#34;m12&#34;:55.173847198486328},&#34;opacity&#34;:1.0,&#34;blendMode&#34;:&#34;NORMAL&#34;,&#34;visible&#34;:true}"/>
<g clip-path="url(#paint22_angular_9457_1095_clip_path)" data-figma-skip-parse="true"><g transform="matrix(0.0134951 0.00871743 -0.0101461 0.0157068 178.014 212.404)"><foreignObject x="-1448.12" y="-1448.12" width="2896.24" height="2896.24"><div xmlns="http://www.w3.org/1999/xhtml" style="background:conic-gradient(from 90deg,rgba(146, 253, 233, 0) 0deg,rgba(148, 255, 235, 1) 360deg);height:100%;width:100%;opacity:1"></div></foreignObject></g></g><path d="M188.16 219.508H186.107C186.107 223.431 185.026 225.632 183.915 226.509C183.036 227.203 181.543 227.49 179.191 225.844L178.014 227.525L176.837 229.207C180.087 231.482 183.666 231.937 186.46 229.731C189.022 227.707 190.213 223.939 190.213 219.508H188.16ZM178.014 227.525L179.191 225.844C176.795 224.167 174.456 221.05 172.707 217.22C170.971 213.416 169.92 209.13 169.92 205.301H167.868H165.815C165.815 209.817 167.037 214.684 168.973 218.925C170.897 223.141 173.631 226.963 176.837 229.207L178.014 227.525ZM167.868 205.301H169.92C169.92 201.378 171.002 199.176 172.112 198.3C172.991 197.605 174.485 197.318 176.837 198.965L178.014 197.283L179.191 195.602C175.941 193.327 172.362 192.872 169.568 195.078C167.005 197.102 165.815 200.87 165.815 205.301H167.868ZM178.014 197.283L176.837 198.965C179.233 200.642 181.572 203.759 183.32 207.588C185.057 211.393 186.107 215.678 186.107 219.508H188.16H190.213C190.213 214.991 188.991 210.125 187.055 205.884C185.13 201.668 182.397 197.846 179.191 195.602L178.014 197.283Z" data-figma-gradient-fill="{&#34;type&#34;:&#34;GRADIENT_ANGULAR&#34;,&#34;stops&#34;:[{&#34;color&#34;:{&#34;r&#34;:0.57254904508590698,&#34;g&#34;:0.99215686321258545,&#34;b&#34;:0.91372549533843994,&#34;a&#34;:0.0},&#34;position&#34;:0.0},{&#34;color&#34;:{&#34;r&#34;:0.58333337306976318,&#34;g&#34;:1.0,&#34;b&#34;:0.92499995231628418,&#34;a&#34;:1.0},&#34;position&#34;:1.0}],&#34;stopsVar&#34;:[{&#34;color&#34;:{&#34;r&#34;:0.57254904508590698,&#34;g&#34;:0.99215686321258545,&#34;b&#34;:0.91372549533843994,&#34;a&#34;:0.0},&#34;position&#34;:0.0},{&#34;color&#34;:{&#34;r&#34;:0.58333337306976318,&#34;g&#34;:1.0,&#34;b&#34;:0.92499995231628418,&#34;a&#34;:1.0},&#34;position&#34;:1.0}],&#34;transform&#34;:{&#34;m00&#34;:26.990228652954102,&#34;m01&#34;:-20.292201995849609,&#34;m02&#34;:174.66494750976562,&#34;m10&#34;:17.434858322143555,&#34;m11&#34;:31.413576126098633,&#34;m12&#34;:187.98011779785156},&#34;opacity&#34;:1.0,&#34;blendMode&#34;:&#34;NORMAL&#34;,&#34;visible&#34;:true}"/>
<defs>
<clipPath id="paint21_angular_9457_1095_clip_path"><path d="M195.74 101.861H193.24C193.24 107.737 191.623 111.203 189.789 112.652C188.235 113.879 185.749 114.206 182.149 111.686L180.715 113.734L179.281 115.782C183.976 119.068 189.002 119.645 192.888 116.576C196.492 113.73 198.24 108.356 198.24 101.861H195.74ZM180.715 113.734L182.149 111.686C178.494 109.128 174.978 104.42 172.366 98.6977C169.769 93.007 168.19 86.5843 168.19 80.8227H165.69H163.19C163.19 87.4211 164.977 94.5507 167.818 100.774C170.644 106.966 174.641 112.534 179.281 115.782L180.715 113.734ZM165.69 80.8227H168.19C168.19 74.9468 169.807 71.4811 171.642 70.032C173.195 68.8053 175.681 68.4779 179.281 70.9983L180.715 68.9502L182.149 66.9021C177.454 63.6159 172.428 63.0396 168.543 66.1082C164.939 68.9546 163.19 74.3285 163.19 80.8227H165.69ZM180.715 68.9502L179.281 70.9983C182.936 73.5564 186.452 78.2646 189.064 83.9866C191.662 89.6773 193.24 96.1 193.24 101.861H195.74H198.24C198.24 95.2631 196.453 88.1335 193.612 81.9102C190.786 75.7182 186.789 70.1506 182.149 66.9021L180.715 68.9502Z"/></clipPath><clipPath id="paint22_angular_9457_1095_clip_path"><path d="M188.16 219.508H186.107C186.107 223.431 185.026 225.632 183.915 226.509C183.036 227.203 181.543 227.49 179.191 225.844L178.014 227.525L176.837 229.207C180.087 231.482 183.666 231.937 186.46 229.731C189.022 227.707 190.213 223.939 190.213 219.508H188.16ZM178.014 227.525L179.191 225.844C176.795 224.167 174.456 221.05 172.707 217.22C170.971 213.416 169.92 209.13 169.92 205.301H167.868H165.815C165.815 209.817 167.037 214.684 168.973 218.925C170.897 223.141 173.631 226.963 176.837 229.207L178.014 227.525ZM167.868 205.301H169.92C169.92 201.378 171.002 199.176 172.112 198.3C172.991 197.605 174.485 197.318 176.837 198.965L178.014 197.283L179.191 195.602C175.941 193.327 172.362 192.872 169.568 195.078C167.005 197.102 165.815 200.87 165.815 205.301H167.868ZM178.014 197.283L176.837 198.965C179.233 200.642 181.572 203.759 183.32 207.588C185.057 211.393 186.107 215.678 186.107 219.508H188.16H190.213C190.213 214.991 188.991 210.125 187.055 205.884C185.13 201.668 182.397 197.846 179.191 195.602L178.014 197.283Z"/></clipPath><linearGradient id="paint0_linear_9457_1095" x1="281.078" y1="415.125" x2="370.875" y2="504.859" gradientUnits="userSpaceOnUse">
<stop stop-color="#F6EAFF"/>
<stop offset="1" stop-color="#DEB4FF"/>
</linearGradient>
<linearGradient id="paint1_linear_9457_1095" x1="394.078" y1="62.0169" x2="483.875" y2="151.751" gradientUnits="userSpaceOnUse">
<stop stop-color="#F6EAFF"/>
<stop offset="1" stop-color="#DEB4FF"/>
</linearGradient>
<linearGradient id="paint2_linear_9457_1095" x1="167.668" y1="374.347" x2="216.861" y2="423.506" gradientUnits="userSpaceOnUse">
<stop stop-color="#F6EAFF"/>
<stop offset="1" stop-color="#DEB4FF"/>
</linearGradient>
<linearGradient id="paint3_linear_9457_1095" x1="451.164" y1="232.987" x2="483.165" y2="264.966" gradientUnits="userSpaceOnUse">
<stop stop-color="#F6EAFF"/>
<stop offset="1" stop-color="#DEB4FF"/>
</linearGradient>
<linearGradient id="paint4_linear_9457_1095" x1="12.2184" y1="175.246" x2="44.2199" y2="207.225" gradientUnits="userSpaceOnUse">
<stop stop-color="#F6EAFF"/>
<stop offset="1" stop-color="#DEB4FF"/>
</linearGradient>
<linearGradient id="paint5_linear_9457_1095" x1="48.6361" y1="394.611" x2="97.829" y2="443.77" gradientUnits="userSpaceOnUse">
<stop stop-color="#F6EAFF"/>
<stop offset="1" stop-color="#DEB4FF"/>
</linearGradient>
<linearGradient id="paint6_linear_9457_1095" x1="368.105" y1="367.685" x2="477.57" y2="436.325" gradientUnits="userSpaceOnUse">
<stop stop-color="#95FFEC"/>
<stop offset="1" stop-color="#10C0C0"/>
</linearGradient>
<linearGradient id="paint7_linear_9457_1095" x1="421.499" y1="403.601" x2="411.546" y2="294.115" gradientUnits="userSpaceOnUse">
<stop stop-color="#DBFFFD"/>
<stop offset="1" stop-color="#95FFEC"/>
</linearGradient>
<linearGradient id="paint8_linear_9457_1095" x1="146.912" y1="93.5456" x2="146.912" y2="236.192" gradientUnits="userSpaceOnUse">
<stop offset="0.14" stop-color="#F4E8FC"/>
<stop offset="0.29" stop-color="#E8CEFC"/>
<stop offset="0.46" stop-color="#DEB9FC"/>
<stop offset="0.57" stop-color="#DBB2FD"/>
</linearGradient>
<linearGradient id="paint9_linear_9457_1095" x1="136.408" y1="165.341" x2="138.737" y2="281.038" gradientUnits="userSpaceOnUse">
<stop offset="0.0765961" stop-color="#F4E8FC"/>
<stop offset="0.84" stop-color="#DBB2FD"/>
</linearGradient>
<linearGradient id="paint10_linear_9457_1095" x1="177.895" y1="263.286" x2="177.895" y2="380.55" gradientUnits="userSpaceOnUse">
<stop offset="0.23" stop-color="#F4E8FC"/>
<stop offset="1" stop-color="#DBB2FD"/>
</linearGradient>
<linearGradient id="paint11_linear_9457_1095" x1="175.448" y1="208.932" x2="175.448" y2="293.937" gradientUnits="userSpaceOnUse">
<stop offset="0.63" stop-color="#F4E8FC"/>
<stop offset="1" stop-color="#DBB2FD"/>
</linearGradient>
<linearGradient id="paint12_linear_9457_1095" x1="228.993" y1="300.47" x2="228.993" y2="417.723" gradientUnits="userSpaceOnUse">
<stop offset="0.18" stop-color="#F4E8FC"/>
<stop offset="1" stop-color="#DBB2FD"/>
</linearGradient>
<linearGradient id="paint13_linear_9457_1095" x1="226.556" y1="246.115" x2="226.556" y2="331.11" gradientUnits="userSpaceOnUse">
<stop offset="0.27" stop-color="#F4E8FC"/>
<stop offset="0.55" stop-color="#E7CCFC"/>
<stop offset="0.82" stop-color="#DEB8FC"/>
<stop offset="1" stop-color="#DBB2FD"/>
</linearGradient>
<linearGradient id="paint14_linear_9457_1095" x1="208.017" y1="44.1475" x2="208.017" y2="298.541" gradientUnits="userSpaceOnUse">
<stop offset="0.06" stop-color="#F4E8FC"/>
<stop offset="0.27" stop-color="#EBD6FC"/>
<stop offset="0.63" stop-color="#DFBBFC"/>
<stop offset="0.84" stop-color="#DBB2FD"/>
</linearGradient>
<linearGradient id="paint15_linear_9457_1095" x1="-620.473" y1="-444.101" x2="-701.745" y2="-328.033" gradientUnits="userSpaceOnUse">
<stop offset="0.06" stop-color="#F4E8FC"/>
<stop offset="0.32" stop-color="#F2E4FC"/>
<stop offset="0.57" stop-color="#ECD8FC"/>
<stop offset="0.82" stop-color="#E4C5FC"/>
<stop offset="1" stop-color="#DBB2FD"/>
</linearGradient>
<linearGradient id="paint16_linear_9457_1095" x1="213.025" y1="156.869" x2="213.025" y2="-6.47409" gradientUnits="userSpaceOnUse">
<stop offset="0.26" stop-color="#DBB2FD"/>
<stop offset="1" stop-color="white"/>
</linearGradient>
<linearGradient id="paint17_linear_9457_1095" x1="212.9" y1="41.7833" x2="212.9" y2="23.0776" gradientUnits="userSpaceOnUse">
<stop stop-color="#F4E8FC"/>
<stop offset="0.17" stop-color="#F2E4FC"/>
<stop offset="0.34" stop-color="#ECD8FC"/>
<stop offset="0.5" stop-color="#E4C5FC"/>
<stop offset="0.62" stop-color="#DBB2FD"/>
</linearGradient>
<radialGradient id="paint18_radial_9457_1095" cx="0" cy="0" r="1" gradientUnits="userSpaceOnUse" gradientTransform="translate(213.025 21.3833) scale(19.7945 17.815)">
<stop stop-color="#F4E8FC"/>
<stop offset="0.14" stop-color="#F2E4FC"/>
<stop offset="0.27" stop-color="#ECD8FC"/>
<stop offset="0.41" stop-color="#E4C5FC"/>
<stop offset="0.5" stop-color="#DBB2FD"/>
</radialGradient>
<linearGradient id="paint19_linear_9457_1095" x1="277.59" y1="243.116" x2="282.361" y2="359.369" gradientUnits="userSpaceOnUse">
<stop offset="0.12" stop-color="#F4E8FC"/>
<stop offset="0.36" stop-color="#EDD9FC"/>
<stop offset="0.82" stop-color="#DCB4FC"/>
<stop offset="0.84" stop-color="#DBB2FD"/>
</linearGradient>
<linearGradient id="paint20_linear_9457_1095" x1="281.292" y1="158.542" x2="288.977" y2="287.137" gradientUnits="userSpaceOnUse">
<stop offset="0.3" stop-color="#F4E8FC"/>
<stop offset="0.49" stop-color="#EFDEFC"/>
<stop offset="0.82" stop-color="#E3C3FC"/>
<stop offset="1" stop-color="#DBB2FD"/>
</linearGradient>
</defs>
</svg>
